<svg width="20" height="24" viewBox="0 0 20 24" fill="none" xmlns="http://www.w3.org/2000/svg">
<g id="Group">
<g id="Group_2">
<path id="Vector" d="M14.6187 0C14.6746 0 14.7304 0 14.7894 0C14.9264 1.69253 14.2804 2.95719 13.4953 3.87301C12.7249 4.78251 11.67 5.6646 9.96373 5.53076C9.84991 3.86247 10.497 2.69161 11.2811 1.77789C12.0083 0.92636 13.3414 0.168621 14.6187 0Z" fill="#2E2E2E"/>
<path id="Vector_2" d="M19.7836 17.6164C19.7836 17.6332 19.7836 17.648 19.7836 17.6638C19.3041 19.1161 18.6201 20.3607 17.7855 21.5157C17.0235 22.5643 16.0898 23.9755 14.4225 23.9755C12.9819 23.9755 12.025 23.0491 10.5485 23.0238C8.98662 22.9985 8.12771 23.7984 6.6997 23.9997C6.53635 23.9997 6.373 23.9997 6.21281 23.9997C5.1642 23.848 4.31793 23.0175 3.70141 22.2693C1.88347 20.0582 0.478647 17.2022 0.217285 13.5474C0.217285 13.189 0.217285 12.8318 0.217285 12.4735C0.327943 9.85772 1.59892 7.73099 3.28829 6.7003C4.17987 6.15228 5.40553 5.68541 6.77031 5.89408C7.35521 5.98471 7.95276 6.18495 8.47654 6.38308C8.97292 6.57383 9.59365 6.91213 10.1817 6.89421C10.5801 6.88262 10.9763 6.67501 11.3779 6.52852C12.554 6.1038 13.7069 5.61691 15.2266 5.8456C17.053 6.12172 18.3493 6.93321 19.1502 8.18521C17.6052 9.16848 16.3838 10.6502 16.5925 13.1806C16.778 15.4791 18.1143 16.8239 19.7836 17.6164Z" fill="#2E2E2E"/>
</g>
</g>
</svg>
