<svg width="24" height="24" viewBox="0 0 24 24" fill="none" xmlns="http://www.w3.org/2000/svg">
<g id="005-bathtub" clip-path="url(#clip0_1_3714)">
<path id="Vector" d="M22.7996 11.2001H21.9996V10.8C21.9988 10.1375 21.4622 9.60082 20.7997 9.60009H15.1996C14.5371 9.60082 14.0004 10.1375 13.9997 10.8V11.2001H2.79968V3.20001C2.79877 1.94463 3.76611 0.900933 5.01801 0.806634C6.26971 0.712335 7.38263 1.5993 7.56976 2.84075C6.42993 3.04913 5.60156 4.04138 5.59955 5.20007V5.59997C5.59955 5.82098 5.77881 6.00005 5.99963 6.00005H9.99957C10.2206 6.00005 10.3997 5.82098 10.3997 5.59997V5.20007C10.3976 4.02142 9.54071 3.01855 8.37689 2.8327C8.18262 1.14813 6.7077 -0.0920475 5.01489 0.00536459C3.3219 0.10296 1.99933 1.50427 1.99969 3.20001V11.2001H1.19971C0.537232 11.2008 0.000366211 11.7375 -0.000366211 12.4C0.000366211 12.9073 0.320984 13.3589 0.799622 13.5272V16.8C0.804199 19.7346 3.07251 22.1686 5.99963 22.3798V22.8C5.99963 23.4628 6.53687 24.0001 7.19971 24.0001C7.86237 24.0001 8.3996 23.4628 8.3996 22.8V22.4001H15.5997V22.8C15.5997 23.4628 16.1369 24.0001 16.7996 24.0001C17.4624 24.0001 17.9996 23.4628 17.9996 22.8V22.3798C20.9268 22.1686 23.1951 19.7346 23.1996 16.8V13.5262C23.6777 13.358 23.9982 12.9068 23.9996 12.4C23.9965 11.7386 23.4611 11.2032 22.7996 11.2001ZM9.59967 5.20007H6.39972C6.39972 4.3164 7.11603 3.60009 7.99969 3.60009C8.88336 3.60009 9.59967 4.3164 9.59967 5.20007ZM20.3996 11.2001V10.8C20.3996 10.5792 20.5787 10.4001 20.7997 10.4001C21.0205 10.4001 21.1996 10.5792 21.1996 10.8V11.2001H20.3996ZM14.7997 10.8C14.7999 10.5792 14.9788 10.4003 15.1996 10.4001H19.6734C19.626 10.5281 19.6009 10.6634 19.5996 10.8V15.2H15.9996C15.7787 15.2 15.5997 15.3791 15.5997 15.6001C15.5997 15.8209 15.7787 16 15.9996 16H19.5996V16.8H14.7997V10.8ZM7.59961 22.8C7.59961 23.021 7.42053 23.2001 7.19971 23.2001C6.9787 23.2001 6.79962 23.021 6.79962 22.8V22.4001H7.59961V22.8ZM17.1996 22.8C17.1996 23.021 17.0206 23.2001 16.7996 23.2001C16.5787 23.2001 16.3997 23.021 16.3997 22.8V22.4001H17.1996V22.8ZM17.5995 21.6001H6.39972C3.75 21.597 1.60272 19.4497 1.59961 16.8V13.6H11.9996C12.2205 13.6 12.3997 13.421 12.3997 13.1999C12.3997 12.9791 12.2205 12.8 11.9996 12.8H1.19971C1.09186 12.8002 0.988769 12.7561 0.914795 12.6777C0.840271 12.6047 0.798706 12.5043 0.799622 12.4C0.799988 12.1791 0.978882 12.0002 1.19971 12.0001H13.9997V16.8C14.0006 17.0845 14.153 17.3469 14.3996 17.4888V18.4C14.3996 18.621 14.5787 18.8 14.7997 18.8C15.0205 18.8 15.1996 18.621 15.1996 18.4V17.6H15.9996V18.4C15.9996 18.621 16.1786 18.8 16.3997 18.8C16.6205 18.8 16.7996 18.621 16.7996 18.4V17.6H17.5995V18.4C17.5995 18.621 17.7788 18.8 17.9996 18.8C18.2205 18.8 18.3997 18.621 18.3997 18.4V17.6H19.1997V18.4C19.1997 18.621 19.3788 18.8 19.5996 18.8C19.8206 18.8 19.9997 18.621 19.9997 18.4V17.4886C20.2463 17.3469 20.3987 17.0845 20.3996 16.8V13.6H22.3997V16.8C22.3967 19.4497 20.2495 21.597 17.5995 21.6001ZM22.7996 12.8H20.3996V12.0001H22.7996C22.9076 11.9999 23.0107 12.0442 23.0848 12.1226C23.1592 12.1956 23.2006 12.2958 23.1996 12.4C23.1995 12.6208 23.0204 12.7999 22.7996 12.8Z" fill="#361830"/>
<path id="Vector_2" d="M8.3985 7.2002C8.3985 6.97937 8.21942 6.80029 7.9986 6.80029C7.77759 6.80029 7.59851 6.97937 7.59851 7.2002V7.60028C7.59851 7.82111 7.77759 8.00018 7.9986 8.00018C8.21942 8.00018 8.3985 7.82111 8.3985 7.60028V7.2002Z" fill="black"/>
<path id="Vector_3" d="M7.9986 8.7998C7.77759 8.7998 7.59851 8.97906 7.59851 9.19989V9.59998C7.59851 9.8208 7.77759 9.99988 7.9986 9.99988C8.21942 9.99988 8.3985 9.8208 8.3985 9.59998V9.19989C8.3985 8.97906 8.21942 8.7998 7.9986 8.7998Z" fill="black"/>
<path id="Vector_4" d="M6.59456 6.46277L6.31459 6.7486C6.15986 6.90644 6.16243 7.15967 6.32026 7.3144C6.4781 7.46894 6.73134 7.46638 6.88606 7.30854L7.16603 7.02289C7.32075 6.86506 7.31801 6.61182 7.16035 6.4571C7.00252 6.30237 6.7491 6.30512 6.59456 6.46277Z" fill="black"/>
<path id="Vector_5" d="M5.19282 7.89058L4.91285 8.1764C4.75813 8.33424 4.76069 8.58748 4.91853 8.74202C5.07637 8.89674 5.3296 8.89418 5.48433 8.73634L5.76429 8.45051C5.91902 8.29268 5.91646 8.03944 5.75862 7.8849C5.60078 7.73018 5.34736 7.73274 5.19282 7.89058Z" fill="black"/>
<path id="Vector_6" d="M8.83947 6.45724C8.68181 6.61196 8.67943 6.86501 8.83379 7.02303L9.11376 7.30868C9.21392 7.41085 9.36077 7.45186 9.4992 7.41616C9.63762 7.38064 9.74657 7.27389 9.78502 7.13619C9.82329 6.9985 9.78539 6.85091 9.68541 6.74874L9.40526 6.46291C9.3311 6.38711 9.22966 6.34389 9.12365 6.34279C9.01745 6.3417 8.91527 6.38289 8.83947 6.45724Z" fill="black"/>
<path id="Vector_7" d="M10.233 8.45051L10.513 8.73634C10.6131 8.83833 10.76 8.87935 10.8984 8.84382C11.0368 8.80812 11.1458 8.70155 11.1842 8.56386C11.2225 8.42616 11.1846 8.27839 11.0846 8.1764L10.8045 7.89058C10.6499 7.73274 10.3967 7.73018 10.2389 7.8849C10.081 8.03944 10.0785 8.29286 10.233 8.45051Z" fill="black"/>
<path id="Vector_8" d="M7.59906 19.9998H6.39917C4.63257 19.9977 3.20105 18.5662 3.19904 16.7998C3.19904 16.579 3.01996 16.3999 2.79913 16.3999C2.57812 16.3999 2.39905 16.579 2.39905 16.7998C2.40161 19.0079 4.19092 20.7974 6.39917 20.7997H7.59906C7.82007 20.7997 7.99915 20.6207 7.99915 20.3998C7.99915 20.1788 7.82007 19.9998 7.59906 19.9998Z" fill="black"/>
<path id="Vector_9" d="M2.79913 15.6005C3.01996 15.6005 3.19904 15.4212 3.19904 15.2004V14.8003C3.19904 14.5795 3.01996 14.4004 2.79913 14.4004C2.57812 14.4004 2.39905 14.5795 2.39905 14.8003V15.2004C2.39905 15.4212 2.57812 15.6005 2.79913 15.6005Z" fill="black"/>
</g>
<defs>
<clipPath id="clip0_1_3714">
<rect width="24" height="24" fill="white"/>
</clipPath>
</defs>
</svg>
