<svg width="24" height="25" viewBox="0 0 24 25" fill="none" xmlns="http://www.w3.org/2000/svg">
<g id="045-bed" clip-path="url(#clip0_1_3698)">
<path id="Vector" d="M23.1781 14.4793C23.1296 14.0734 22.9917 13.6832 22.7749 13.3365C22.7899 13.2968 22.7983 13.2549 22.7998 13.2124V2.01239C22.7998 1.79156 22.6207 1.61249 22.3999 1.61249C22.1789 1.61249 21.9998 1.79156 21.9998 2.01239V4.19153C20.7688 3.08081 17.8311 1.2124 11.9999 1.2124C6.1687 1.2124 3.23096 3.08081 1.99994 4.19171V2.01239C1.99994 1.79156 1.82086 1.61249 1.59985 1.61249C1.37903 1.61249 1.19995 1.79156 1.19995 2.01239V13.2124C1.20142 13.2549 1.20984 13.2966 1.22485 13.3364C1.00806 13.683 0.870178 14.0734 0.821655 14.4793C0.332581 14.641 0.00152588 15.0973 -0.00012207 15.6124V22.0125C0.000610352 22.6749 0.537476 23.2116 1.19995 23.2123H1.59985C1.60077 24.0956 2.31653 24.8114 3.19983 24.8123H3.99982C4.88312 24.8114 5.59888 24.0956 5.59979 23.2123H18.4C18.4007 24.0956 19.1166 24.8116 19.9999 24.8123H20.7999C21.6832 24.8116 22.399 24.0956 22.3999 23.2123H22.7998C23.4623 23.2116 23.9991 22.6749 23.9999 22.0125V15.6124C23.9982 15.0973 23.6672 14.641 23.1781 14.4793ZM1.99994 6.94745C2.43536 6.4115 5.0459 3.61237 11.9999 3.61237C18.9559 3.61237 21.5657 6.4126 21.9998 6.94727V12.5179C21.5312 12.1888 20.9726 12.0121 20.3998 12.0123V10.0125C20.3986 8.90833 19.5039 8.01367 18.4 8.01239H13.5999C12.968 8.01404 12.3741 8.31561 11.9999 8.82483C11.6256 8.31561 11.0318 8.01404 10.3999 8.01239H5.59979C4.49585 8.01367 3.6012 8.90833 3.59991 10.0125V12.0123C3.02716 12.0121 2.46851 12.1887 1.99994 12.5179V6.94745ZM4.3999 12.0123V10.0125C4.40063 9.34998 4.9375 8.81311 5.59979 8.81238H10.3999C11.0624 8.81311 11.5991 9.34998 11.5998 10.0125V12.0123H4.3999ZM12.4 10.0125C12.4007 9.34998 12.9374 8.81311 13.5999 8.81238H18.4C19.0623 8.81311 19.5991 9.34998 19.5999 10.0125V12.0123H12.4V10.0125ZM3.59991 12.8123H20.3998C21.3498 12.8136 22.1683 13.4819 22.3596 14.4125H1.64014C1.8313 13.4819 2.64996 12.8136 3.59991 12.8123ZM11.9999 2.01239C18.9559 2.01239 21.5657 4.81262 21.9998 5.34729V5.7915C20.7688 4.68079 17.8311 2.81238 11.9999 2.81238C6.1687 2.81238 3.23096 4.68097 1.99994 5.79169V5.34747C2.43536 4.81152 5.0459 2.01239 11.9999 2.01239ZM3.99982 24.0123H3.19983C2.75818 24.012 2.40039 23.654 2.39984 23.2123H4.7998C4.79944 23.654 4.44147 24.012 3.99982 24.0123ZM20.7999 24.0123H19.9999C19.5583 24.0118 19.2005 23.654 19.2 23.2123H21.5999C21.5994 23.654 21.2414 24.0118 20.7999 24.0123ZM23.1999 22.0125C23.1997 22.2333 23.0208 22.4124 22.7998 22.4124H1.19995C0.979126 22.4122 0.800049 22.2333 0.799866 22.0125V15.6124C0.800049 15.3915 0.979126 15.2126 1.19995 15.2125H22.7998C23.0208 15.2125 23.1997 15.3915 23.1999 15.6124V22.0125Z" fill="#361830"/>
<path id="Vector_2" d="M5.99982 10.0122C5.77899 10.0122 5.59973 10.1913 5.59973 10.4121V10.8122C5.59973 11.033 5.77899 11.2121 5.99982 11.2121C6.22064 11.2121 6.3999 11.033 6.3999 10.8122V10.4121C6.3999 10.1913 6.22064 10.0122 5.99982 10.0122Z" fill="#361830"/>
<path id="Vector_3" d="M9.99915 10.0122C9.77832 10.0122 9.59924 10.1913 9.59924 10.4121V10.8122C9.59924 11.033 9.77832 11.2121 9.99915 11.2121C10.2202 11.2121 10.3992 11.033 10.3992 10.8122V10.4121C10.3992 10.1913 10.2202 10.0122 9.99915 10.0122Z" fill="#361830"/>
<path id="Vector_4" d="M13.9998 10.0122C13.7788 10.0122 13.5997 10.1913 13.5997 10.4121V10.8122C13.5997 11.033 13.7788 11.2121 13.9998 11.2121C14.2206 11.2121 14.3997 11.033 14.3997 10.8122V10.4121C14.3997 10.1913 14.2206 10.0122 13.9998 10.0122Z" fill="#361830"/>
<path id="Vector_5" d="M17.9997 10.0122C17.7789 10.0122 17.5996 10.1913 17.5996 10.4121V10.8122C17.5996 11.033 17.7789 11.2121 17.9997 11.2121C18.2205 11.2121 18.3998 11.033 18.3998 10.8122V10.4121C18.3998 10.1913 18.2205 10.0122 17.9997 10.0122Z" fill="#361830"/>
<path id="Vector_6" d="M2.80029 16.0122H2.00031C1.7793 16.0122 1.60022 16.1913 1.60022 16.4121C1.60022 16.6331 1.7793 16.8122 2.00031 16.8122H2.80029C3.02112 16.8122 3.2002 16.6331 3.2002 16.4121C3.2002 16.1913 3.02112 16.0122 2.80029 16.0122Z" fill="#361830"/>
<path id="Vector_7" d="M15.9993 16.0122H4.39935C4.17834 16.0122 3.99927 16.1913 3.99927 16.4121C3.99927 16.6331 4.17834 16.8122 4.39935 16.8122H15.9993C16.2203 16.8122 16.3994 16.6331 16.3994 16.4121C16.3994 16.1913 16.2203 16.0122 15.9993 16.0122Z" fill="#361830"/>
</g>
<defs>
<clipPath id="clip0_1_3698">
<rect width="24" height="24" fill="white" transform="translate(-0.00012207 0.978027)"/>
</clipPath>
</defs>
</svg>
