<svg width="20" height="21" viewBox="0 0 20 21" fill="none" xmlns="http://www.w3.org/2000/svg">
<g id="u:calendar-alt">
<path id="Vector" d="M10.0001 16.333C10.1649 16.333 10.326 16.2841 10.4631 16.1926C10.6001 16.101 10.7069 15.9708 10.77 15.8186C10.8331 15.6663 10.8496 15.4987 10.8174 15.3371C10.7852 15.1754 10.7059 15.027 10.5893 14.9104C10.4728 14.7939 10.3243 14.7145 10.1627 14.6824C10.001 14.6502 9.83345 14.6667 9.68118 14.7298C9.52891 14.7928 9.39876 14.8997 9.30719 15.0367C9.21562 15.1737 9.16675 15.3349 9.16675 15.4997C9.16675 15.7207 9.25455 15.9326 9.41083 16.0889C9.56711 16.2452 9.77907 16.333 10.0001 16.333ZM14.1667 16.333C14.3316 16.333 14.4927 16.2841 14.6297 16.1926C14.7668 16.101 14.8736 15.9708 14.9366 15.8186C14.9997 15.6663 15.0162 15.4987 14.9841 15.3371C14.9519 15.1754 14.8725 15.027 14.756 14.9104C14.6395 14.7939 14.491 14.7145 14.3293 14.6824C14.1677 14.6502 14.0001 14.6667 13.8478 14.7298C13.6956 14.7928 13.5654 14.8997 13.4739 15.0367C13.3823 15.1737 13.3334 15.3349 13.3334 15.4997C13.3334 15.7207 13.4212 15.9326 13.5775 16.0889C13.7338 16.2452 13.9457 16.333 14.1667 16.333ZM14.1667 12.9997C14.3316 12.9997 14.4927 12.9508 14.6297 12.8592C14.7668 12.7677 14.8736 12.6375 14.9366 12.4852C14.9997 12.333 15.0162 12.1654 14.9841 12.0038C14.9519 11.8421 14.8725 11.6936 14.756 11.5771C14.6395 11.4605 14.491 11.3812 14.3293 11.349C14.1677 11.3169 14.0001 11.3334 13.8478 11.3964C13.6956 11.4595 13.5654 11.5663 13.4739 11.7034C13.3823 11.8404 13.3334 12.0015 13.3334 12.1663C13.3334 12.3874 13.4212 12.5993 13.5775 12.7556C13.7338 12.9119 13.9457 12.9997 14.1667 12.9997ZM10.0001 12.9997C10.1649 12.9997 10.326 12.9508 10.4631 12.8592C10.6001 12.7677 10.7069 12.6375 10.77 12.4852C10.8331 12.333 10.8496 12.1654 10.8174 12.0038C10.7852 11.8421 10.7059 11.6936 10.5893 11.5771C10.4728 11.4605 10.3243 11.3812 10.1627 11.349C10.001 11.3169 9.83345 11.3334 9.68118 11.3964C9.52891 11.4595 9.39876 11.5663 9.30719 11.7034C9.21562 11.8404 9.16675 12.0015 9.16675 12.1663C9.16675 12.3874 9.25455 12.5993 9.41083 12.7556C9.56711 12.9119 9.77907 12.9997 10.0001 12.9997ZM15.8334 2.99967H15.0001V2.16634C15.0001 1.94533 14.9123 1.73337 14.756 1.57709C14.5997 1.42081 14.3878 1.33301 14.1667 1.33301C13.9457 1.33301 13.7338 1.42081 13.5775 1.57709C13.4212 1.73337 13.3334 1.94533 13.3334 2.16634V2.99967H6.66675V2.16634C6.66675 1.94533 6.57895 1.73337 6.42267 1.57709C6.26639 1.42081 6.05443 1.33301 5.83342 1.33301C5.6124 1.33301 5.40044 1.42081 5.24416 1.57709C5.08788 1.73337 5.00008 1.94533 5.00008 2.16634V2.99967H4.16675C3.50371 2.99967 2.86782 3.26307 2.39898 3.73191C1.93014 4.20075 1.66675 4.83663 1.66675 5.49967V17.1663C1.66675 17.8294 1.93014 18.4653 2.39898 18.9341C2.86782 19.4029 3.50371 19.6663 4.16675 19.6663H15.8334C16.4965 19.6663 17.1323 19.4029 17.6012 18.9341C18.07 18.4653 18.3334 17.8294 18.3334 17.1663V5.49967C18.3334 4.83663 18.07 4.20075 17.6012 3.73191C17.1323 3.26307 16.4965 2.99967 15.8334 2.99967ZM16.6667 17.1663C16.6667 17.3874 16.579 17.5993 16.4227 17.7556C16.2664 17.9119 16.0544 17.9997 15.8334 17.9997H4.16675C3.94573 17.9997 3.73377 17.9119 3.57749 17.7556C3.42121 17.5993 3.33341 17.3874 3.33341 17.1663V9.66634H16.6667V17.1663ZM16.6667 7.99967H3.33341V5.49967C3.33341 5.27866 3.42121 5.0667 3.57749 4.91042C3.73377 4.75414 3.94573 4.66634 4.16675 4.66634H5.00008V5.49967C5.00008 5.72069 5.08788 5.93265 5.24416 6.08893C5.40044 6.24521 5.6124 6.33301 5.83342 6.33301C6.05443 6.33301 6.26639 6.24521 6.42267 6.08893C6.57895 5.93265 6.66675 5.72069 6.66675 5.49967V4.66634H13.3334V5.49967C13.3334 5.72069 13.4212 5.93265 13.5775 6.08893C13.7338 6.24521 13.9457 6.33301 14.1667 6.33301C14.3878 6.33301 14.5997 6.24521 14.756 6.08893C14.9123 5.93265 15.0001 5.72069 15.0001 5.49967V4.66634H15.8334C16.0544 4.66634 16.2664 4.75414 16.4227 4.91042C16.579 5.0667 16.6667 5.27866 16.6667 5.49967V7.99967ZM5.83342 12.9997C5.99823 12.9997 6.15935 12.9508 6.29639 12.8592C6.43343 12.7677 6.54024 12.6375 6.60331 12.4852C6.66639 12.333 6.68289 12.1654 6.65074 12.0038C6.61858 11.8421 6.53921 11.6936 6.42267 11.5771C6.30613 11.4605 6.15764 11.3812 5.99599 11.349C5.83434 11.3169 5.66678 11.3334 5.51451 11.3964C5.36224 11.4595 5.23209 11.5663 5.14052 11.7034C5.04896 11.8404 5.00008 12.0015 5.00008 12.1663C5.00008 12.3874 5.08788 12.5993 5.24416 12.7556C5.40044 12.9119 5.6124 12.9997 5.83342 12.9997ZM5.83342 16.333C5.99823 16.333 6.15935 16.2841 6.29639 16.1926C6.43343 16.101 6.54024 15.9708 6.60331 15.8186C6.66639 15.6663 6.68289 15.4987 6.65074 15.3371C6.61858 15.1754 6.53921 15.027 6.42267 14.9104C6.30613 14.7939 6.15764 14.7145 5.99599 14.6824C5.83434 14.6502 5.66678 14.6667 5.51451 14.7298C5.36224 14.7928 5.23209 14.8997 5.14052 15.0367C5.04896 15.1737 5.00008 15.3349 5.00008 15.4997C5.00008 15.7207 5.08788 15.9326 5.24416 16.0889C5.40044 16.2452 5.6124 16.333 5.83342 16.333Z" fill="#1741AC"/>
</g>
</svg>
