<svg width="25" height="24" viewBox="0 0 25 24" fill="none" xmlns="http://www.w3.org/2000/svg">
<g id="u:comment-lines">
<path id="Vector" d="M17.5 9H7.5C7.23478 9 6.98043 9.10536 6.79289 9.29289C6.60536 9.48043 6.5 9.73478 6.5 10C6.5 10.2652 6.60536 10.5196 6.79289 10.7071C6.98043 10.8946 7.23478 11 7.5 11H17.5C17.7652 11 18.0196 10.8946 18.2071 10.7071C18.3946 10.5196 18.5 10.2652 18.5 10C18.5 9.73478 18.3946 9.48043 18.2071 9.29289C18.0196 9.10536 17.7652 9 17.5 9ZM13.5 13H7.5C7.23478 13 6.98043 13.1054 6.79289 13.2929C6.60536 13.4804 6.5 13.7348 6.5 14C6.5 14.2652 6.60536 14.5196 6.79289 14.7071C6.98043 14.8946 7.23478 15 7.5 15H13.5C13.7652 15 14.0196 14.8946 14.2071 14.7071C14.3946 14.5196 14.5 14.2652 14.5 14C14.5 13.7348 14.3946 13.4804 14.2071 13.2929C14.0196 13.1054 13.7652 13 13.5 13ZM12.5 2C11.1868 2 9.88642 2.25866 8.67316 2.7612C7.45991 3.26375 6.35752 4.00035 5.42893 4.92893C3.55357 6.8043 2.5 9.34784 2.5 12C2.49126 14.3091 3.29079 16.5485 4.76 18.33L2.76 20.33C2.62124 20.4706 2.52725 20.6492 2.48987 20.8432C2.4525 21.0372 2.47342 21.2379 2.55 21.42C2.63306 21.5999 2.7677 21.7511 2.93685 21.8544C3.10599 21.9577 3.302 22.0083 3.5 22H12.5C15.1522 22 17.6957 20.9464 19.5711 19.0711C21.4464 17.1957 22.5 14.6522 22.5 12C22.5 9.34784 21.4464 6.8043 19.5711 4.92893C17.6957 3.05357 15.1522 2 12.5 2ZM12.5 20H5.91L6.84 19.07C7.02625 18.8826 7.13079 18.6292 7.13079 18.365C7.13079 18.1008 7.02625 17.8474 6.84 17.66C5.53059 16.352 4.71517 14.6305 4.53269 12.7888C4.35021 10.947 4.81194 9.09901 5.83923 7.55952C6.86651 6.02004 8.39579 4.88436 10.1665 4.34597C11.9372 3.80759 13.8399 3.8998 15.5502 4.60691C17.2606 5.31402 18.6729 6.59227 19.5464 8.22389C20.42 9.85551 20.7009 11.7395 20.3411 13.555C19.9814 15.3705 19.0033 17.005 17.5735 18.1802C16.1438 19.3554 14.3508 19.9985 12.5 20Z" fill="#7E7E7E"/>
</g>
</svg>
