<svg width="92" height="91" viewBox="0 0 92 91" fill="none" xmlns="http://www.w3.org/2000/svg">
<g id="Group 1000004092">
<rect id="Rectangle 944" width="92" height="91" rx="12" fill="white"/>
<g id="Mask group">
<mask id="mask0_1564_11500" style="mask-type:alpha" maskUnits="userSpaceOnUse" x="6" y="27" width="82" height="54">
<rect id="Rectangle 970" x="6" y="27" width="81.1299" height="53.3932" fill="#D9D9D9"/>
</mask>
<g mask="url(#mask0_1564_11500)">
<g id="g10">
<g id="g12">
<path id="path18" d="M103.341 55.4739C103.806 56.895 102.97 58.4124 101.52 58.7788L96.0998 64.4958C94.7499 64.8369 94.8393 65.4911 93.6766 64.7811L85.9778 57.859L86.681 54.798L90.044 55.3816C91.0857 55.5624 94.8111 57.7283 95.8345 57.4635C95.8345 57.4635 96.5847 54.3004 97.3604 53.6154C98.5254 52.5869 102.858 53.9966 103.341 55.4739Z" fill="#D1A6D8"/>
<path id="path20" d="M87.3443 55.3958L86.6412 58.457L85.1178 57.8948C84.5758 57.7359 82.2872 57.7826 81.8328 57.7698C81.1692 57.7513 80.4048 57.3636 79.8025 56.6689C79.546 56.3731 79.3515 56.0494 79.2226 55.7243C78.8522 54.7914 79.499 53.7574 80.4837 53.5619L81.465 53.3671C82.1215 53.2368 82.7956 53.4873 83.2076 54.0151L83.5757 54.741L87.3443 55.3958Z" fill="#B25D36"/>
<path id="path22" d="M21.3229 57.7881C21.2278 59.2807 22.4167 60.5415 23.9124 60.5341L28.6348 60.5102C30.0277 60.5034 31.4964 60.0769 32.7949 59.3029L38.7374 55.7591L37.2912 52.9698L34.1796 54.3755C33.2156 54.8108 32.1703 55.0357 31.1127 55.0349L24.2643 55.03C22.7096 55.0289 21.4217 56.2365 21.3229 57.7881Z" fill="#FAB332"/>
<path id="path24" d="M37.2911 52.9685L38.7373 55.7578L40.6849 54.5963C41.1703 54.3071 41.8658 54.2746 42.2723 54.4782C42.8664 54.7754 43.7233 54.7947 44.5825 54.4668C44.9486 54.3273 45.2729 54.1334 45.5405 53.9079C46.3077 53.2603 46.2257 52.043 45.4499 51.4053L44.6767 50.7698C44.1592 50.3448 43.4466 50.2472 42.834 50.5182L37.2911 52.9685Z" fill="#B25D36"/>
<path id="path26" d="M30.2213 68.2107C31.9294 68.1404 33.5507 67.7002 35.0319 66.9726C34.503 65.4065 33.9094 64.46 33.1152 62.9787C31.5761 63.7423 30.2196 64.4719 28.6353 64.8765C28.4358 64.9274 28.2337 64.9647 28.0287 64.9909C26.2559 65.2175 24.9899 66.9717 25.6843 68.6184C25.8375 68.9819 26.0578 69.2552 26.3171 69.3862C27.0847 69.7175 27.9154 69.2512 28.6564 68.7143C29.1031 68.3909 29.6186 68.2158 30.1365 68.2113L30.2213 68.2107Z" fill="#B25D36"/>
<path id="path28" d="M33.1151 62.9788C33.9094 64.46 34.503 65.4066 35.0319 66.9727C38.5979 65.2218 41.0183 61.5762 42.0625 57.3249L43.6784 50.7459C43.8705 49.9638 43.1961 49.3281 42.5086 49.6433C40.4159 50.6021 38.7576 52.5049 37.9847 54.8337L35.9654 60.92L33.1151 62.9788Z" fill="#D1A6D8"/>
<path id="path30" d="M24.7248 52.1953C27.1447 49.5836 29.6829 46.7712 28.676 42.6854C25.12 38.7137 21.9873 39.4115 19.172 42.666C17.6296 44.4487 17.924 47.1678 19.8197 48.569L24.7248 52.1953Z" fill="#D5D6CB"/>
<path id="path32" d="M27.5083 108.91L30.5017 91.7373C31.0037 85.3845 30.6279 79.023 28.9849 72.6369L14.587 69.3223L23.2713 87.5803C24.58 90.3318 25.1753 93.3648 25.0042 96.407C24.7821 100.366 24.6421 105.464 24.57 108.612L27.5083 108.91Z" fill="#EE9E76"/>
<path id="path42" d="M21.8114 73.8187L18.0966 70.0529L16.6182 70.5147C13.4758 72.9109 13.0827 76.5614 13.6378 80.4738L15.5404 93.7923C13.3432 96.2101 11.7726 100.847 10.0414 105.621L12.968 107.379L20.5158 94.9675L20.4808 94.9586C20.616 94.6668 20.7174 94.3554 20.7755 94.028L23.4356 79.0407C23.7726 77.1396 23.1674 75.1929 21.8114 73.8187Z" fill="#EE9E76"/>
<path id="path44" d="M28.5536 64.5234C28.9986 63.5156 29.1563 62.4045 29.0089 61.313L28.4179 56.9354C28.2422 55.5803 27.4021 54.5164 26.5105 53.0813C25.6931 51.7658 24.3292 51.8247 23.1557 51.9115C11.6186 52.7681 20.1617 58.5216 14.587 69.3895C17.4708 73.4733 23.0794 74.8788 28.9849 72.7041C28.6265 70.7819 28.3424 69.215 28.1249 67.9114C27.9333 66.7641 28.0833 65.5875 28.5536 64.5234Z" fill="#FCD06A"/>
<path id="path46" d="M15.2702 65.5088L11.1721 62.5543L17.5607 53.6938L21.6588 56.6482L15.2702 65.5088Z" fill="#FCD06A"/>
<path id="path48" d="M28.2653 51.3962L25.1591 47.3386C24.3645 46.9534 23.4253 47.4285 23.2591 48.2954C22.8599 50.3756 21.6748 52.1264 19.9681 52.4834L19.9525 52.4868C20.6306 53.1086 20.977 54.124 21.2967 55.0621C21.6162 56.0004 21.8775 56.8311 22.257 57.0495C23.1762 57.5784 24.947 57.5164 26.2229 57.3219C26.9799 57.2063 27.1345 56.5356 26.9848 55.6537C26.8555 54.8921 26.9811 54.1084 27.3116 53.4101L28.2653 51.3962Z" fill="#F9AC89"/>
<path id="path50" d="M25.4654 40.7001C24.7651 40.7349 24.0679 40.6366 23.3929 40.4465C23.168 40.3833 22.9328 40.3505 22.6888 40.3491C21.4866 40.3434 20.5301 41.1035 20.1287 42.0381C20.0484 42.2255 19.9433 42.3957 19.8181 42.5472C19.2481 43.2352 18.863 44.0563 18.8761 44.9496C18.8923 46.0912 19.3409 47.1841 20.1309 48.008L20.948 48.8575C21.6221 49.5584 22.7039 49.6691 23.5059 49.1191L28.4085 45.7576C28.5502 45.6602 28.7094 45.5947 28.8671 45.5255C29.2679 43.1501 29.1586 40.5171 26.7527 40.6364L25.4654 40.7001Z" fill="#D5D6CB"/>
<path id="path52" d="M26.9972 42.9425C27.6349 43.0277 28.227 43.3741 28.5516 43.9295C28.7398 44.251 28.8892 44.6028 28.9923 44.9809L29.9756 48.5844C30.207 49.4331 30.0832 50.2974 29.692 51.0165C29.3009 51.7353 28.6421 52.3087 27.8037 52.5754C26.251 53.0691 24.5563 52.8015 23.2308 51.8535C22.6982 51.4726 22.3301 50.9035 22.2008 50.2615L21.9608 49.0715L21.5791 47.6438C21.3695 46.8607 21.687 46.0308 22.3637 45.5847C23.2043 45.031 23.877 44.4573 24.2645 43.8501C24.7342 43.1133 25.6253 42.7592 26.4913 42.8748L26.9972 42.9425Z" fill="#F9AC89"/>
<path id="path54" d="M22.76 51.2281C22.0657 51.5698 21.0846 51.0178 20.5335 49.9755V49.9752C20.1435 49.2385 20.2841 48.4339 20.8247 48.3073C21.2489 48.2079 21.7764 48.5771 22.0557 49.169L22.8198 50.788C22.9072 50.9736 22.8807 51.1686 22.76 51.2281Z" fill="#F9AC89"/>
<path id="path56" d="M21.7633 49.5257C21.5823 49.5815 21.3904 49.4799 21.3346 49.2991L21.0496 48.373C20.9941 48.192 21.0955 48.0001 21.2765 47.9446C21.4573 47.8888 21.6492 47.9904 21.705 48.1712L21.9899 49.0973C22.0457 49.2783 21.9441 49.4702 21.7633 49.5257Z" fill="#D5D6CB"/>
<path id="path58" d="M28.3418 49.3245C28.401 49.316 28.454 49.3294 28.5049 49.3456C28.2 49.8953 27.6671 50.3101 26.9964 50.4078C26.3319 50.5043 25.7073 50.2754 25.2473 49.8566C25.3048 49.8002 25.3751 49.7567 25.465 49.7436L28.3418 49.3245Z" fill="white"/>
<path id="path60" d="M14.7808 65.4287L10.4291 56.9257C10.0715 56.2271 10.2466 55.3656 10.8393 54.9065L14.2627 52.4135L19.5977 63.8157L14.7808 65.4287Z" fill="#381F50"/>
<path id="path62" d="M12.501 68.3145L19.6335 63.813L17.8261 59.9171L11.9547 63.1941L12.501 68.3145Z" fill="#F9AC89"/>
<path id="path68" d="M12.7325 96.7434C12.6346 95.0592 12.2682 93.4014 11.6476 91.8325L9.88169 87.3704C8.86679 84.7797 6.73649 82.7858 4.08407 81.9445L1.02484 80.9743L4.31239 73.1509L15.1583 72.2894L18.3357 86.768C19.075 90.1367 19.401 93.5828 19.3065 97.0303L18.9131 112.363L13.6825 113.089L12.7325 96.7434Z" fill="#1F272D"/>
<path id="path70" d="M2.22795 99.9732L-7.64119 110.57L-10.4458 107.919C-7.65221 102.961 -5.02413 95.8034 -1.85985 92.8811L-0.654495 74.2388L9.4991 75.9825L6.15604 92.5851C5.58838 95.4046 4.2253 97.9677 2.22795 99.9732Z" fill="#1F272D"/>
<path id="path72" d="M-0.720625 64.0796C-0.279078 67.9573 -1.6282 71.4504 -0.86866 75.1485L2.63155 76.4324C5.39727 77.4473 8.49095 76.9616 10.8128 75.1485L12.8145 75.4135C13.7892 76.3279 15.3803 75.9564 15.8495 74.7055L14.8224 54.5939C14.8668 52.8473 13.8322 51.2534 12.2192 50.5826L7.43761 48.595L3.32988 50.3464C1.22748 51.2428 -0.598493 52.6828 -1.96014 54.5181L-0.720625 64.0796Z" fill="#381F50"/>
<path id="path74" d="M11.0238 66.7783L11.3694 52.1702C11.397 51.0116 10.7097 49.9551 9.63962 49.5101L7.43757 48.5946L4.85092 49.6975C4.48965 50.5854 4.46431 51.6077 4.87312 52.5529L11.0238 66.7783Z" fill="#EDECE2"/>
<path id="path76" d="M8.06166 54.434L8.66377 53.7707C8.86135 53.5532 9.19756 53.537 9.41506 53.7343L10.0784 54.3364C10.3554 54.588 10.3144 55.0506 9.98244 55.2235C9.4441 55.5036 8.80555 55.5343 8.24273 55.3074C7.89541 55.1677 7.81 54.711 8.06166 54.434Z" fill="#D5D6CB"/>
<path id="path78" d="M16.1929 62.3783L16.5191 61.5311C17.0535 60.1435 18.4718 59.3051 19.9453 59.5061C20.8648 59.6314 21.4729 60.5259 21.2517 61.4272L21.0516 62.2428C20.8617 63.0163 20.3316 63.6716 19.6037 63.9953C18.9657 64.2786 18.3596 64.4608 17.7939 64.5143C16.637 64.6236 15.7752 63.4627 16.1929 62.3783Z" fill="#F9AC89"/>
<path id="path80" d="M9.56853 53.2935C8.84885 53.659 7.95693 53.4563 7.49545 52.7939C7.24635 52.436 6.987 52.0961 6.71769 51.7733C5.99772 50.9095 6.32112 49.4722 7.45332 48.6224C7.93785 48.2585 8.39648 47.8628 8.81497 47.4708C9.35132 46.9675 9.32199 46.6173 9.99357 46.5057C10.8565 46.3625 12.1179 47.6391 12.5446 48.1615C13.8821 49.7973 12.248 51.8911 10.0713 53.0384L9.56853 53.2935Z" fill="#F9AC89"/>
<path id="path82" d="M16.4599 42.2879C16.3691 40.9744 15.4914 39.8442 14.243 39.4265C11.1514 38.3923 11.3057 38.4361 11.3057 38.4361C10.1216 38.072 8.9513 38.5369 8.27717 39.3391C8.14223 39.4997 7.98793 39.6363 7.81911 39.7485C7.05188 40.2572 6.42757 40.9522 6.17391 41.8372L6.17192 41.8441C5.84852 42.9726 5.9658 44.1822 6.50016 45.2276L7.05273 46.3091C7.5088 47.201 8.54278 47.6326 9.49761 47.3294L15.3348 45.475C15.5036 45.4214 15.6801 45.4041 15.8564 45.383L16.3728 43.2928C16.4539 42.9646 16.4832 42.6252 16.4599 42.2879Z" fill="#D5D6CB"/>
<path id="path84" d="M7.69991 47.0266L7.79755 43.9821C7.94161 42.8519 8.88989 41.997 10.0284 41.9697L13.575 41.8857C14.507 41.8632 15.3941 42.3939 15.7326 43.2624C15.9467 43.8116 16.0571 44.4129 16.0401 45.0434L15.9333 48.9781C15.8829 50.8314 14.3801 52.3154 12.5262 52.3422C10.809 52.367 9.18084 51.5804 8.1332 50.2199C7.71215 49.6733 7.51401 48.9869 7.5792 48.3L7.69991 47.0266Z" fill="#F9AC89"/>
<path id="path86" d="M7.73426 45.4346C6.8506 45.4181 6.10387 46.4649 6.03953 47.8097L6.03982 47.81C5.99427 48.7614 6.52976 49.5249 7.15038 49.3934C7.63719 49.2906 8.00358 48.653 8.005 47.9051L8.00956 45.8605C8.01013 45.6262 7.88799 45.4371 7.73426 45.4346Z" fill="#F9AC89"/>
<path id="path88" d="M19.5952 63.8067C20.457 65.7007 20.0006 67.9742 18.3967 69.3C17.0741 70.3935 15.6504 71.0585 14.172 71.4895C12.1732 72.0722 10.3193 70.2036 10.8878 68.2008L11.5694 67.4954C12.7383 66.2857 14.2004 65.3995 15.814 64.9229L19.5952 63.8067Z" fill="#381F50"/>
<path id="path90" d="M11.2482 66.0016C10.0429 66.6257 9.60729 68.1422 10.1735 69.3754L10.362 69.786C10.9897 71.153 12.4752 71.9094 13.9499 71.6128C14.8706 71.4277 15.4277 70.486 15.147 69.5901L14.445 67.3491C14.035 66.0404 12.5544 65.3654 11.3211 65.9652C11.2966 65.9772 11.2724 65.9894 11.2482 66.0016Z" fill="#F9AC89"/>
<path id="path92" d="M6.44552 65.8096C5.80014 64.9966 5.38592 64.0232 5.24756 62.9949L4.21302 55.3064C4.03395 53.9738 3.19242 52.8542 1.96201 52.3113C1.50224 52.1086 1.01942 52.0004 0.537443 51.9842C-0.403443 52.7073 -1.24697 53.5568 -1.96039 54.5181L-0.720585 64.0796C-0.449849 66.4573 -0.851538 68.6901 -1.02833 70.9143C-0.309212 71.7795 0.527478 72.5521 1.46865 73.2012L6.78174 76.8643C8.22936 76.6559 9.62261 76.078 10.8129 75.1485L11.214 75.5951C12.0231 76.4959 13.424 76.3854 14.1078 75.4596L6.44552 65.8096Z" fill="#381F50"/>
<path id="path94" d="M12.7467 75.7024L10.5711 77.9961L2.1601 72.197C-0.445909 70.4001 -2.17224 67.5871 -2.59443 64.4499L-3.35084 58.8282C-3.62158 56.8166 -2.7419 54.823 -1.07335 53.6672C0.531988 52.5549 2.7457 53.5316 3.0059 55.4672L4.04045 63.156C4.20813 64.4024 4.70975 65.5804 5.49149 66.5654L12.7467 75.7024Z" fill="#381F50"/>
<path id="path96" d="M12.4544 82.0144L13.5752 81.8638L14.3302 80.2121C14.8016 79.1798 14.6388 77.9687 13.9111 77.0979L12.7468 75.7044L10.5712 77.9981L10.379 80.0179C10.2669 81.1965 11.2815 82.1724 12.4544 82.0144Z" fill="#F9AC89"/>
<path id="path98" d="M12.5127 49.96C12.0555 49.96 11.6225 49.7835 11.3327 49.4786L10.9706 49.0979C10.75 48.8656 10.9416 48.5166 11.2897 48.5166H13.6538C13.9182 48.5166 14.1007 48.7449 14.0068 48.9579L13.9393 49.1119C13.7141 49.6223 13.1465 49.96 12.5127 49.96Z" fill="white"/>
<path id="path100" d="M83.117 55.5415C83.9529 56.8969 83.9685 59.7503 81.8126 60.708L69.749 66.0684L67.3696 62.9075L78.1544 57.8609L83.117 55.5415Z" fill="#B25D36"/>
<path id="path102" d="M64.3554 65.5527C64.3318 65.5171 64.3087 65.4815 64.2862 65.4457C63.3411 63.9431 64.4582 61.9924 66.2329 62.0354L66.6659 62.046C68.14 62.0818 69.9016 63.1819 70.5809 64.4903V64.4906C70.9664 66.3188 69.0541 66.388 66.5182 66.5799C65.6661 66.6442 64.826 66.2656 64.3554 65.5527Z" fill="#B25D36"/>
<path id="path104" d="M89.3799 44.2948C92.8243 48.1782 75.902 45.3282 73.526 41.9089L89.3799 44.2948Z" fill="#F7902D"/>
<path id="path108" d="M77.7479 70.6449C77.6821 73.3064 77.9144 75.9671 78.44 78.5771L81.243 92.4968C81.8104 95.3154 83.1729 97.8773 85.1696 99.8823L95.0351 109.812L97.839 107.161C95.3665 102.774 93.0235 97.1821 90.3236 93.9301C89.6284 93.0929 89.2088 92.0632 89.1384 90.9771L87.8201 70.5871L77.782 69.2627L77.7479 70.6449Z" fill="#381F50"/>
<path id="path112" d="M77.7151 70.5724L77.782 69.2617L94.3191 70.1302C94.7308 74.4099 93.6991 78.7226 92.1774 82.6077L90.3463 87.2834L88.581 91.7441C87.9604 93.3125 87.594 94.9696 87.4963 96.6533L86.6944 110.445C86.6147 111.818 85.3805 112.831 84.0178 112.642L81.3178 112.268L80.9244 96.9399C80.8301 93.4938 81.1561 90.0488 81.8949 86.6813L83.4137 79.7614L80.5671 77.2841C78.6361 75.6036 77.5844 73.1288 77.7151 70.5724Z" fill="#381F50"/>
<path id="path114" d="M77.782 69.2621L78.535 54.5183C78.4906 52.7723 79.5249 51.1786 81.1376 50.5082L85.9172 48.5214L90.0238 50.2722C92.1254 51.1681 93.9505 52.6074 95.3118 54.4422L94.0726 64.0006C93.8306 66.1272 94.1273 68.1379 94.3191 70.1307L86.3144 70.8393C83.3798 71.0989 80.4299 70.5537 77.782 69.2621Z" fill="#D5D6CB"/>
<path id="path116" d="M82.3205 55.33C81.6398 53.8161 81.2145 52.0726 81.5678 50.596C81.5925 50.4918 81.6304 50.389 81.6683 50.2865L85.9175 48.5203C86.3932 48.723 86.7773 49.1136 86.9276 49.6087C87.5473 51.6525 86.5011 54.0489 84.9436 55.7454C84.1701 56.588 82.7894 56.3737 82.3205 55.33Z" fill="#6BC6BC"/>
<path id="path118" d="M83.7872 52.8756C84.5066 53.2409 85.3982 53.0385 85.8594 52.376C86.1085 52.0185 86.3678 51.6785 86.6371 51.3557C87.3568 50.4923 87.0334 49.0554 85.9015 48.2059C85.4173 47.8424 84.9589 47.447 84.5407 47.055C84.0041 46.5519 84.0334 46.2018 83.3621 46.0905C82.4998 45.9473 81.2386 47.2232 80.8119 47.7453C79.475 49.3808 81.1085 51.4736 83.2844 52.6206L83.7872 52.8756Z" fill="#F9AC89"/>
<path id="path120" d="M85.6553 46.6093L85.5577 43.566C85.4136 42.4364 84.4656 41.5815 83.3274 41.5544L79.7822 41.4702C78.8505 41.448 77.9637 41.9783 77.6255 42.8466C77.4114 43.3955 77.3006 43.9968 77.318 44.6268L77.4248 48.5603C77.4749 50.413 78.9774 51.8965 80.8307 51.9233C82.5471 51.948 84.1747 51.1617 85.222 49.8018C85.6431 49.2552 85.8409 48.5691 85.776 47.8824L85.6553 46.6093Z" fill="#F9AC89"/>
<path id="path122" d="M80.8441 49.542C81.301 49.542 81.7338 49.3655 82.0236 49.0606L82.3854 48.6803C82.6063 48.448 82.4147 48.0989 82.0666 48.0989H79.7034C79.4389 48.0989 79.2564 48.3272 79.3504 48.5402L79.4181 48.6939C79.643 49.2044 80.2107 49.542 80.8441 49.542Z" fill="white"/>
<path id="path124" d="M94.2144 69.1615L86.2284 69.8684C83.4695 70.1118 80.6972 69.6002 78.2091 68.3863L77.8464 68.2092L77.7245 70.3122C79.975 71.3442 82.4185 71.8757 84.8855 71.876C85.3897 71.876 85.8953 71.8535 86.4001 71.8088L94.3861 71.1019C94.3576 70.4315 94.3027 69.7827 94.2144 69.1615Z" fill="#381F50"/>
<path id="path126" d="M82.5807 71.7166C82.0791 71.6494 81.5806 71.5606 81.0867 71.4496C80.6394 71.3488 80.332 70.9366 80.3664 70.4794L80.3912 70.1486C80.4253 69.6965 80.8555 69.3842 81.2959 69.4912C81.7332 69.5974 82.1747 69.684 82.6194 69.7511C83.0757 69.8198 83.4 70.2297 83.3656 70.6898L83.3337 71.1119C83.3049 71.4931 82.9596 71.7673 82.5807 71.7166Z" fill="#CBD3ED"/>
<path id="path128" d="M85.6348 48.9783C86.5182 48.9946 87.2646 47.948 87.3287 46.6035C87.3742 45.6526 86.8387 44.8891 86.2184 45.0203C85.7319 45.1234 85.3655 45.7608 85.364 46.5081L85.3595 48.5522C85.3589 48.7865 85.4811 48.9752 85.6348 48.9783Z" fill="#F9AC89"/>
<path id="path130" d="M87.3552 44.5801C87.1183 45.4825 86.2646 46.5194 85.3507 46.699C84.8508 46.7972 84.6635 46.5589 84.6353 46.0468C84.6188 45.7501 84.6584 45.5201 84.5098 45.2539C84.2871 44.8562 83.8311 44.6564 83.6025 44.2667C83.3724 43.8746 83.5498 43.5222 83.8684 43.2267C84.4961 42.6434 85.4213 42.5978 86.1871 42.9175C86.775 43.1629 87.4728 43.8166 87.3552 44.5801Z" fill="#D5D6CB"/>
<path id="path132" d="M77.2892 42.7898L78.5074 39.0368C78.8784 37.8944 80.0404 37.2003 81.2205 37.4235C82.8805 37.7372 84.5083 38.4005 85.8395 39.1615C87.4206 40.0654 88.142 41.9625 87.6048 43.7025L87.4007 44.3633L77.2892 42.7898Z" fill="#FCD06A"/>
<path id="path134" d="M87.4007 44.3633L77.2892 42.7895L77.8475 41.0706L86.1396 42.3187C87.0935 42.4621 87.6925 43.421 87.4073 44.3425L87.4007 44.3633Z" fill="#381F50"/>
<path id="path136" d="M84.4417 44.4673L89.3799 44.2939L73.526 41.908L73.9795 42.14C77.2118 43.7937 80.8128 44.5948 84.4417 44.4673Z" fill="#FCD06A"/>
<path id="path182" d="M91.5435 40.8192C85.5668 43.1325 104.061 49.3113 110.448 47.9921C110.838 47.9115 110.867 47.3646 110.49 47.2368L91.5435 40.8192Z" fill="#D5D6CB"/>
<path id="path206" d="M57.679 55.9526L60.5455 60.5437L66.1162 53.8416L66.9267 57.0629C65.9477 61.4869 63.808 64.8305 60.5301 67.1143C58.654 66.5785 57.0436 65.7543 55.7332 64.6045L57.679 55.9526Z" fill="#CBD3ED"/>
<path id="path208" d="M55.4852 67.3899C56.4813 66.3636 57.0871 65.0369 57.2015 63.6297L57.4142 61.0197C57.5685 59.9314 57.8751 59.0133 58.3875 58.1911L59.5428 58.5749C60.71 58.9626 61.4174 60.115 61.2147 61.2987L60.3123 66.5671C59.5157 68.3381 58.1268 69.7334 56.0591 71.2955C54.6846 72.334 53.106 73.1718 51.3606 73.7244L51.2735 73.7497C50.7409 73.9032 50.2461 74.199 49.8538 74.5995C49.2021 75.264 48.4437 75.8951 47.5837 75.8393C46.9944 75.7693 46.644 75.3639 46.6269 74.6929C46.6021 73.7048 47.4305 72.757 48.4725 72.4271C48.8787 72.2984 49.2662 72.1472 49.6343 71.9576L55.4852 67.3899Z" fill="#DB3C3E"/>
<path id="path210" d="M49.7359 48.9345C51.7535 49.1932 54.3304 50.2349 54.3236 51.1208C54.3213 51.4067 54.0691 51.639 53.8687 51.8066C52.6115 52.8608 43.9884 54.5749 42.1587 52.0805C41.5062 51.1914 41.8344 50.3263 42.6267 49.8104C42.8958 49.6354 43.306 49.3894 43.8309 49.2633C45.4855 48.8653 48.1021 48.7249 49.7359 48.9345Z" fill="#E55756"/>
<path id="path212" d="M64.5006 53.5486C65.1417 53.7547 65.8417 53.6611 66.4063 53.2944L66.4148 53.2887L68.031 52.2416C68.8699 51.6981 70.0147 51.8624 70.7893 52.6376C71.3282 53.1771 71.7031 53.8643 71.8591 54.6017C72.01 55.3137 71.3208 55.924 70.6162 55.7427L69.0735 55.3455L66.9819 56.3471C66.8373 56.416 66.6921 56.4521 66.5489 56.4675L66.5495 56.4749C65.6618 56.4968 64.6788 56.418 63.6531 56.2802L64.5006 53.5486Z" fill="#B25D36"/>
<path id="path222" d="M45.5342 110.876L40.5898 110.866L38.6548 94.7348C38.5506 93.8651 38.5327 92.9869 38.6021 92.1135L40.1161 73.0099L43.6539 71.1355C46.6602 69.5427 50.2879 71.7257 50.2555 75.1081L50.1974 81.1596L46.8 82.5366C46.4999 84.1995 45.8525 86.6817 45.3481 89.2282C44.925 91.363 44.8402 93.5523 45.126 95.7096C45.5058 98.577 45.9647 103.863 45.5342 110.876Z" fill="#381F50"/>
<path id="path224" d="M54.0338 110.893L49.3291 110.883C48.717 105.95 48.7537 101.048 48.4597 95.9381C48.3612 94.2274 48.1767 92.5219 47.9344 90.8254L45.6581 74.8987L54.1246 71.639L53.8653 88.0506C53.8157 90.617 54.3299 93.2455 54.698 95.7864C55.2921 99.8853 54.6211 105.221 54.0338 110.893Z" fill="#381F50"/>
<path id="path226" d="M39.3187 54.6001C40.002 62.772 39.8881 61.0231 39.8215 75.2304C39.8158 76.4539 40.7564 77.4797 41.9768 77.5716C47.0738 77.9548 51.8956 78.178 54.0948 76.8818C54.5517 66.8421 54.4199 65.132 55.1413 60.021L56.2655 55.3895C56.5957 54.0296 55.9404 52.6224 54.6869 52L48.1952 48.7774L41.301 51.4332C40.0102 51.9306 39.2034 53.2216 39.3187 54.6001Z" fill="#CBD3ED"/>
<path id="path228" d="M46.5213 55.0899L46.9788 54.5969C47.249 54.3059 47.2413 53.8535 46.9614 53.5717L46.1045 52.7094L45.0213 53.5005C44.7548 53.6953 44.7061 54.0733 44.9145 54.329L45.509 55.0578C45.7666 55.3735 46.244 55.3889 46.5213 55.0899Z" fill="#D1A6D8"/>
<path id="path230" d="M45.0164 57.5469C43.9674 56.83 42.7629 56.29 41.7571 55.5285C40.9947 54.9508 40.0561 54.4281 39.7586 53.4571C39.0742 51.2251 41.7337 49.8914 43.8384 49.2625L43.7154 49.722C43.1896 51.6898 43.4959 53.785 44.5592 55.5176C44.6059 55.5939 44.6401 55.6773 44.6577 55.765L45.0164 57.5469Z" fill="#F7902D"/>
<path id="path232" d="M68.6006 47.823C67.8858 50.8145 65.206 52.9528 62.1308 52.9095C62.1135 52.9095 62.0958 52.9089 62.0782 52.9087C59.9191 52.8714 58.8285 51.2754 58.3183 49.3333L57.7014 45.9327C57.4922 44.7792 58.1205 43.637 59.2071 43.1966C61.6008 41.273 65.0802 41.7006 69.4828 44.129L68.6006 47.823Z" fill="#D5D6CB"/>
<path id="path234" d="M55.7331 64.6055C54.9249 63.896 54.2308 63.0628 53.6586 62.0968C52.8407 59.2443 52.3394 55.7031 53.1399 53.597C53.6082 52.3646 55.2096 51.9984 55.8148 52.9678L57.679 55.9536C57.3857 59.3388 56.6569 62.1153 55.7331 64.6055Z" fill="#CBD3ED"/>
<path id="path236" d="M60.2417 96.649C60.1825 98.7696 59.8156 100.004 59.3384 102.483C58.0514 102.537 56.286 102.587 54.7832 102.579L54.3977 95.1405C54.1643 89.5082 56.6797 79.0586 58.5661 73.9974L66.207 71.8384C68.033 71.3225 69.7835 72.7229 69.8413 74.7456L69.9373 78.0978L69.3457 78.7978C66.7326 79.4662 64.59 81.3076 63.6184 83.7194L61.5516 88.8127C60.552 91.2761 60.3152 94.0088 60.2417 96.649Z" fill="#1F272D"/>
<path id="path246" d="M70.1843 95.6994C70.5097 98.3168 70.2094 100.821 69.6506 103.371C69.3474 103.325 69.047 103.286 68.7555 103.279C67.6617 103.254 66.5666 103.218 65.47 103.163C65.249 103.152 65.0019 103.124 64.7454 103.101L64.97 96.7374C64.9974 95.5605 64.6179 93.6821 64.4904 92.5286C64.2097 89.9971 64.4787 79.123 64.6634 76.9947L69.7895 68.9518L71.1221 72.1849C74.0808 79.3638 71.2274 84.5764 70.2162 90.3222C69.9714 92.1269 69.9649 93.9329 70.1843 95.6994Z" fill="#1F272D"/>
<path id="path248" d="M50.1414 44.1157C50.5508 43.0843 50.4756 41.8906 49.8305 40.9876C49.8262 40.9816 49.8222 40.9759 49.818 40.9702L48.7271 39.7273C48.0077 38.9074 46.8575 38.6165 45.8349 38.9951C45.2681 39.2052 44.6464 39.2134 44.0742 39.0193C43.1131 38.6927 42.0526 39.05 41.4849 39.8916C40.6605 41.1134 40.5643 42.6866 41.2341 43.9996L43.5771 48.5944C44.0565 48.9175 45.0142 49.6497 45.7538 49.8137C46.574 49.9959 46.8926 49.6899 47.5923 49.2398L50.1414 44.1157Z" fill="#D5D6CB"/>
<path id="path250" d="M46.8247 44.4234C46.2001 43.8611 45.3116 43.5725 44.4653 43.7444L44.2102 43.7962C42.614 44.1208 41.7519 45.6014 42.2746 47.1208L44.488 51.3259L46.0547 52.6787L48.7003 49.8008C48.8688 49.5372 48.8662 49.2024 48.6977 48.9388C48.5431 48.6977 48.4053 48.4343 48.2872 48.1437C48.0418 47.5373 48.0327 46.8592 48.2129 46.23L46.8247 44.4234Z" fill="#B25D36"/>
<path id="path252" d="M47.3389 43.3457C47.4505 42.7023 47.1037 42.0513 46.4911 41.8255C44.2199 40.9891 40.8808 41.4107 40.7945 42.3166C40.6781 43.5348 40.6146 44.9869 40.6633 46.0494L40.7524 48.0055C40.8051 49.1584 41.6645 50.2539 42.8078 50.5591C44.9564 51.1325 46.9879 50.1412 47.67 48.2028L47.7525 47.9679L48.0039 45.527L47.7873 45.3633C47.7841 45.3607 47.7807 45.3582 47.7776 45.3559C47.3338 45.016 47.1507 44.4321 47.2461 43.8815L47.3389 43.3457Z" fill="#B25D36"/>
<path id="path254" d="M43.2325 50.9834C44.4561 51.0785 45.5251 50.1636 45.6202 48.94L45.6765 48.2172C45.7423 47.3705 45.1092 46.6309 44.2625 46.5648L43.0888 46.4737C42.2865 46.4114 41.5856 47.0112 41.5236 47.8138L41.4399 48.889C41.3564 49.9626 42.159 50.9003 43.2325 50.9834Z" fill="#D5D6CB"/>
<path id="path256" d="M58.0328 73.1814L59.0429 67.4017C59.212 66.2228 59.1454 66.1107 58.496 65.1308C57.384 63.4526 57.0845 61.3672 57.6698 59.3781L58.2395 57.4428C58.3892 56.9338 58.4502 56.4126 58.5125 55.8916C58.6284 54.922 59.2766 54.356 60.0806 53.9375L60.7126 53.5529C62.6279 52.3874 64.9504 52.0987 67.0095 52.77L68.9363 53.398C70.1974 53.8091 71.0626 55.119 71.0478 56.5956L70.9681 64.6243C70.922 69.2678 70.703 69.058 71.69 71.7617C72.1902 73.7758 69.6557 75.8913 67.4488 75.7208L59.7236 75.1238C58.7459 75.0484 57.9001 74.1081 58.0328 73.1814Z" fill="#EE9E76"/>
<path id="path258" d="M60.4771 54.4815C60.1796 55.1599 60.6721 55.9211 61.4128 55.9279L64.1248 55.9521C65.6689 55.8297 67.1273 54.7101 67.2833 52.8781C67.1672 52.8494 67.0627 52.7987 66.954 52.7548C64.9874 52.1317 62.7921 52.385 60.938 53.4313L60.4771 54.4815Z" fill="#B25D36"/>
<path id="path260" d="M67.2623 52.8647C66.0552 52.4875 65.2148 51.3468 65.2965 50.0848C65.2974 50.0722 65.2982 50.06 65.2991 50.0478L65.3495 49.3508L60.8156 50.0554C60.6135 50.1084 60.5064 50.3293 60.5898 50.5206L61.7363 53.1545C61.9264 53.5918 61.8393 54.0929 61.5464 54.4493C61.4055 54.6209 61.461 54.8774 61.6622 54.9717L67.2623 52.8647Z" fill="#B25D36"/>
<path id="path262" d="M58.2993 47.8655C57.9138 48.8095 57.8876 49.8819 58.3144 50.8083C58.9125 52.1076 60.0883 52.6912 61.3415 52.6471C63.357 52.5759 65.0589 51.1274 65.4509 49.1489L66.1982 45.3802C66.658 43.0597 64.3662 41.1509 62.1673 42.0232L60.9287 42.5143C59.8272 42.9513 59.0395 43.9431 58.8715 45.1163C58.783 45.7341 58.7124 46.357 58.6589 46.9847L58.2993 47.8655Z" fill="#B25D36"/>
<path id="path264" d="M65.3163 46.9283L65.058 48.83C64.9997 49.2602 65.3775 49.6288 65.8048 49.5537C66.5296 49.4264 66.9592 48.9334 67.0884 48.3102L67.1869 47.8356C67.2715 47.4271 67.0696 47.0132 66.6961 46.8281L66.0801 46.5229C65.7538 46.3615 65.3652 46.5676 65.3163 46.9283Z" fill="#B25D36"/>
<path id="path266" d="M67.5023 48.1211C65.7421 47.7641 64.2683 46.567 63.558 44.9172L62.8187 43.1995C61.7224 42.613 60.3157 42.679 59.2126 43.1787C59.813 42.2142 60.5774 41.4589 61.6879 41.0746C63.6201 40.4064 65.4959 41.6602 67.3187 42.9845C68.0595 43.5229 68.1187 44.6055 67.4394 45.2202C67.0147 45.6045 66.8578 46.2043 67.0406 46.7478L67.5023 48.1211Z" fill="#D5D6CB"/>
<path id="path268" d="M60.006 49.4467C59.7751 49.4123 59.6222 49.6855 59.7757 49.8615C60.076 50.2057 60.4965 50.4465 60.9856 50.512C61.461 50.576 61.9182 50.4687 62.2977 50.2381C62.4978 50.1166 62.4309 49.8085 62.1995 49.7738L60.006 49.4467Z" fill="white"/>
<path id="path270" d="M42.3708 47.4841C42.1385 47.4608 41.999 47.7412 42.161 47.9094C42.4773 48.2388 42.9089 48.4592 43.4005 48.5013C43.8788 48.5423 44.33 48.4128 44.6981 48.1642C44.892 48.0333 44.8106 47.7287 44.5777 47.7056L42.3708 47.4841Z" fill="white"/>
<path id="path272" d="M44.6577 55.765L45.0162 57.5469C44.4653 57.1702 43.8717 56.8423 43.2861 56.5055L43.2904 55.6927C43.2947 55.1011 43.5145 54.542 43.8868 54.1039C44.0596 54.5938 44.2834 55.0681 44.5592 55.5176C44.6059 55.5939 44.6401 55.6773 44.6577 55.765Z" fill="#F06824"/>
<path id="path274" d="M45.4042 61.008L46.2007 60.6666C46.9882 60.3299 47.4986 59.5558 47.4986 58.6995V55.1614C47.4986 54.0634 46.3175 53.3707 45.3592 53.9065L44.9063 54.1599C44.3491 54.4713 44.0021 55.0581 43.9978 55.6966L43.9754 60.06C43.9717 60.7985 44.7255 61.2984 45.4042 61.008Z" fill="#F7902D"/>
<path id="path276" d="M46.2682 56.4333C45.8284 56.0274 45.6092 55.4301 45.6829 54.8351C45.7353 54.4149 45.9331 54.03 46.2346 53.7356C46.9144 53.8208 47.4986 54.3901 47.4986 55.1622V56.9238C47.0468 56.9153 46.6064 56.7453 46.2682 56.4333Z" fill="#F06824"/>
<path id="path278" d="M46.7641 54.2002L50.5356 50.8509C51.5707 49.9316 53.0875 49.8046 54.261 50.5386L55.3815 51.2392C56.413 51.8846 56.9169 53.1164 56.6327 54.2996C54.0805 53.4979 51.0751 54.8439 47.7651 56.1953C46.9904 56.3553 46.2875 55.707 46.3849 54.9219C46.4196 54.6432 46.5543 54.3867 46.7641 54.2002Z" fill="#F7902D"/>
<path id="path280" d="M76.0537 73.1482C76.0429 73.8195 76.2715 74.4133 76.5712 74.9676C76.7412 75.2816 76.7893 75.6716 76.6749 76.0961C76.4392 76.971 75.4667 77.6402 74.5357 77.6545L72.9076 77.6795C72.2232 77.6898 71.778 77.1768 71.9135 76.5328L71.9767 76.2322C72.0843 75.7215 72.3878 75.2549 72.7992 74.8993C73.2552 74.5044 73.3409 74.0225 73.4064 73.4651L73.5268 71.3777L76.3202 71.8722L76.0537 73.1482Z" fill="#B25D36"/>
<path id="path282" d="M70.4323 54.5681L76.4261 62.1653C77.1845 63.8853 77.2887 65.7879 77.0737 68.2866C76.9707 69.4834 76.7241 70.689 76.3202 71.873L73.5268 71.3785L73.8924 66.1677C73.799 64.7864 72.6694 64.1208 71.7202 63.1386L66.8393 58.0883L70.4323 54.5681Z" fill="#EE9E76"/>
<path id="path284" d="M47.6076 48.1318C48.8599 47.9616 50.1163 45.9164 49.1352 44.9513C48.6228 44.4474 48.2929 44.9704 47.6637 45.2315L47.506 45.5836L47.6076 48.1318Z" fill="#B25D36"/>
</g>
</g>
</g>
</g>
</g>
</svg>
