<svg width="12" height="20" viewBox="0 0 12 20" fill="none" xmlns="http://www.w3.org/2000/svg">
<path d="M6.5 3V3.5H7H9C9.66304 3.5 10.2989 3.76339 10.7678 4.23223C11.2366 4.70107 11.5 5.33696 11.5 6C11.5 6.13261 11.4473 6.25979 11.3536 6.35355C11.2598 6.44732 11.1326 6.5 11 6.5C10.8674 6.5 10.7402 6.44732 10.6464 6.35355C10.5527 6.25979 10.5 6.13261 10.5 6C10.5 5.60218 10.342 5.22064 10.0607 4.93934C9.77936 4.65804 9.39783 4.5 9 4.5H4C3.33696 4.5 2.70107 4.76339 2.23223 5.23223C1.76339 5.70107 1.5 6.33696 1.5 7C1.5 7.66304 1.76339 8.29893 2.23223 8.76777C2.70107 9.23661 3.33696 9.5 4 9.5H8C8.92826 9.5 9.81849 9.86875 10.4749 10.5251C11.1313 11.1815 11.5 12.0717 11.5 13C11.5 13.9283 11.1313 14.8185 10.4749 15.4749C9.81849 16.1313 8.92826 16.5 8 16.5H7H6.5V17V19C6.5 19.1326 6.44732 19.2598 6.35355 19.3536C6.25979 19.4473 6.13261 19.5 6 19.5C5.86739 19.5 5.74021 19.4473 5.64645 19.3536C5.55268 19.2598 5.5 19.1326 5.5 19V17V16.5H5H3C2.33696 16.5 1.70107 16.2366 1.23223 15.7678C0.763392 15.2989 0.5 14.663 0.5 14C0.5 13.8674 0.552678 13.7402 0.646447 13.6464C0.740215 13.5527 0.867392 13.5 1 13.5C1.13261 13.5 1.25978 13.5527 1.35355 13.6464C1.44732 13.7402 1.5 13.8674 1.5 14C1.5 14.3978 1.65804 14.7794 1.93934 15.0607C2.22065 15.342 2.60218 15.5 3 15.5H8C8.66304 15.5 9.29893 15.2366 9.76777 14.7678C10.2366 14.2989 10.5 13.663 10.5 13C10.5 12.337 10.2366 11.7011 9.76777 11.2322C9.29893 10.7634 8.66304 10.5 8 10.5H4C3.07174 10.5 2.1815 10.1313 1.52513 9.47487C0.868749 8.8185 0.5 7.92826 0.5 7C0.5 6.07174 0.868749 5.1815 1.52513 4.52513C2.1815 3.86875 3.07174 3.5 4 3.5H5H5.5V3V1C5.5 0.867392 5.55268 0.740215 5.64645 0.646446C5.74021 0.552678 5.86739 0.5 6 0.5C6.13261 0.5 6.25979 0.552678 6.35355 0.646446C6.44732 0.740215 6.5 0.867392 6.5 1V3Z" stroke="#3662D4"/>
</svg>
