<svg width="210" height="140" viewBox="0 0 210 140" fill="none" xmlns="http://www.w3.org/2000/svg">
<g id="empty">
<g id="Background_Complete">
<g id="Group">
<path id="Vector" d="M186.745 42.0764L184.066 55.0528L182.342 53.3714L179.407 55.4635L177.165 52.68L172.135 56.3368L167.838 49.149L163.044 51.9568L161.143 49.3352L155.056 52.7652L153.224 48.8443L157.491 28.1772L180.368 32.9006L186.745 42.0764Z" fill="#EBEBEB"/>
<path id="Vector_2" d="M180.368 32.9009L186.746 42.0756L178.812 40.4376L180.368 32.9009Z" fill="#DBDBDB"/>
<path id="Vector_3" d="M183.496 57.6464L179.566 76.685L148.753 70.3248L152.654 51.438L154.486 55.3586L160.573 51.9286L162.474 54.5505L167.269 51.7426L171.564 58.9302L176.595 55.2734L178.837 58.0569L181.772 55.965L183.496 57.6464Z" fill="#EBEBEB"/>
</g>
<g id="Group_2">
<path id="Vector_4" d="M139.393 55.4156L107.991 57.3588L105.497 17.0483L128.812 15.6055L137.374 22.7861L139.393 55.4156Z" fill="#EBEBEB"/>
<path id="Vector_5" d="M128.812 15.6055L137.374 22.7861L129.288 23.2864L128.812 15.6055Z" fill="#DBDBDB"/>
<g id="Group_3">
<path id="Vector_6" d="M120.108 42.7272L119.986 41.818C119.669 39.9333 120.185 37.8258 121.823 35.6205C123.299 33.6706 124.101 32.2515 124.012 30.6715C123.912 28.8803 122.721 27.7491 120.507 27.8379C119.242 27.9087 117.861 28.4088 117.02 29.1253L116.053 26.9598C117.165 26.052 119.136 25.3781 120.997 25.2736C125.036 25.0474 127.001 27.4389 127.151 30.1076C127.285 32.496 126.046 34.2913 124.473 36.3877C123.03 38.3004 122.555 39.8773 122.76 41.6623L122.847 42.5735L120.108 42.7272ZM119.61 47.6871C119.538 46.3876 120.364 45.4252 121.593 45.3564C122.822 45.2875 123.717 46.1535 123.789 47.453C123.858 48.6822 123.104 49.6756 121.804 49.7484C120.575 49.8173 119.679 48.9163 119.61 47.6871Z" fill="#DBDBDB"/>
</g>
</g>
<g id="Group_4">
<path id="Vector_7" d="M41.5746 35.872L38.4145 34.439L37.9763 35.4066C37.8475 35.6911 37.5683 35.8728 37.2561 35.8866C37.0836 35.8941 36.9111 35.9112 36.7395 35.9372C36.4315 35.9843 36.123 35.8602 35.9415 35.6071L35.323 34.7436L32.5014 36.7652L33.12 37.6284C33.3014 37.8818 33.3196 38.2136 33.1762 38.4903C33.0961 38.6443 33.0247 38.8022 32.962 38.9632C32.8486 39.2544 32.5868 39.4602 32.276 39.4907L31.2188 39.5943L31.5595 43.0473L32.6204 42.9417C32.9315 42.9106 33.2258 43.0655 33.3946 43.3287C33.4405 43.4001 33.4884 43.4706 33.538 43.5401C33.5878 43.6095 33.6391 43.6776 33.692 43.7439C33.8858 43.9872 33.9378 44.314 33.8096 44.5974L33.3683 45.572L36.5284 47.0051L36.9686 46.0354C37.0976 45.751 37.3774 45.5695 37.6896 45.5561C37.8615 45.5488 38.0331 45.532 38.2042 45.5062C38.5119 45.4598 38.8199 45.5835 39.0013 45.8366L39.6202 46.7004L42.4417 44.6788L41.8229 43.815C41.6417 43.5619 41.6233 43.2304 41.7663 42.954C41.8459 42.8006 41.9167 42.6432 41.9789 42.4828C42.092 42.1916 42.3535 41.9852 42.6646 41.9544L43.7241 41.8494L43.3833 38.3965L42.3233 38.5012C42.0133 38.5317 41.7199 38.3774 41.5516 38.1151C41.5054 38.0434 41.4572 37.9723 41.4071 37.902C41.3573 37.8326 41.306 37.7645 41.2531 37.6982C41.0582 37.4537 41.0062 37.1253 41.1352 36.8405L41.5746 35.872ZM39.782 39.0665C40.6962 40.3425 40.403 42.1163 39.1273 43.0305C37.8514 43.9447 36.0753 43.6532 35.1611 42.3772C34.2469 41.1013 34.5407 39.3236 35.8166 38.4094C37.0923 37.4954 38.8678 37.7908 39.782 39.0665Z" fill="#EBEBEB"/>
<path id="Vector_8" d="M184.347 81.6798L182.242 82.8947L182.614 83.539C182.724 83.7285 182.713 83.9615 182.594 84.1449C182.528 84.2462 182.467 84.3512 182.412 84.4596C182.313 84.6542 182.116 84.7794 181.898 84.7794H181.154V87.2109H181.898C182.116 87.2109 182.313 87.336 182.412 87.5306C182.467 87.639 182.528 87.744 182.594 87.8454C182.713 88.0288 182.724 88.2617 182.614 88.4513L182.242 89.0956L184.347 90.3105L184.72 89.6631C184.829 89.4733 185.038 89.3688 185.256 89.38C185.316 89.3831 185.375 89.3845 185.435 89.3845C185.495 89.3845 185.555 89.3831 185.614 89.38C185.832 89.3688 186.039 89.4724 186.148 89.6612L186.523 90.3102L188.628 89.0953L188.256 88.449C188.146 88.2595 188.157 88.0262 188.277 87.8431C188.343 87.7423 188.404 87.6376 188.458 87.5298C188.558 87.3355 188.754 87.2106 188.972 87.2106H189.716V84.7791H188.972C188.754 84.7791 188.558 84.6542 188.458 84.4599C188.404 84.3521 188.343 84.2474 188.277 84.1466C188.157 83.9632 188.146 83.7302 188.256 83.5404L188.628 82.8941L186.523 81.6792L186.15 82.3257C186.041 82.5147 185.833 82.6189 185.615 82.6077C185.556 82.6046 185.496 82.6032 185.435 82.6032C185.375 82.6032 185.315 82.6046 185.256 82.6077C185.037 82.6189 184.829 82.5144 184.72 82.3249L184.347 81.6798ZM185.436 84.004C186.535 84.004 187.426 84.8947 187.426 85.9943C187.426 87.0938 186.535 87.9865 185.436 87.9865C184.336 87.9865 183.443 87.0938 183.443 85.9943C183.443 84.8947 184.336 84.004 185.436 84.004Z" fill="#EBEBEB"/>
<path id="Vector_9" d="M47.9646 25.5255L46.0338 27.002L46.486 27.5928C46.619 27.7667 46.6386 27.9991 46.5439 28.1962C46.4913 28.3051 46.4448 28.4171 46.4042 28.5319C46.3314 28.7374 46.1525 28.8869 45.936 28.9152L45.1982 29.0113L45.5121 31.4226L46.2499 31.3266C46.4664 31.2983 46.6775 31.3971 46.8004 31.5772C46.869 31.6777 46.9426 31.774 47.0213 31.8659C47.1636 32.0322 47.2039 32.2621 47.1199 32.4639L46.834 33.1511L49.0785 34.084L49.3644 33.3941C49.4484 33.1919 49.6413 33.0615 49.8597 33.0441C49.919 33.0393 49.9784 33.0332 50.0378 33.0256C50.0971 33.0178 50.1562 33.0088 50.2144 32.9979C50.4289 32.9587 50.6479 33.0349 50.7803 33.2079L51.2359 33.8032L53.167 32.3267L52.7143 31.734C52.5813 31.5601 52.562 31.3274 52.6572 31.1303C52.7095 31.0217 52.756 30.9102 52.7966 30.796C52.8697 30.5907 53.0483 30.4415 53.2645 30.4132L54.0026 30.3172L53.6887 27.9058L52.9506 28.0019C52.7344 28.0301 52.5236 27.9316 52.4004 27.7515C52.3321 27.6516 52.2584 27.5558 52.18 27.4643C52.0375 27.2979 51.9966 27.0681 52.0806 26.8659L52.3668 26.1771L50.122 25.2441L49.8356 25.9332C49.7519 26.1348 49.5592 26.2647 49.3417 26.2818C49.2823 26.2866 49.2224 26.2927 49.1622 26.3006C49.1028 26.3084 49.0438 26.3174 48.9852 26.328C48.7696 26.3675 48.5498 26.2908 48.4166 26.1166L47.9646 25.5255ZM49.3434 27.6899C50.4337 27.548 51.4319 28.3163 51.5738 29.4066C51.7158 30.4969 50.9478 31.4971 49.8574 31.6391C48.7671 31.781 47.7667 31.011 47.6247 29.9207C47.4828 28.8304 48.253 27.8319 49.3434 27.6899Z" fill="#EBEBEB"/>
</g>
<g id="Group_5">
<g id="Group_6">
<path id="Vector_10" d="M33.549 88.6994C33.6594 85.9898 33.6151 83.2752 33.4376 80.5696C33.0714 74.9889 32.1527 69.4516 30.891 64.0065C30.1809 60.9413 29.3062 57.9282 28.3951 54.9182C28.3676 54.8272 28.2226 54.853 28.2478 54.9476C31.0657 65.5585 33.3777 76.5088 33.2186 87.5385C33.1741 90.6255 32.8168 93.6574 32.5237 96.7248C32.5158 96.8068 32.6508 96.8396 32.6696 96.7553C33.2508 94.1306 33.4398 91.3801 33.549 88.6994Z" fill="#EBEBEB"/>
<path id="Vector_11" d="M28.2476 54.9478C28.2476 54.9478 23.9787 65.7832 24.9344 68.3301C25.8903 70.877 27.8607 71.4202 27.8607 71.4202C27.8607 71.4202 25.2488 75.1492 27.0739 78.6467C28.8992 82.1442 32.9544 81.979 33.2238 85.9446C33.2238 85.9446 33.4497 69.363 28.2476 54.9478Z" fill="#EBEBEB"/>
<path id="Vector_12" d="M32.7598 79.0982C32.7651 79.08 32.7637 79.0607 32.7553 79.0413C32.1558 71.6737 30.8488 64.329 28.6147 57.2442C28.6082 57.2232 28.5738 57.2299 28.5794 57.2517C29.4253 60.4213 30.1779 63.608 30.8211 66.8121C30.2667 66.2411 29.5415 65.913 28.7832 65.6758C28.769 65.6713 28.762 65.6918 28.7754 65.6976C29.565 66.039 30.3213 66.4346 30.8793 67.1035C31.0039 67.7316 31.126 68.3599 31.2419 68.989C30.288 67.9228 28.965 67.3939 27.6411 66.891C27.6224 66.884 27.6126 66.9126 27.6308 66.9201C29.0095 67.4815 30.3829 68.2048 31.317 69.3928C31.6426 71.191 31.9276 72.9956 32.1743 74.8055C31.4768 74.0769 30.6161 73.5872 29.6288 73.3467C29.5992 73.3394 29.5826 73.3834 29.6126 73.3921C30.627 73.6841 31.4995 74.2519 32.1942 75.0457C32.1992 75.0513 32.2046 75.0541 32.2102 75.0578C32.2956 75.6945 32.3762 76.3321 32.4518 76.9705C31.9148 76.5124 31.3212 76.1638 30.6676 75.8941C30.6503 75.8871 30.641 75.914 30.6578 75.9213C31.3217 76.2038 31.919 76.6112 32.4448 77.104C32.4524 77.111 32.4599 77.1102 32.4675 77.113C32.5386 77.7197 32.6094 78.3268 32.6708 78.9349C31.6922 77.7556 30.482 76.9021 29.0501 76.3497C29.0221 76.3388 29.0078 76.3816 29.0347 76.3934C30.4268 76.9987 31.6541 77.9577 32.603 79.1391C32.629 79.1715 32.6629 79.1769 32.6929 79.1673C32.7853 80.0997 32.8679 81.0335 32.9362 81.9693C32.937 81.9822 32.958 81.9833 32.9575 81.9704C32.904 81.0125 32.8371 80.0552 32.7598 79.0982Z" fill="white"/>
<path id="Vector_13" d="M29.3298 64.5986C28.5894 64.0898 27.6486 63.8725 26.765 63.7989C26.7437 63.7972 26.742 63.8286 26.7627 63.8314C27.682 63.968 28.4542 64.3007 29.2987 64.6596C29.3354 64.6756 29.3617 64.6207 29.3298 64.5986Z" fill="white"/>
<path id="Vector_14" d="M29.8481 76.0704C29.2623 75.7188 28.5939 75.5202 27.9228 75.4119C27.8993 75.4082 27.8973 75.4444 27.9203 75.4483C28.6018 75.5718 29.2055 75.8142 29.8248 76.1161C29.8511 76.1292 29.873 76.0856 29.8481 76.0704Z" fill="white"/>
</g>
<g id="Group_7">
<path id="Vector_15" d="M44.7717 68.5067C42.9915 69.7583 41.2829 71.2017 39.8309 72.8257C38.283 74.5566 37.1541 76.5217 36.3656 78.7023C34.7503 83.1697 33.8649 88.0092 33.7843 92.7572C33.7389 95.4189 33.9758 98.0598 34.5453 100.661C34.566 100.756 34.7074 100.729 34.6931 100.634C33.9971 96.0564 34.0225 91.3858 34.7704 86.8173C35.5043 82.3348 36.6559 77.458 39.5052 73.8152C41.0567 71.8317 42.9912 70.271 44.9036 68.6582C45.0036 68.5733 44.8751 68.4339 44.7717 68.5067Z" fill="#EBEBEB"/>
<path id="Vector_16" d="M34.4124 89.5298C34.4124 89.5298 35.8784 87.0608 38.014 84.9258C40.1496 82.7908 41.9483 81.2735 42.2258 79.8614C42.5035 78.4494 40.0866 77.4095 40.0866 77.4095C40.0866 77.4095 43.042 77.9401 43.8506 76.6997C44.6592 75.4596 45.0496 68.2759 45.0496 68.2759C45.0496 68.2759 39.6733 72.1144 37.1681 77.4952C34.6632 82.8759 34.4124 89.5298 34.4124 89.5298Z" fill="#EBEBEB"/>
<path id="Vector_17" d="M43.1892 70.1175C40.9271 72.3393 38.6504 74.707 37.3181 77.626C36.8615 78.6267 36.4728 79.6647 36.1307 80.722C36.1298 80.7237 36.1298 80.7253 36.129 80.7267C36.0604 80.939 35.9907 81.1509 35.926 81.3646C35.9195 81.3752 35.9162 81.387 35.9151 81.3996C35.2565 83.5797 34.7909 85.8339 34.3877 88.0361C34.3851 88.0504 34.4067 88.058 34.4095 88.0431C34.6411 86.9223 34.8967 85.7905 35.182 84.6621C35.1921 84.6624 35.203 84.6605 35.2142 84.6557C35.6715 84.4636 36.1315 84.3432 36.6251 84.2976C36.6573 84.2948 36.6548 84.2388 36.6221 84.2405C36.1458 84.2634 35.6793 84.3469 35.2265 84.495C35.4869 83.4775 35.77 82.4627 36.0884 81.4629C37.1263 81.2086 38.2097 81.0714 39.277 81.0459C39.2879 81.0457 39.2899 81.0291 39.2784 81.0286C38.2024 80.9785 37.191 81.0711 36.143 81.2949C36.1984 81.1232 36.2561 80.9527 36.3135 80.7816C37.0143 80.622 37.7183 80.4876 38.4353 80.4221C38.4482 80.421 38.4471 80.3989 38.4342 80.3991C37.732 80.4182 37.0398 80.4918 36.3566 80.6517C36.6492 79.7862 36.9653 78.9328 37.3159 78.1015C37.606 77.4138 37.9509 76.7608 38.3309 76.1305C38.9057 76.0003 39.4629 75.8766 40.0521 75.8237C40.0683 75.8223 40.0666 75.7962 40.0507 75.7951C39.5159 75.7604 38.9589 75.8004 38.4415 75.9541C38.7243 75.4975 39.0214 75.05 39.3395 74.6166C40.5451 74.3495 41.7673 74.1017 43.0007 74.3332C43.022 74.3371 43.0299 74.3013 43.0089 74.296C41.8348 73.9871 40.6695 74.1655 39.5013 74.3965C39.6287 74.2268 39.7592 74.0594 39.8908 73.8928C40.6308 73.664 41.3669 73.5531 42.1434 73.5389C42.1593 73.5386 42.1619 73.5156 42.1453 73.5139C41.4367 73.4462 40.7299 73.5148 40.0451 73.7004C41.0419 72.462 42.1428 71.2989 43.2312 70.1486C43.2821 70.096 43.2429 70.0649 43.1892 70.1175Z" fill="white"/>
<path id="Vector_18" d="M43.1292 75.0144C42.7752 74.9766 42.4154 74.9372 42.0598 74.9772C42.0167 74.982 42.0204 75.0523 42.0638 75.0534C42.4177 75.0637 42.7716 75.0374 43.1255 75.0565C43.1527 75.0581 43.156 75.0172 43.1292 75.0144Z" fill="white"/>
<path id="Vector_19" d="M39.2594 81.9831C38.6944 81.9761 38.1302 82.1282 37.6024 82.3158C37.5892 82.3205 37.5965 82.3427 37.6102 82.3393C38.1573 82.2091 38.7109 82.1562 39.2636 82.0649C39.309 82.0576 39.3067 81.9837 39.2594 81.9831Z" fill="white"/>
<path id="Vector_20" d="M38.0997 79.5754C37.8703 79.5634 37.6223 79.6037 37.3963 79.639C37.3731 79.6426 37.3744 79.6804 37.3985 79.681C37.627 79.6849 37.8785 79.6911 38.1036 79.6479C38.1433 79.6401 38.1417 79.5777 38.0997 79.5754Z" fill="white"/>
</g>
<g id="Group_8">
<path id="Vector_21" d="M18.6516 76.1304C20.3817 76.7318 22.0979 77.5052 23.6485 78.4838C25.3013 79.5268 26.6691 80.8562 27.8113 82.4385C30.1509 85.6806 31.9861 89.3926 33.1489 93.2163C33.8007 95.36 34.2196 97.5518 34.3599 99.7887C34.3649 99.8699 34.2443 99.8811 34.2339 99.8002C33.7391 95.9351 32.639 92.1612 30.9778 88.6366C29.3479 85.1786 27.2888 81.4983 24.1407 79.2087C22.4266 77.9622 20.5005 77.1462 18.5799 76.283C18.4794 76.2379 18.5511 76.0957 18.6516 76.1304Z" fill="#EBEBEB"/>
<path id="Vector_22" d="M31.8945 90.7495C31.8945 90.7495 30.1372 89.0903 27.9157 87.856C25.6939 86.6218 23.8876 85.8095 23.3365 84.7309C22.7855 83.6524 24.5011 82.2521 24.5011 82.2521C24.5011 82.2521 22.2319 83.3645 21.2909 82.5478C20.3498 81.731 18.3735 76.0078 18.3735 76.0078C18.3735 76.0078 23.6118 77.8715 26.8825 81.647C30.1534 85.4228 31.8945 90.7495 31.8945 90.7495Z" fill="#EBEBEB"/>
<path id="Vector_23" d="M31.6217 89.5691C29.0017 84.6514 25.5059 80.2028 20.7157 77.2664C20.7135 77.265 20.7115 77.2684 20.7135 77.2695C21.9746 78.0731 23.1366 78.9999 24.2196 80.0132C23.25 79.9864 22.263 80.1409 21.4034 80.6077C21.3843 80.618 21.3981 80.6438 21.4177 80.6371C22.3758 80.3128 23.2962 80.1 24.3154 80.1474C24.3294 80.1479 24.3383 80.1406 24.3481 80.135C24.5181 80.2963 24.6858 80.4601 24.8519 80.6253C24.3479 80.6469 23.838 80.7183 23.3469 80.825C23.3337 80.8278 23.3373 80.8482 23.3508 80.8457C23.8822 80.7429 24.4011 80.7071 24.9403 80.7146C25.8181 81.5967 26.636 82.5402 27.4111 83.52C27.0611 83.469 26.6943 83.4987 26.3588 83.5964C26.3339 83.6037 26.3403 83.6395 26.3664 83.6362C26.748 83.588 27.1109 83.5942 27.4897 83.6208C27.6331 83.8033 27.7781 83.9848 27.9187 84.1696C26.8415 84.1046 25.7862 84.2082 24.7396 84.4787C24.7242 84.4826 24.7284 84.5064 24.7443 84.5033C25.824 84.2914 26.9127 84.2236 28.0097 84.2911C28.1433 84.4683 28.2698 84.6506 28.4009 84.8298C27.7583 84.8102 27.135 84.8906 26.5083 85.0465C26.4845 85.0524 26.4913 85.0899 26.5156 85.0843C27.1602 84.9376 27.8157 84.9004 28.4745 84.9317C29.0381 85.7082 29.578 86.502 30.0968 87.3053C29.8221 87.2487 29.5337 87.2795 29.2661 87.3551C29.2518 87.3593 29.2557 87.3795 29.2705 87.3778C29.5788 87.3417 29.8667 87.3814 30.1693 87.4204C30.6358 88.1467 31.0869 88.8803 31.5189 89.6181C31.5559 89.6808 31.6564 89.6343 31.6217 89.5691Z" fill="white"/>
<path id="Vector_24" d="M27.5463 85.49C27.0342 85.446 26.5137 85.5264 26.0245 85.6762C26.0105 85.6804 26.0139 85.7017 26.029 85.6989C26.5327 85.6062 27.0319 85.5712 27.5424 85.5438C27.5757 85.5421 27.5821 85.4934 27.5463 85.49Z" fill="white"/>
<path id="Vector_25" d="M22.9769 79.4972C22.7454 79.4709 22.5037 79.5012 22.275 79.5381C22.2478 79.5426 22.2562 79.5826 22.2831 79.5798C22.5138 79.5552 22.7415 79.5639 22.9725 79.5569C23.01 79.5558 23.0161 79.5017 22.9769 79.4972Z" fill="white"/>
</g>
<g id="Group_9">
<g id="Group_10">
<path id="Vector_26" d="M38.6508 107.011H26.8267L28.5125 94.6607L28.9435 91.4941H36.534L36.9646 94.6607L38.6508 107.011Z" fill="#DBDBDB"/>
<path id="Vector_27" d="M36.9645 94.6607H28.5125L28.9434 91.4941H36.5339L36.9645 94.6607Z" fill="#C7C7C7"/>
</g>
<path id="Vector_28" d="M37.6193 90.3955H27.8579V93.0773H37.6193V90.3955Z" fill="#DBDBDB"/>
</g>
</g>
</g>
<g id="Floor">
<g id="Group_11">
<path id="Vector_29" d="M19.3098 107.01L40.5923 106.942L61.8749 106.918L104.44 106.871L147.005 106.917L168.287 106.942L189.57 107.01L168.287 107.079L147.005 107.104L104.44 107.15L61.8749 107.103L40.5923 107.078L19.3098 107.01Z" fill="#263238"/>
</g>
</g>
<g id="Shadow">
<g id="Group_12">
<path id="Vector_30" d="M105 127.88C149.342 127.88 185.288 123.941 185.288 119.082C185.288 114.223 149.342 110.285 105 110.285C60.6582 110.285 24.7122 114.223 24.7122 119.082C24.7122 123.941 60.6582 127.88 105 127.88Z" fill="#EBEBEB"/>
</g>
</g>
<g id="Character">
<g id="Group_13">
<g id="Group_14">
<g id="Group_15">
<g id="Group_16">
<path id="Vector_31" d="M86.3102 117.625C85.6575 117.845 66.9496 117.911 66.2345 117.463C65.9623 117.294 65.794 114.57 65.6837 111.273C65.6599 110.561 65.6395 109.826 65.6232 109.079L64.1062 99.1006L76.6124 99.0205L77.7929 109.001L77.745 111.196C77.745 111.196 84.9189 114.375 85.6502 114.951C86.3782 115.526 86.9632 117.404 86.3102 117.625Z" fill="#EB9481"/>
<path id="Vector_32" d="M86.3103 117.624C85.6576 117.845 66.9497 117.911 66.2345 117.463C65.9041 117.256 65.7238 113.278 65.6233 109.079L77.7929 109L77.7451 111.196C77.7451 111.196 84.9189 114.374 85.6503 114.95C86.3783 115.526 86.9632 117.404 86.3103 117.624Z" fill="white"/>
<g id="Group_17">
<path id="Vector_33" d="M86.3103 117.625C85.6576 117.846 66.9497 117.911 66.2346 117.463C65.9624 117.294 65.7942 114.57 65.6838 111.273L77.7451 111.196C77.7451 111.196 84.919 114.374 85.6504 114.95C86.3784 115.526 86.9633 117.404 86.3103 117.625Z" fill="#A6A6A6"/>
<g id="Group_18">
<g id="Group_19">
<path id="Vector_34" d="M86.0396 116.878C82.9034 116.812 70.2476 116.841 67.1424 117.015C67.1172 117.016 67.1172 117.033 67.1424 117.034C70.2496 117.167 82.9048 117.035 86.0399 116.929C86.106 116.927 86.1057 116.879 86.0396 116.878Z" fill="#263238"/>
<path id="Vector_35" d="M84.4449 114.282C83.7013 114.254 82.9755 114.61 82.5715 115.054C82.1834 115.481 81.8521 116.081 81.8765 116.731C81.8773 116.75 81.9118 116.75 81.9143 116.731C82.089 115.503 83.2015 114.421 84.4449 114.321C84.4704 114.319 84.4704 114.283 84.4449 114.282Z" fill="#263238"/>
<path id="Vector_36" d="M78.9628 111.504C77.7076 111.491 76.2538 111.939 75.4774 112.968C75.4474 113.008 75.5043 113.05 75.5415 113.031C76.6741 112.442 77.7513 112.002 78.9847 111.658C79.072 111.634 79.0527 111.505 78.9628 111.504Z" fill="#263238"/>
<path id="Vector_37" d="M79.9335 111.878C78.6783 111.865 77.2245 112.313 76.4481 113.343C76.4181 113.383 76.4752 113.425 76.5122 113.405C77.6448 112.816 78.722 112.377 79.9554 112.033C80.0424 112.008 80.0234 111.879 79.9335 111.878Z" fill="#263238"/>
<path id="Vector_38" d="M80.9036 112.252C79.6484 112.239 78.1946 112.687 77.4182 113.717C77.3879 113.756 77.4453 113.799 77.4823 113.779C78.6149 113.191 79.692 112.751 80.9257 112.407C81.0128 112.382 80.9935 112.253 80.9036 112.252Z" fill="#263238"/>
<path id="Vector_39" d="M81.8738 112.627C80.6186 112.614 79.1651 113.062 78.3886 114.091C78.3584 114.131 78.4155 114.173 78.4528 114.154C79.5854 113.565 80.6625 113.125 81.8959 112.781C81.983 112.757 81.9637 112.628 81.8738 112.627Z" fill="#263238"/>
<path id="Vector_40" d="M67.9307 114.033C66.5226 114.042 66.534 116.23 67.9447 116.221C69.3528 116.212 69.3413 114.024 67.9307 114.033Z" fill="#263238"/>
</g>
<path id="Vector_41" d="M80.3077 108.149C79.6704 107.625 78.8718 108.142 78.4821 108.691C77.8507 109.579 77.4192 110.823 77.3529 111.905C77.3515 111.931 77.3716 111.942 77.392 111.941C77.4192 112.03 77.5256 112.105 77.618 112.041C78.5095 111.42 79.5396 110.866 80.2139 109.99C80.6076 109.478 80.9102 108.646 80.3077 108.149ZM78.7769 110.823C78.346 111.139 77.9019 111.432 77.4828 111.764C77.7048 111.138 77.8986 110.505 78.1836 109.902C78.3197 109.614 78.4647 109.32 78.6392 109.053C78.9105 108.638 80.1389 107.584 80.2685 108.949C80.3399 109.702 79.2907 110.445 78.7769 110.823Z" fill="#263238"/>
<path id="Vector_42" d="M74.236 112.381C75.3294 112.545 76.4558 112.229 77.5288 112.059C77.6402 112.041 77.6649 111.913 77.622 111.83C77.638 111.817 77.6453 111.795 77.6257 111.777C76.8277 111.043 75.6545 110.446 74.5837 110.244C73.9227 110.119 72.9883 110.3 72.8925 111.119C72.8024 111.895 73.5976 112.285 74.236 112.381ZM73.4755 111.669C72.6223 110.595 74.2379 110.503 74.7215 110.614C75.0323 110.686 75.3403 110.796 75.6379 110.909C76.2618 111.147 76.84 111.468 77.4341 111.766C76.9018 111.817 76.3785 111.913 75.8488 111.984C75.2174 112.069 73.9459 112.261 73.4755 111.669Z" fill="#263238"/>
</g>
</g>
</g>
<g id="Group_20">
<path id="Vector_43" d="M45.729 52.9771C45.729 52.9771 60.2526 77.6842 60.6415 79.4188C61.239 82.0844 64.4067 108.409 64.4067 108.409L79.5186 108.136C79.5186 108.136 76.914 84.927 74.4472 77.2805C72.6703 71.7726 59.853 53.506 59.853 53.506L45.729 52.9771Z" fill="#37474F"/>
<g id="Group_21">
<path id="Vector_44" d="M78.1444 105.82C75.9741 105.804 68.2836 105.717 65.3949 105.987C65.3728 105.989 65.3736 106.025 65.3954 106.029C66.3897 106.171 75.9758 105.949 78.1452 105.879C78.1861 105.878 78.1853 105.82 78.1444 105.82Z" fill="#263238"/>
<path id="Vector_45" d="M48.2081 55.2444C49.1598 56.7371 50.1639 58.1987 51.1369 59.6785C52.1105 61.1588 53.0804 62.6414 54.0377 64.1321C55.951 67.1116 57.8144 70.1222 59.6436 73.1515C60.5015 74.5722 61.3186 76.0061 61.9077 77.5559C62.4912 79.0909 62.8885 80.688 63.1825 82.298C63.4788 83.92 63.6736 85.5575 63.8579 87.1943C64.0539 88.9373 64.2471 90.6806 64.4417 92.4239C64.8398 95.9908 65.238 99.5577 65.6362 103.124C65.6849 103.562 65.7328 103.999 65.7767 104.438C65.7832 104.502 65.6684 104.515 65.6602 104.45C65.2156 100.906 64.8463 97.3511 64.4422 93.8021C64.2412 92.0353 64.0402 90.2685 63.8391 88.5017C63.6521 86.8589 63.4743 85.2142 63.2195 83.5798C62.9689 81.9746 62.6438 80.3758 62.1552 78.8221C61.6448 77.1986 60.9218 75.6746 60.0658 74.1984C58.3144 71.1781 56.4614 68.2092 54.6075 65.2482C52.7377 62.2617 50.8522 59.2834 48.8966 56.3493C48.6553 55.9869 48.4117 55.6269 48.1614 55.2701C48.1418 55.2421 48.1896 55.2155 48.2081 55.2444Z" fill="#263238"/>
</g>
</g>
</g>
<g id="Group_22">
<g id="Group_23">
<path id="Vector_46" d="M50.4902 119.082C49.8011 119.039 32.0113 111.831 31.5154 111.149C31.4989 111.126 31.4891 111.081 31.4883 111.017C31.4916 110.405 32.7236 108.264 33.7532 105.454C33.8176 105.275 34.2768 104.441 34.9141 103.317C36.6658 100.229 39.7654 94.9385 39.7654 94.9385L51.3935 99.5585L45.8276 107.89L44.9613 109.906C44.9613 109.906 50.4188 115.546 50.8797 116.353C51.3378 117.161 51.1768 119.121 50.4902 119.082Z" fill="#EB9481"/>
<path id="Vector_47" d="M50.4902 119.082C49.8011 119.039 32.0113 111.831 31.5154 111.148C31.4989 111.125 31.4891 111.081 31.4883 111.017C31.4916 110.405 32.7236 108.264 33.7532 105.454C33.8176 105.274 34.2768 104.441 34.9141 103.316L45.8279 107.89L44.9616 109.906C44.9616 109.906 50.4191 115.546 50.88 116.353C51.3378 117.16 51.1768 119.12 50.4902 119.082Z" fill="white"/>
<g id="Group_24">
<path id="Vector_48" d="M50.4892 119.08C49.8012 119.04 32.0109 111.832 31.5161 111.148C31.3271 110.889 32.1226 108.46 33.7522 105.455L44.9617 109.908C44.9617 109.908 50.4192 115.546 50.8812 116.354C51.3393 117.161 51.1772 119.12 50.4892 119.08Z" fill="#A6A6A6"/>
<g id="Group_25">
<g id="Group_26">
<path id="Vector_49" d="M50.5184 118.286C47.636 117.048 35.8931 112.328 32.9498 111.324C32.926 111.315 32.9195 111.331 32.9425 111.342C35.7727 112.631 47.5535 117.256 50.4993 118.333C50.5615 118.356 50.5791 118.312 50.5184 118.286Z" fill="#263238"/>
<path id="Vector_50" d="M50.014 115.281C49.335 114.977 48.5289 115.034 47.9876 115.294C47.4677 115.545 46.9357 115.976 46.7145 116.588C46.708 116.606 46.74 116.619 46.7498 116.602C47.3725 115.529 48.8094 114.944 49.9997 115.318C50.0235 115.325 50.0375 115.292 50.014 115.281Z" fill="#263238"/>
<path id="Vector_51" d="M45.9746 110.65C44.8159 110.167 43.3003 110.037 42.1943 110.7C42.1515 110.725 42.1887 110.786 42.2304 110.782C43.5013 110.661 44.6645 110.658 45.9371 110.801C46.0269 110.811 46.0575 110.685 45.9746 110.65Z" fill="#263238"/>
<path id="Vector_52" d="M46.7336 111.361C45.575 110.878 44.0593 110.748 42.9533 111.411C42.9105 111.436 42.9477 111.497 42.9895 111.493C44.2601 111.372 45.4235 111.368 46.6961 111.512C46.786 111.522 46.8165 111.396 46.7336 111.361Z" fill="#263238"/>
<path id="Vector_53" d="M47.4926 112.072C46.334 111.589 44.8184 111.459 43.7124 112.122C43.6695 112.147 43.7068 112.208 43.7485 112.204C45.0191 112.083 46.1825 112.079 47.4551 112.223C47.5447 112.233 47.5755 112.106 47.4926 112.072Z" fill="#263238"/>
<path id="Vector_54" d="M48.2515 112.783C47.0928 112.3 45.5772 112.17 44.4715 112.833C44.4286 112.858 44.4656 112.919 44.5076 112.915C45.7785 112.794 46.9416 112.791 48.2142 112.934C48.3038 112.944 48.3346 112.817 48.2515 112.783Z" fill="#263238"/>
<path id="Vector_55" d="M34.7989 108.856C33.4902 108.336 32.6798 110.369 33.9908 110.89C35.2998 111.41 36.1101 109.377 34.7989 108.856Z" fill="#263238"/>
</g>
<path id="Vector_56" d="M48.4793 108.045C48.0853 107.319 47.151 107.499 46.584 107.862C45.6656 108.448 44.799 109.439 44.3317 110.417C44.3202 110.441 44.335 110.459 44.3546 110.465C44.3459 110.558 44.4165 110.668 44.5265 110.643C45.5861 110.401 46.7486 110.275 47.7023 109.715C48.2589 109.389 48.8517 108.731 48.4793 108.045ZM46.0576 109.949C45.5393 110.08 45.0179 110.185 44.5047 110.336C44.9454 109.839 45.3623 109.325 45.8529 108.872C46.087 108.656 46.3317 108.439 46.5935 108.257C47.0009 107.973 48.5347 107.458 48.1427 108.772C47.9266 109.496 46.6753 109.792 46.0576 109.949Z" fill="#263238"/>
<path id="Vector_57" d="M41.2636 109.69C42.2156 110.252 43.3779 110.382 44.4365 110.627C44.5463 110.652 44.6171 110.543 44.609 110.449C44.6286 110.443 44.6437 110.426 44.6323 110.402C44.1677 109.422 43.3042 108.429 42.3878 107.839C41.8216 107.476 40.8878 107.292 40.4919 108.017C40.117 108.702 40.7078 109.361 41.2636 109.69ZM40.8259 108.745C40.4381 107.429 41.9703 107.95 42.3766 108.234C42.6378 108.417 42.8817 108.635 43.1152 108.852C43.6044 109.306 44.0199 109.821 44.4592 110.32C43.9465 110.168 43.4255 110.061 42.9075 109.928C42.2903 109.769 41.0396 109.47 40.8259 108.745Z" fill="#263238"/>
</g>
</g>
</g>
<g id="Group_27">
<path id="Vector_58" d="M46.725 107.424L33.7092 102.168C33.7092 102.168 49.8473 78.4395 49.9669 76.6736C50.0724 75.1089 42.9842 61.495 42.7048 57.5274C42.4032 53.2457 44.4651 49.9316 46.7306 47.875L60.158 53.5828C60.158 53.5828 58.7409 55.85 56.5085 57.1119C56.5085 57.1119 63.3943 72.8482 63.0037 77.6866C62.6111 82.5513 46.725 107.424 46.725 107.424Z" fill="#37474F"/>
<g id="Group_28">
<path id="Vector_59" d="M47.3032 104.949C45.421 104.139 45.9726 104.345 44.0812 103.557C43.1558 103.171 37.0717 100.642 36.1455 100.434C36.125 100.429 36.1119 100.461 36.1298 100.472C36.9395 100.968 43.0665 103.391 43.9992 103.759C45.9051 104.51 45.3661 104.274 47.2805 105.004C47.3166 105.017 47.3385 104.964 47.3032 104.949Z" fill="#263238"/>
<g id="Group_29">
<path id="Vector_60" d="M58.719 56.8238C57.3201 57.1245 55.9479 57.6187 54.6296 58.1499C54.5778 58.1709 54.6022 58.2476 54.6576 58.2314C56.0302 57.8307 57.4263 57.4563 58.7736 56.9828C58.8795 56.9456 58.8262 56.8006 58.719 56.8238Z" fill="#263238"/>
<path id="Vector_61" d="M57.1261 56.271C56.9936 56.5017 56.8813 56.7448 56.7811 56.9903C56.7035 57.181 56.6039 57.3854 56.605 57.5935C56.6053 57.6338 56.6596 57.6436 56.6845 57.6189C56.8405 57.4655 56.9233 57.2415 57.0219 57.0503C57.1361 56.8288 57.2554 56.6093 57.3632 56.3844C57.4346 56.2355 57.2076 56.1288 57.1261 56.271Z" fill="#263238"/>
<path id="Vector_62" d="M57.289 55.0089C57.3714 54.8023 57.4542 54.5959 57.541 54.3913C57.6309 54.1793 57.7354 53.9704 57.8087 53.7523C57.8202 53.7179 57.8748 53.7411 57.8611 53.7758C57.779 53.9827 57.7256 54.2034 57.6598 54.4162C57.5937 54.6298 57.524 54.8421 57.4534 55.0543C57.3218 55.4494 57.1608 55.8414 56.9911 56.2227C57.2106 56.2199 57.4366 56.2101 57.6362 56.1107C57.853 56.0027 57.9843 55.7725 58.091 55.5645C58.2094 55.3335 58.3183 55.0971 58.4401 54.8678C58.5748 54.6141 58.7238 54.3633 58.8125 54.0886C58.8237 54.0539 58.8772 54.0771 58.8649 54.1118C58.6627 54.6788 58.4639 55.245 58.1495 55.7675C58.026 55.9727 57.9258 56.1863 57.6981 56.2667C57.4537 56.3529 57.1863 56.3361 56.9318 56.3177C56.9004 56.3263 56.8598 56.3062 56.8707 56.2681C56.9908 55.8456 57.1261 55.4172 57.289 55.0089Z" fill="#263238"/>
</g>
<path id="Vector_63" d="M56.7181 57.6244C57.1952 58.636 57.615 59.644 58.061 60.652C58.497 61.6371 58.9052 62.6336 59.3014 63.6349C60.1022 65.6584 60.8196 67.7187 61.4487 69.8022C61.7601 70.8331 62.0468 71.8714 62.3061 72.9166C62.5659 73.9646 62.8199 75.0233 62.9277 76.0996C63.0358 77.1793 62.9588 78.247 62.658 79.2911C62.3528 80.3503 61.9508 81.2754 61.4731 82.2664C61.1813 82.872 61.0808 82.7902 61.2222 82.4845C61.6229 81.6173 62.6723 78.9887 62.5962 76.7786C62.5595 75.7124 62.3405 74.6624 62.0997 73.6264C61.8539 72.5688 61.5764 71.5188 61.2737 70.4761C60.6773 68.4218 59.9689 66.408 59.2401 64.3976C58.8318 63.2712 58.3936 62.1562 57.9792 61.0323C57.5618 59.9 57.1314 58.881 56.6683 57.6446C56.656 57.6121 56.7033 57.593 56.7181 57.6244Z" fill="#263238"/>
<path id="Vector_64" d="M46.8357 54.2827C47.0689 54.1965 47.3923 54.3393 47.63 54.379C47.9349 54.4303 48.2432 54.4613 48.5523 54.472C48.857 54.4823 49.1641 54.47 49.4674 54.4403C49.7706 54.4109 50.08 54.3734 50.3435 54.2088C50.7876 53.9316 51.1594 53.4433 51.4604 53.0227C51.7911 52.5604 52.1344 52.029 52.3315 51.4936C52.3435 51.4609 52.3909 51.4832 52.3805 51.5154C52.2825 51.8276 52.2097 52.1424 52.0851 52.4473C51.9678 52.7343 51.8163 53.0087 51.6556 53.273C51.3554 53.7669 51.011 54.2942 50.4964 54.5879C49.9563 54.8962 49.2605 54.8777 48.6582 54.843C48.3099 54.8228 47.9629 54.7769 47.6213 54.7049C47.3749 54.6529 46.9603 54.6134 46.8032 54.3969C46.7749 54.3588 46.7897 54.2998 46.8357 54.2827Z" fill="#263238"/>
<path id="Vector_65" d="M37.4247 99.6875C39.5641 96.4499 41.6639 93.1856 43.7258 89.8979C45.793 86.6014 47.8222 83.2809 49.8231 79.9439C50.3016 79.1459 50.8546 78.3482 51.1629 77.4642C51.498 76.5032 51.3076 75.5722 51.0041 74.632C50.4475 72.9075 49.7542 71.2294 49.0057 69.58C48.2551 67.9257 47.447 66.2986 46.6518 64.6657C45.8633 63.0459 45.0241 61.4208 44.4261 59.7186C43.8549 58.0927 43.6373 56.4065 44.0758 54.7201C44.5109 53.0468 45.452 51.5443 46.4348 50.1421C46.6941 49.7722 46.9581 49.4057 47.2182 49.0364C47.2381 49.0084 47.2807 49.0422 47.2599 49.0702C46.1769 50.5321 45.1207 52.0794 44.4857 53.7958C44.1718 54.6439 43.9685 55.5368 43.9487 56.4429C43.9282 57.3622 44.101 58.2741 44.3717 59.1497C44.8984 60.8521 45.7297 62.464 46.5042 64.0634C47.2961 65.6983 48.1092 67.3234 48.8727 68.9721C49.6411 70.6308 50.3595 72.3147 50.9501 74.0457C51.213 74.8162 51.5061 75.6226 51.4888 76.4484C51.4697 77.3528 51.038 78.167 50.5911 78.9294C48.6445 82.2491 46.6238 85.5271 44.5781 88.7863C42.5246 92.0581 40.4305 95.3041 38.3039 98.5286C38.0356 98.9352 37.7668 99.3414 37.4977 99.7474C37.4644 99.797 37.3916 99.7376 37.4247 99.6875Z" fill="#263238"/>
</g>
</g>
</g>
</g>
<g id="Group_30">
<g id="Group_31">
<path id="Vector_66" d="M60.9037 38.4911C62.1155 41.1514 68.2377 44.8171 71.1052 45.2111C73.1683 45.4944 79.4321 45.5919 81.5803 45.264C84.0961 44.8798 82.1739 38.0876 80.6865 38.2615C76.5988 38.7394 73.1277 39.2714 72.0365 39.2714C70.7043 39.2714 63.4931 36.957 62.6243 36.6313C60.4977 35.8342 60.2163 36.9822 60.9037 38.4911Z" fill="#EB9481"/>
<g id="Group_32">
<g id="Group_33">
<path id="Vector_67" d="M60.9415 39.1955C62.4756 41.466 67.5764 45.1777 67.5764 45.1777L68.2842 43.6094L70.6267 38.4252C70.6267 38.4252 65.9426 36.9471 62.8601 36.2885C62.4437 36.1992 62.0766 36.1457 61.7571 36.1314C59.7893 36.0253 59.6185 37.2422 60.9415 39.1955Z" fill="#FCDCCC"/>
</g>
<path id="Vector_68" d="M60.9415 39.1955C62.4756 41.466 67.5764 45.1777 67.5764 45.1777L68.2842 43.6094C66.3822 41.4016 63.4461 38.0553 61.7571 36.1314C59.7893 36.0253 59.6185 37.2422 60.9415 39.1955Z" fill="#263238"/>
<path id="Vector_69" d="M66.6569 44.1295C67.0456 43.1766 68.7774 39.3322 69.2072 38.5255C69.2371 38.4695 69.2794 38.474 69.2556 38.5359C68.1594 41.4174 67.1234 43.2264 66.6947 44.1423C66.6841 44.1653 66.6471 44.1535 66.6569 44.1295Z" fill="#263238"/>
</g>
<g id="Group_34">
<path id="Vector_70" d="M79.9365 38.3358C82.4246 38.0093 85.5021 37.4513 88.108 38.5576C88.6193 38.7746 88.8044 39.1556 88.8044 39.1556C89.9812 39.6308 90.1103 40.3291 90.1103 40.3291C91.071 41.1072 91.1049 41.8397 91.1049 41.8397C91.1049 41.8397 92.4805 42.4126 92.2722 43.3016C92.0418 44.2992 90.1548 43.2994 88.7812 43.3842C85.6334 43.5782 81.2136 44.7346 80.3114 44.8808L79.9365 38.3358Z" fill="#EB9481"/>
<path id="Vector_71" d="M85.3398 41.2694C86.2672 41.2307 87.1772 41.1686 88.1051 41.2557C89.1232 41.3511 90.0866 41.6141 91.0745 41.8571C91.1053 41.8647 91.119 41.8227 91.0899 41.8103C89.3715 41.0874 87.1685 40.8975 85.3376 41.2274C85.293 41.2352 85.293 41.2713 85.3398 41.2694Z" fill="#263238"/>
<path id="Vector_72" d="M84.9462 39.3867C85.8509 39.399 87.4405 39.4312 90.1007 40.358C90.1094 40.3611 90.1173 40.3474 90.1083 40.3426C88.4611 39.5113 86.7721 39.2156 84.9471 39.3436C84.8902 39.3475 84.8863 39.3858 84.9462 39.3867Z" fill="#263238"/>
<path id="Vector_73" d="M84.7539 38.3708C86.2911 38.4506 87.2503 38.6954 88.7965 39.1602C88.8052 39.1627 88.8122 39.1484 88.8029 39.1445C87.1011 38.4319 86.4028 38.3661 84.7491 38.3179C84.6925 38.316 84.6939 38.3678 84.7539 38.3708Z" fill="#263238"/>
<path id="Vector_74" d="M85.0032 43.8584C84.6034 44.046 84.6991 44.2571 85.4641 44.4344C86.2377 44.6152 89.4073 44.6637 89.2956 45.7708C89.1853 46.8821 84.7008 46.7399 83.4495 46.3473C82.197 45.9576 80.3115 44.8812 80.3115 44.8812C81.1896 44.7328 83.2848 44.1709 85.0032 43.8584Z" fill="#EB9481"/>
</g>
</g>
<g id="Group_35">
<path id="Vector_75" d="M64.233 42.7321C64.2136 43.2104 64.1666 43.6973 64.0994 44.18C64.1058 44.1627 64.1134 44.1456 64.1198 44.1282C64.2131 43.8762 64.3038 43.6178 64.4169 43.3742C64.4228 43.3613 64.4455 43.3649 64.4427 43.3806C64.3934 43.6449 64.3007 43.9104 64.1999 44.1599C64.1518 44.2789 64.1028 44.3979 64.0512 44.5157C64.0165 44.7308 63.9779 44.9444 63.9345 45.1547C63.8519 45.5551 63.4736 47.2583 63.3876 47.5462C63.3694 47.6067 63.2975 47.5929 63.302 47.5252C63.3227 47.2116 63.6399 45.4378 63.704 45.0363C63.8272 44.2651 63.9966 43.4783 64.203 42.7249C64.2078 42.7069 64.2335 42.7153 64.233 42.7321Z" fill="#263238"/>
<g id="Group_36">
<path id="Vector_76" d="M61.3139 55.4608C60.5672 55.8458 59.604 56.4422 55.2643 55.588C54.9929 55.5328 54.7202 55.4662 54.4469 55.385C50.3771 54.1625 45.4962 49.3767 45.2209 49.0393C45.2209 49.0393 51.6842 38.5586 59.9531 35.2642C60.9751 34.857 62.6672 35.6422 63.6038 36.6194C63.9384 36.9685 64.6641 39.54 64.3855 41.6241C64.1041 43.705 62.066 55.0795 61.3139 55.4608Z" fill="#FCDCCC"/>
<g id="Group_37">
<g id="Group_38">
<path id="Vector_77" d="M60.7365 41.5288C60.7603 41.7539 60.7423 41.9732 60.7149 42.191C60.6821 42.4083 60.6393 42.6242 60.5547 42.8342C60.5307 42.609 60.5486 42.3898 60.5763 42.172C60.6093 41.9547 60.6522 41.7388 60.7365 41.5288Z" fill="white"/>
</g>
<g id="Group_39">
<path id="Vector_78" d="M57.9178 48.666C57.9416 48.8911 57.9237 49.1104 57.8963 49.3285C57.8635 49.5458 57.8207 49.7617 57.7361 49.9717C57.712 49.7465 57.73 49.5273 57.7577 49.3092C57.791 49.0919 57.8336 48.876 57.9178 48.666Z" fill="white"/>
</g>
<g id="Group_40">
<path id="Vector_79" d="M53.1261 43.272C53.1499 43.4971 53.132 43.7163 53.1045 43.9342C53.0718 44.1515 53.0289 44.3673 52.9444 44.5773C52.9203 44.3522 52.9382 44.133 52.9659 43.9149C52.9993 43.6979 53.0421 43.482 53.1261 43.272Z" fill="white"/>
</g>
<g id="Group_41">
<path id="Vector_80" d="M62.5829 48.3037C62.6067 48.5288 62.5888 48.7481 62.5613 48.9659C62.5286 49.1832 62.4857 49.3991 62.4012 49.6091C62.3771 49.3839 62.395 49.1647 62.4227 48.9466C62.4558 48.7296 62.4986 48.5137 62.5829 48.3037Z" fill="white"/>
</g>
<g id="Group_42">
<path id="Vector_81" d="M56.4302 42.3461C56.6553 42.3223 56.8745 42.3402 57.0927 42.3676C57.3099 42.4004 57.5258 42.4432 57.7358 42.5278C57.5107 42.5519 57.2915 42.5339 57.0733 42.5062C56.8561 42.4732 56.6405 42.4303 56.4302 42.3461Z" fill="white"/>
</g>
<g id="Group_43">
<path id="Vector_82" d="M50.9924 47.5028C51.2176 47.479 51.4368 47.4969 51.6546 47.5243C51.8719 47.5571 52.0878 47.6 52.2978 47.6845C52.0727 47.7086 51.8534 47.6907 51.6356 47.663C51.418 47.6299 51.2024 47.5871 50.9924 47.5028Z" fill="white"/>
</g>
<g id="Group_44">
<path id="Vector_83" d="M57.3896 53.0834C57.6148 53.0596 57.834 53.0775 58.0518 53.1049C58.2691 53.1377 58.485 53.1805 58.695 53.2651C58.4699 53.2892 58.2506 53.2712 58.0328 53.2435C57.8155 53.2105 57.5996 53.1676 57.3896 53.0834Z" fill="white"/>
</g>
<g id="Group_45">
<path id="Vector_84" d="M49.3162 51.0565C49.5413 51.0327 49.7605 51.0506 49.9786 51.0781C50.1959 51.1108 50.4118 51.1537 50.6218 51.2382C50.3967 51.2623 50.1774 51.2444 49.9593 51.2167C49.742 51.1833 49.5262 51.1405 49.3162 51.0565Z" fill="white"/>
</g>
<g id="Group_46">
<path id="Vector_85" d="M60.6953 36.5126C60.9204 36.4888 61.1397 36.5067 61.3578 36.5341C61.5751 36.5669 61.7907 36.6097 62.0007 36.6943C61.7756 36.7184 61.5563 36.7004 61.3385 36.6727C61.1212 36.6394 60.9053 36.5966 60.6953 36.5126Z" fill="white"/>
</g>
<g id="Group_47">
<path id="Vector_86" d="M59.1151 38.2988C58.9726 38.4747 58.8052 38.6172 58.6316 38.7519C58.4549 38.8823 58.272 39.0047 58.0637 39.0932C58.206 38.9171 58.3737 38.7745 58.5473 38.6401C58.724 38.5099 58.9071 38.3876 59.1151 38.2988Z" fill="white"/>
</g>
<g id="Group_48">
<path id="Vector_87" d="M50.4921 43.374C50.3496 43.5499 50.1821 43.6924 50.0085 43.8271C49.8318 43.9575 49.649 44.0799 49.4407 44.1687C49.5829 43.9925 49.7506 43.85 49.9242 43.7156C50.1012 43.5851 50.284 43.4631 50.4921 43.374Z" fill="white"/>
</g>
<g id="Group_49">
<path id="Vector_88" d="M61.257 45.6665C61.1144 45.8423 60.947 45.9849 60.7734 46.1195C60.5967 46.25 60.4139 46.3724 60.2056 46.4609C60.3478 46.2847 60.5155 46.1422 60.6891 46.0078C60.8661 45.8779 61.0489 45.7555 61.257 45.6665Z" fill="white"/>
</g>
<g id="Group_50">
<path id="Vector_89" d="M54.2858 50.0562C54.1433 50.232 53.9758 50.3745 53.8022 50.5092C53.6255 50.6397 53.4427 50.762 53.2344 50.8505C53.3766 50.6744 53.5443 50.5319 53.7179 50.3975C53.8946 50.2676 54.0775 50.1452 54.2858 50.0562Z" fill="white"/>
</g>
<g id="Group_51">
<path id="Vector_90" d="M63.9284 39.6675C63.7859 39.8433 63.6184 39.9858 63.4448 40.1205C63.2682 40.251 63.0853 40.3734 62.8767 40.4618C63.0189 40.2857 63.1867 40.1432 63.3603 40.0088C63.5375 39.8786 63.7203 39.7562 63.9284 39.6675Z" fill="white"/>
</g>
<g id="Group_52">
<path id="Vector_91" d="M63.7826 44.756C63.6068 44.6135 63.4643 44.446 63.3296 44.2724C63.1991 44.0957 63.0768 43.9129 62.9883 43.7046C63.1644 43.8468 63.3069 44.0145 63.4413 44.1881C63.5712 44.3651 63.6936 44.5479 63.7826 44.756Z" fill="white"/>
</g>
<g id="Group_53">
<path id="Vector_92" d="M48.2443 48.2599C48.0685 48.1174 47.9259 47.9499 47.7913 47.7763C47.6608 47.5997 47.5384 47.4168 47.45 47.2085C47.6261 47.3507 47.7686 47.5185 47.903 47.6921C48.0332 47.8687 48.1555 48.0516 48.2443 48.2599Z" fill="white"/>
</g>
<g id="Group_54">
<path id="Vector_93" d="M61.894 52.4313C61.7182 52.2888 61.5756 52.1213 61.441 51.9477C61.3105 51.771 61.1881 51.5882 61.0994 51.3799C61.2755 51.5221 61.418 51.6898 61.5524 51.8634C61.6829 52.0401 61.805 52.2232 61.894 52.4313Z" fill="white"/>
</g>
<g id="Group_55">
<path id="Vector_94" d="M55.0534 40.545C54.8776 40.4025 54.735 40.2351 54.6004 40.0615C54.4699 39.8848 54.3475 39.702 54.259 39.4937C54.4352 39.6359 54.5777 39.8036 54.7121 39.9772C54.8423 40.1539 54.9646 40.3367 55.0534 40.545Z" fill="white"/>
</g>
<g id="Group_56">
<path id="Vector_95" d="M55.1742 54.8048C54.9984 54.6623 54.8559 54.4949 54.7212 54.3213C54.5907 54.1446 54.4684 53.9617 54.3799 53.7534C54.556 53.8957 54.6985 54.0634 54.8329 54.237C54.9628 54.4137 55.0852 54.5965 55.1742 54.8048Z" fill="white"/>
</g>
<g id="Group_57">
<path id="Vector_96" d="M56.3371 46.3927C56.1612 46.2502 56.0187 46.0827 55.884 45.9091C55.7536 45.7325 55.6312 45.5496 55.5427 45.3413C55.7188 45.4835 55.8614 45.6513 55.9958 45.8249C56.126 46.0015 56.2483 46.1844 56.3371 46.3927Z" fill="white"/>
</g>
</g>
</g>
</g>
<g id="Group_58">
<g id="Group_59">
<g id="Group_60">
<path id="Vector_97" d="M62.0836 39.4093C61.03 39.2133 60.0368 37.0324 59.912 35.5652C59.9038 35.4647 60.4053 34.6658 60.9684 33.6662C61.3078 33.0583 61.6715 32.3735 61.9582 31.7247C62.0164 31.5911 62.3617 32.0363 62.3617 32.0363L63.1118 32.6101L65.5912 34.5113C65.5912 34.5113 64.5902 35.6948 64.0974 36.8291C64.0574 36.9243 64.0277 37.0164 64.0078 37.1077C64.0039 37.1206 64.0008 37.1368 63.9944 37.1545C63.853 37.6968 63.102 39.598 62.0836 39.4093Z" fill="#EB9481"/>
</g>
<path id="Vector_98" d="M64.0076 37.1082C64.0037 37.121 64.0006 37.1373 63.9942 37.1549C63.8587 37.1168 63.7167 37.0628 63.5661 36.9922C60.8526 35.7205 62.0496 32.085 62.0496 32.085L63.1119 32.6105L65.5913 34.5117C65.5913 34.5117 64.5903 35.6953 64.0975 36.8296C64.0572 36.9248 64.0278 37.0169 64.0076 37.1082Z" fill="#263238"/>
</g>
<g id="Group_61">
<path id="Vector_99" d="M68.4373 26.7627C68.4373 26.7627 69.6768 27.5501 69.6849 28.9495C69.6931 30.3492 69.1356 31.7184 69.0062 31.7674C68.8769 31.8164 68.4373 26.7627 68.4373 26.7627Z" fill="#263238"/>
<g id="Group_62">
<path id="Vector_100" d="M62.284 27.4891C61.5387 28.9605 61.5762 33.5934 62.5072 34.7873C63.8565 36.518 66.456 37.1144 68.0249 35.4033C69.5458 33.7446 69.3899 27.7078 68.3138 26.5828C66.729 24.9257 63.3853 25.3158 62.284 27.4891Z" fill="#EB9481"/>
</g>
<g id="Group_63">
<g id="Group_64">
<path id="Vector_101" d="M66.2376 31.2012C66.2348 31.1892 66.2132 31.2166 66.214 31.2298C66.2314 31.5453 66.1981 31.9096 65.9147 32.0211C65.906 32.0244 65.9072 32.0404 65.9178 32.0387C66.265 31.9813 66.3045 31.4972 66.2376 31.2012Z" fill="#263238"/>
<path id="Vector_102" d="M65.9477 30.878C65.4389 30.8511 65.423 31.8706 65.8942 31.8955C66.3582 31.9198 66.3741 30.9004 65.9477 30.878Z" fill="#263238"/>
</g>
<g id="Group_65">
<path id="Vector_103" d="M67.9651 31.1895C67.9676 31.1775 67.9895 31.2049 67.9889 31.2178C67.9738 31.5333 68.0099 31.8973 68.2938 32.0068C68.3028 32.0102 68.3014 32.0261 68.291 32.0245C67.9433 31.9696 67.9001 31.486 67.9651 31.1895Z" fill="#263238"/>
<path id="Vector_104" d="M68.2523 30.864C68.7608 30.8334 68.7843 31.8526 68.3133 31.8809C67.8496 31.9089 67.8258 30.8894 68.2523 30.864Z" fill="#263238"/>
</g>
<path id="Vector_105" d="M65.6285 30.1019C65.768 30.0691 65.8912 30.0156 66.0256 29.9691C66.1773 29.9165 66.3036 29.8902 66.4047 29.7566C66.4587 29.685 66.4389 29.5545 66.3742 29.4951C66.2233 29.3573 66.0217 29.3755 65.8363 29.4315C65.6353 29.4923 65.4958 29.5903 65.3785 29.7639C65.2643 29.9322 65.4446 30.145 65.6285 30.1019Z" fill="#263238"/>
<path id="Vector_106" d="M68.6058 30.5537C68.4649 30.5285 68.3389 30.4818 68.2023 30.4423C68.048 30.3978 67.9203 30.3782 67.8125 30.2499C67.7546 30.181 67.7677 30.0497 67.8291 29.9873C67.9721 29.8417 68.1749 29.8492 68.3627 29.8952C68.5669 29.945 68.7113 30.0357 68.8376 30.2029C68.9603 30.3647 68.7917 30.587 68.6058 30.5537Z" fill="#263238"/>
<path id="Vector_107" d="M65.5186 34.1928C65.5931 34.2679 65.667 34.3709 65.7813 34.3824C65.891 34.3933 66.0207 34.3457 66.122 34.3082C66.1321 34.3046 66.1419 34.3152 66.1355 34.3247C66.0515 34.4446 65.8779 34.5176 65.732 34.4899C65.5895 34.4628 65.5209 34.3382 65.4881 34.2068C65.4836 34.1884 65.5077 34.1819 65.5186 34.1928Z" fill="#263238"/>
<g id="Group_66">
<path id="Vector_108" d="M67.3523 32.8431C67.3523 32.8431 67.3657 33.3157 67.3419 33.5353C67.3397 33.5557 66.7203 33.4345 66.0528 33.5815C65.9528 33.6036 65.9627 33.5221 66.078 33.4689C66.309 33.3622 66.6024 33.2623 67.1736 33.3236C67.1958 33.2645 67.1395 32.5964 67.1745 32.5975C67.2957 32.6003 67.5234 32.7079 67.6609 32.765C67.6614 31.7797 67.504 30.8025 67.5194 29.8213C67.5206 29.7863 67.5715 29.7813 67.5783 29.8135C67.8157 30.8263 67.8398 31.96 67.8655 32.9775C67.8703 33.1043 67.4363 32.8901 67.3523 32.8431Z" fill="#263238"/>
</g>
<g id="Group_67">
<path id="Vector_109" d="M66.7225 33.367C66.7225 33.367 66.5025 33.9208 66.1345 34.0695C65.7112 34.2409 65.5661 33.8576 65.9982 33.519C66.2247 33.3415 66.7225 33.367 66.7225 33.367Z" fill="#263238"/>
<path id="Vector_110" d="M66.2814 33.9833C66.2338 34.0197 66.1862 34.0505 66.133 34.0701C65.7438 34.2269 65.5898 33.9161 65.9034 33.6025C66.1165 33.6193 66.3486 33.6977 66.2814 33.9833Z" fill="#FF99BA"/>
</g>
</g>
<g id="Group_68">
<path id="Vector_111" d="M62.07 31.4527C62.5818 31.6097 63.171 30.07 63.3376 29.4781C63.4843 28.9565 63.6537 27.3014 63.6786 27.1885C63.7035 27.0757 65.9108 28.6529 67.2013 28.2758C68.4918 27.8986 69.3542 26.7405 69.3721 26.1999C69.3898 25.6595 67.7876 24.2872 66.401 24.2169C65.0145 24.1466 63.1376 25.9089 63.1376 25.9089C63.1376 25.9089 63.7752 25.1476 63.7536 25.0852C63.7321 25.0227 62.8361 25.3806 62.6714 26.0187C62.6714 26.0187 62.8487 25.2176 62.7809 25.2028C62.7132 25.1879 62.0171 25.8739 62.1742 26.3939C62.1742 26.3939 61.3689 27.0914 61.2944 27.8561C61.2196 28.621 61.4686 31.2681 62.07 31.4527Z" fill="#263238"/>
<path id="Vector_112" d="M68.1183 28.0066C67.726 28.1872 67.3329 28.3857 66.8992 28.4428C66.4304 28.5047 65.9441 28.3871 65.5078 28.2197C65.0615 28.0489 64.6561 27.8008 64.2876 27.4975C63.9648 27.2318 63.6786 26.9112 63.3339 26.6746C63.2477 26.6155 63.1477 26.7396 63.2009 26.8191C63.7242 27.6042 64.6502 28.2597 65.5426 28.5428C66.4814 28.8404 67.364 28.631 68.1233 28.0169C68.1278 28.013 68.1247 28.0035 68.1183 28.0066Z" fill="#263238"/>
</g>
<g id="Group_69">
<path id="Vector_113" d="M62.6056 31.3156C62.6056 31.3156 61.8109 29.7022 61.0941 29.9637C60.3773 30.2253 60.8186 32.4546 61.55 32.8629C62.2816 33.2711 62.6725 32.6013 62.6725 32.6013L62.6056 31.3156Z" fill="#EB9481"/>
<path id="Vector_114" d="M61.2368 30.6C61.2245 30.5969 61.2194 30.614 61.2295 30.6201C61.7397 30.9242 61.9485 31.4727 62.0687 32.0269C61.9379 31.8006 61.7343 31.6564 61.435 31.8076C61.4193 31.8155 61.4294 31.8398 61.4454 31.839C61.6755 31.8255 61.8304 31.8888 61.9536 32.0904C62.0407 32.2332 62.0891 32.4043 62.1429 32.5619C62.1608 32.6146 62.2526 32.602 62.2428 32.5432C62.242 32.5387 62.2411 32.5342 62.2403 32.5297C62.3607 31.8379 61.9709 30.7842 61.2368 30.6Z" fill="#263238"/>
</g>
</g>
</g>
<g id="Group_70">
<g id="Group_71">
<path id="Vector_115" d="M57.355 38.5159C56.8076 41.6877 60.2323 52.3759 62.4373 54.3723C65.7164 57.3411 71.7792 59.2933 73.9761 59.9283C74.9334 60.2053 77.5825 53.4676 76.614 53.0238C74.5392 52.0735 68.0936 50.0631 67.4868 49.5468C66.8801 49.0305 63.1762 43.7015 61.5296 40.6282C59.3206 36.5047 57.632 36.9115 57.355 38.5159Z" fill="#EB9481"/>
<g id="Group_72">
<path id="Vector_116" d="M74.9828 52.4312C74.9828 52.4312 77.8418 53.1597 79.689 53.7242C80.7197 54.0389 82.4383 54.7364 83.0896 55.314C84.0637 56.1781 87.5864 60.4137 86.5778 61.2901C85.6648 62.0833 83.1005 58.06 83.1005 58.06C83.1005 58.06 86.047 61.891 84.7721 62.6439C83.4973 63.3968 81.2044 58.4657 81.2044 58.4657C81.2044 58.4657 84.1435 62.4697 82.706 63.0384C81.6196 63.4679 79.2914 59.119 79.2914 59.119C79.2914 59.119 81.7938 62.5781 80.6956 63.0681C79.4821 63.6096 77.0811 59.7299 77.0811 59.7299C74.08 60.5052 72.334 59.647 71.1644 58.8885C70.8813 58.7043 74.9828 52.4312 74.9828 52.4312Z" fill="#EB9481"/>
<g id="Group_73">
<path id="Vector_117" d="M82.1664 56.6694C82.5287 57.1067 82.8986 57.5472 83.2209 58.0153C83.5431 58.4835 83.8495 58.9634 84.1267 59.4596C84.8065 60.6764 85.0422 61.5447 85.0218 61.4926C84.5396 60.2618 83.4118 58.5678 83.0895 58.0993C82.7678 57.632 82.4699 57.1487 82.1485 56.6808C82.1401 56.6691 82.1577 56.659 82.1664 56.6694Z" fill="#263238"/>
<path id="Vector_118" d="M80.4546 57.8025C81.0756 58.2947 82.3784 60.1279 82.881 61.356C82.902 61.4075 82.8743 61.4033 82.8438 61.3565C82.4501 60.7498 80.8606 58.3969 80.44 57.812C80.4336 57.8028 80.4462 57.7958 80.4546 57.8025Z" fill="#263238"/>
<path id="Vector_119" d="M78.8106 58.5109C79.5296 59.2226 80.1333 60.1942 80.6082 61.3173C80.6297 61.368 80.5891 61.3602 80.5595 61.3123C79.9796 60.3681 79.5313 59.6233 78.7809 58.5358C78.7691 58.5187 78.7938 58.4943 78.8106 58.5109Z" fill="#263238"/>
</g>
</g>
</g>
<g id="Group_74">
<path id="Vector_120" d="M60.4714 38.7493C57.9147 35.1334 56.3871 36.4737 56.8997 40.3985C57.3791 44.069 58.6657 48.4417 58.6657 48.4417L65.1172 45.3169C65.1172 45.3169 62.1075 41.0635 60.4714 38.7493Z" fill="#FCDCCC"/>
<g id="Group_75">
<g id="Group_76">
<path id="Vector_121" d="M62.0337 40.1709C62.125 40.3781 62.1751 40.5923 62.2152 40.8082C62.2502 41.0252 62.2754 41.2436 62.2589 41.4695C62.1673 41.2623 62.1172 41.0481 62.0774 40.8323C62.0427 40.615 62.0178 40.3966 62.0337 40.1709Z" fill="white"/>
</g>
<g id="Group_77">
<path id="Vector_122" d="M58.2166 42.3695C58.4238 42.2782 58.638 42.2283 58.8538 42.188C59.0708 42.153 59.2892 42.1278 59.5152 42.1443C59.308 42.2359 59.0938 42.286 58.8779 42.3258C58.6609 42.3605 58.4422 42.3854 58.2166 42.3695Z" fill="white"/>
</g>
<g id="Group_78">
<path id="Vector_123" d="M58.3829 36.7466C58.3008 36.9577 58.1849 37.1445 58.0606 37.3256C57.9321 37.5037 57.7951 37.6762 57.6238 37.824C57.7055 37.6129 57.8217 37.4259 57.9461 37.245C58.0749 37.0669 58.2118 36.8947 58.3829 36.7466Z" fill="white"/>
</g>
<g id="Group_79">
<path id="Vector_124" d="M63.8264 44.0581C63.7444 44.2689 63.6285 44.456 63.5041 44.6371C63.3756 44.8152 63.239 44.9877 63.0676 45.1355C63.1494 44.9244 63.2653 44.7374 63.3899 44.5565C63.5187 44.3787 63.6556 44.2062 63.8264 44.0581Z" fill="white"/>
</g>
<g id="Group_80">
<path id="Vector_125" d="M59.3628 46.251C59.1517 46.1689 58.965 46.053 58.7838 45.9287C58.6057 45.8002 58.4332 45.6633 58.2854 45.4922C58.4965 45.5739 58.6833 45.6899 58.8644 45.8145C59.0425 45.943 59.2147 46.0799 59.3628 46.251Z" fill="white"/>
</g>
</g>
<path id="Vector_126" d="M61.3291 39.8377C61.6724 40.3101 62.0283 40.7732 62.3828 41.2371C62.2929 41.0025 62.215 40.7653 62.1456 40.5231C62.1425 40.5119 62.1585 40.5072 62.1627 40.5178C62.2344 40.7035 62.3139 40.8866 62.3825 41.0733C62.4155 41.1632 62.4491 41.2525 62.4836 41.3419C62.4911 41.3612 62.4987 41.3802 62.5062 41.3993C62.782 41.7613 63.0567 42.1242 63.3222 42.4935C63.6388 42.9345 63.9446 43.3831 64.2518 43.8308C64.569 44.2933 64.87 44.8357 65.2052 45.2854C65.2343 45.3243 64.6342 45.5668 64.5782 45.5979C64.5208 45.6298 64.4819 45.5741 64.543 45.5556C64.5992 45.5385 65.0744 45.2465 65.0803 45.2406C64.7734 44.7892 64.4167 44.3717 64.0952 43.9305C63.7755 43.4911 63.4543 43.0529 63.1441 42.6069C62.5141 41.7008 61.9356 40.7595 61.3104 39.8495C61.3022 39.838 61.3207 39.8262 61.3291 39.8377Z" fill="#263238"/>
<path id="Vector_127" d="M57.0586 42.995C57.1566 43.186 57.2622 43.375 57.349 43.5712C57.3848 43.6524 57.4201 43.7336 57.4559 43.8148C57.3089 43.116 57.1647 42.4165 57.0216 41.7165C57.02 41.7084 57.0323 41.7042 57.0345 41.7126C57.3302 42.8458 57.629 43.9778 57.9034 45.1163C58.1652 46.2016 58.4813 47.3003 58.6311 48.4077C58.7204 48.3783 59.2224 48.1705 59.237 48.203C59.2516 48.2358 58.5807 48.5516 58.5717 48.5253C58.2066 47.4431 57.9804 46.2139 57.732 45.1C57.662 44.7864 57.5968 44.472 57.5298 44.1576C57.457 43.9683 57.3688 43.786 57.2829 43.602C57.1919 43.4074 57.1185 43.2036 57.0387 43.0042C57.034 42.9928 57.0527 42.9838 57.0586 42.995Z" fill="#263238"/>
<path id="Vector_128" d="M58.7679 47.3627C59.6642 46.8573 63.4089 44.9189 64.2467 44.5535C64.3047 44.528 64.3352 44.558 64.2781 44.5918C61.6295 46.1699 59.6942 46.9444 58.7892 47.3966C58.7668 47.4078 58.7453 47.3756 58.7679 47.3627Z" fill="#263238"/>
</g>
</g>
</g>
</g>
</g>
<g id="Folder">
<g id="Group_81">
<g id="Group_82">
<g id="Group_83">
<path id="Vector_129" d="M161.369 120.974H76.0586L88.3943 51.0161H173.704L161.369 120.974Z" fill="#FCDCCC"/>
<path id="Vector_130" d="M117.592 43.771H89.6717L88.3943 51.016H118.273L117.592 43.771Z" fill="#FCDCCC"/>
</g>
<g id="Group_84" opacity="0.1">
<path id="Vector_131" d="M161.369 120.974H76.0586L88.3943 51.0161H173.704L161.369 120.974Z" fill="black"/>
<path id="Vector_132" d="M117.592 43.771H89.6717L88.3943 51.016H118.273L117.592 43.771Z" fill="black"/>
</g>
</g>
<g id="Group_85">
<g id="Group_86">
<path id="Vector_133" d="M86.6593 46.7266C86.549 46.3206 86.524 45.9143 86.5193 45.5083C86.5232 45.102 86.5481 44.696 86.6593 44.29C86.7702 44.696 86.7951 45.1023 86.7993 45.5083C86.7945 45.9146 86.7696 46.3206 86.6593 46.7266Z" fill="#263238"/>
</g>
<g id="Group_87">
<path id="Vector_134" d="M84.1782 47.4441C83.8795 47.1475 83.6549 46.8082 83.448 46.459C83.2484 46.1054 83.0669 45.7411 82.96 45.334C83.2593 45.6302 83.4838 45.9696 83.6902 46.319C83.8893 46.6729 84.071 47.0372 84.1782 47.4441Z" fill="#263238"/>
</g>
<g id="Group_88">
<path id="Vector_135" d="M82.3884 49.3062C81.9816 49.1987 81.6173 49.0172 81.2634 48.8181C80.9136 48.6115 80.5743 48.3869 80.2783 48.0879C80.6854 48.1949 81.0497 48.3763 81.4034 48.5759C81.7525 48.7831 82.0919 49.0074 82.3884 49.3062Z" fill="#263238"/>
</g>
<g id="Group_89">
<path id="Vector_136" d="M81.7693 51.8133C81.3633 51.9237 80.957 51.9486 80.551 51.9533C80.145 51.9491 79.7388 51.9245 79.3328 51.8133C79.7388 51.7025 80.145 51.6775 80.551 51.6733C80.957 51.6781 81.363 51.703 81.7693 51.8133Z" fill="#263238"/>
</g>
<g id="Group_90">
<path id="Vector_137" d="M82.4868 54.2944C82.1903 54.5932 81.8509 54.8178 81.5018 55.0247C81.1481 55.2243 80.7838 55.4058 80.3767 55.5127C80.6729 55.2137 81.0123 54.9891 81.3618 54.7825C81.7157 54.5834 82.08 54.4017 82.4868 54.2944Z" fill="#263238"/>
</g>
<g id="Group_91">
<path id="Vector_138" d="M84.3486 56.084C84.2411 56.4908 84.0597 56.8551 83.8606 57.209C83.654 57.5587 83.4294 57.8981 83.1304 58.1941C83.2373 57.7869 83.4188 57.4227 83.6184 57.069C83.8253 56.7199 84.0499 56.3805 84.3486 56.084Z" fill="#263238"/>
</g>
<g id="Group_92">
<path id="Vector_139" d="M86.8558 56.7031C86.9661 57.1094 86.9911 57.5154 86.9958 57.9214C86.9916 58.3274 86.967 58.7337 86.8558 59.1397C86.7447 58.7337 86.72 58.3274 86.7158 57.9214C86.7206 57.5154 86.7455 57.1094 86.8558 56.7031Z" fill="#263238"/>
</g>
<g id="Group_93">
<path id="Vector_140" d="M89.3369 55.9858C89.6357 56.2824 89.86 56.6217 90.0672 56.9709C90.2668 57.3245 90.4482 57.6888 90.5552 58.0959C90.2559 57.7997 90.0316 57.4603 89.825 57.1109C89.6259 56.7567 89.4444 56.3927 89.3369 55.9858Z" fill="#263238"/>
</g>
<g id="Group_94">
<path id="Vector_141" d="M91.1267 54.124C91.5335 54.2315 91.8978 54.413 92.2518 54.6121C92.6015 54.8187 92.9408 55.0433 93.2368 55.3423C92.8297 55.2353 92.4654 55.0539 92.1118 54.8543C91.7626 54.6473 91.4232 54.4228 91.1267 54.124Z" fill="#263238"/>
</g>
<g id="Group_95">
<path id="Vector_142" d="M91.7461 51.6166C92.1521 51.5062 92.5584 51.4813 92.9644 51.4766C93.3704 51.4808 93.7767 51.5054 94.1827 51.6166C93.7764 51.7274 93.3704 51.7524 92.9644 51.7566C92.5581 51.7518 92.1521 51.7272 91.7461 51.6166Z" fill="#263238"/>
</g>
<g id="Group_96">
<path id="Vector_143" d="M91.0283 49.1358C91.3248 48.837 91.6642 48.6124 92.0134 48.4055C92.367 48.2062 92.7313 48.0244 93.1384 47.9175C92.8422 48.2165 92.5028 48.4411 92.1534 48.6477C91.7994 48.8468 91.4352 49.0282 91.0283 49.1358Z" fill="#263238"/>
</g>
<g id="Group_97">
<path id="Vector_144" d="M89.1667 47.3459C89.2743 46.9391 89.4557 46.5748 89.6548 46.2209C89.8614 45.8712 90.086 45.5318 90.385 45.2358C90.2781 45.643 90.0966 46.0072 89.897 46.3609C89.6898 46.71 89.4652 47.0494 89.1667 47.3459Z" fill="#263238"/>
</g>
</g>
<path id="Vector_145" d="M161.244 120.974H75.7499L63.6116 53.5557H149.105L161.244 120.974Z" fill="#FCDCCC"/>
<g id="Group_98">
<path id="Vector_146" d="M93.2371 94.7696C95.1996 94.7696 96.7906 93.1786 96.7906 91.2161C96.7906 89.2535 95.1996 87.6626 93.2371 87.6626C91.2745 87.6626 89.6836 89.2535 89.6836 91.2161C89.6836 93.1786 91.2745 94.7696 93.2371 94.7696Z" fill="#263238"/>
<path id="Vector_147" d="M121.328 94.7696C123.291 94.7696 124.882 93.1786 124.882 91.2161C124.882 89.2535 123.291 87.6626 121.328 87.6626C119.366 87.6626 117.775 89.2535 117.775 91.2161C117.775 93.1786 119.366 94.7696 121.328 94.7696Z" fill="#263238"/>
<path id="Vector_148" d="M112.387 95.337L112.192 94.9649C112.174 94.9313 110.338 91.5382 106.645 91.5382C103.276 91.5382 102.455 94.733 102.421 94.8688L102.322 95.276L101.507 95.0791L101.605 94.6717C101.614 94.632 102.606 90.6982 106.645 90.6982C110.855 90.6982 112.853 94.4166 112.936 94.5751L113.131 94.947L112.387 95.337Z" fill="#263238"/>
</g>
</g>
</g>
<g id="Fly">
<g id="Group_99">
<g id="Group_100">
<g id="Group_101">
<path id="Vector_149" d="M155.57 90.8079C155.752 90.7687 155.934 90.7259 156.115 90.6797" stroke="#263238" stroke-miterlimit="10"/>
<path id="Vector_150" d="M157.19 90.3613C161.473 88.9151 165.06 85.5459 165.397 81.6096C166.141 72.9296 155.57 68.1349 156.662 58.1047C157.704 48.5369 167.739 47.8542 171.762 49.1767C176.206 50.6374 174.683 54.9083 170.66 54.3572C163.685 53.4019 159.301 45.8192 162.614 37.2176C165.089 30.7913 171.258 28.3676 173.765 27.6284" stroke="#263238" stroke-miterlimit="10" stroke-dasharray="4 4"/>
<path id="Vector_151" d="M174.304 27.4791C174.651 27.3898 174.849 27.3525 174.849 27.3525" stroke="#263238" stroke-miterlimit="10"/>
</g>
</g>
<g id="Group_102">
<path id="Vector_152" d="M179.289 25.8059C178.575 23.5928 173.792 24.388 174.726 27.2793C175.66 30.1709 180.004 28.0191 179.289 25.8059Z" fill="#263238"/>
<g id="Group_103">
<path id="Vector_153" d="M172.125 24.9137C172.161 23.9432 173.511 23.1965 175.419 23.5409C177.328 23.8856 179.126 25.171 179.126 25.171C179.126 25.171 177.238 26.3255 175.31 26.529C173.381 26.7329 172.089 25.889 172.125 24.9137Z" fill="#EBEBEB"/>
<g id="Group_104">
<path id="Vector_154" d="M179.126 25.1708C178.135 25.1775 177.145 25.1445 176.155 25.1142C175.166 25.0719 174.177 25.0327 173.189 24.9527C174.18 24.9454 175.169 24.979 176.159 25.0092C177.148 25.0518 178.138 25.0913 179.126 25.1708Z" fill="#263238"/>
<path id="Vector_155" d="M174.043 24.0542C174.33 24.1824 174.595 24.3451 174.862 24.5047C175.122 24.675 175.385 24.8424 175.625 25.0443C175.338 24.9163 175.073 24.7536 174.806 24.5935C174.546 24.4235 174.284 24.2561 174.043 24.0542Z" fill="#263238"/>
<path id="Vector_156" d="M176.638 25.0796C176.387 25.2927 176.114 25.4716 175.843 25.6533C175.565 25.8247 175.29 25.9991 174.992 26.1388C175.243 25.9257 175.515 25.7466 175.786 25.5651C176.064 25.3938 176.34 25.2199 176.638 25.0796Z" fill="#263238"/>
<path id="Vector_157" d="M176.926 24.5332C177.073 24.5968 177.196 24.6917 177.32 24.7844C177.437 24.8863 177.556 24.9857 177.649 25.117C177.501 25.0537 177.379 24.9585 177.255 24.8658C177.138 24.7636 177.019 24.664 176.926 24.5332Z" fill="#263238"/>
</g>
</g>
<g id="Group_105">
<path id="Vector_158" d="M173.943 30.6743C174.54 31.4407 176.072 31.2567 177.419 29.8612C178.765 28.4654 179.472 26.3716 179.472 26.3716C179.472 26.3716 177.266 26.5387 175.582 27.5017C173.898 28.4643 173.344 29.9043 173.943 30.6743Z" fill="#EBEBEB"/>
<g id="Group_106">
<path id="Vector_159" d="M179.471 26.3711C178.664 26.9451 177.88 27.5507 177.095 28.1541C176.318 28.7671 175.538 29.3775 174.784 30.0198C175.592 29.4461 176.375 28.8401 177.16 28.2367C177.937 27.6238 178.717 27.0134 179.471 26.3711Z" fill="#263238"/>
<path id="Vector_160" d="M176.002 30.2489C176.159 29.9771 176.279 29.6903 176.403 29.4045C176.514 29.1141 176.629 28.8249 176.706 28.5205C176.549 28.7921 176.428 29.0791 176.305 29.365C176.194 29.6553 176.079 29.9446 176.002 30.2489Z" fill="#263238"/>
<path id="Vector_161" d="M177.507 27.9005C177.179 27.8744 176.853 27.8887 176.527 27.8996C176.201 27.9229 175.875 27.943 175.552 28.0038C175.88 28.0301 176.206 28.0158 176.532 28.0046C176.858 27.9811 177.183 27.9607 177.507 27.9005Z" fill="#263238"/>
<path id="Vector_162" d="M178.06 28.1752C178.143 28.0371 178.187 27.8884 178.234 27.7406C178.269 27.5894 178.307 27.4393 178.306 27.2783C178.223 27.4164 178.179 27.565 178.133 27.7129C178.098 27.8641 178.059 28.0144 178.06 28.1752Z" fill="#263238"/>
</g>
</g>
<path id="Vector_163" d="M179.289 25.8062C178.848 25.9484 178.375 25.7065 178.233 25.2655C178.091 24.8245 178.333 24.3518 178.774 24.2093C179.214 24.0668 179.687 24.309 179.83 24.75C179.972 25.191 179.73 25.6639 179.289 25.8062Z" fill="#455A64"/>
<path id="Vector_164" d="M179.805 27.4027C179.364 27.545 178.891 27.3031 178.749 26.8621C178.606 26.4211 178.848 25.9484 179.289 25.8059C179.73 25.6637 180.203 25.9056 180.345 26.3466C180.488 26.7873 180.246 27.2602 179.805 27.4027Z" fill="#455A64"/>
</g>
</g>
</g>
<g id="Speech_Bubble">
<g id="Group_107">
<g id="Group_108">
<path id="Vector_165" d="M88.0078 26.6901C87.6068 30.523 84.1729 33.3065 80.3402 32.9055C78.7913 32.7434 77.4142 32.086 76.348 31.104L72.8567 31.6164L74.6036 28.598C74.1797 27.5668 74.0013 26.4191 74.1248 25.2377C74.5258 21.4048 77.9597 18.6213 81.7923 19.0223C85.625 19.4233 88.4084 22.8572 88.0078 26.6901Z" fill="white"/>
<path id="Vector_166" d="M88.0078 26.69C87.8619 27.964 87.3963 29.2128 86.5994 30.2275C86.4163 30.4932 86.1805 30.7153 85.9669 30.9558C85.7244 31.1669 85.4982 31.3988 85.2305 31.5794C84.7201 31.9725 84.1463 32.2808 83.5471 32.5168C82.9505 32.768 82.3084 32.8878 81.6683 32.9648C81.3455 32.9822 81.0221 33.0116 80.6987 32.9833C80.3747 32.976 80.0519 32.9413 79.733 32.8828C78.4559 32.6515 77.2463 32.0537 76.2803 31.1781L76.3629 31.2036L72.8749 31.739L72.6218 31.7779L72.7501 31.5547L74.4866 28.5304L74.4785 28.6497C73.6326 26.6578 73.8233 24.2856 74.9083 22.4295C75.4493 21.5002 76.2036 20.6994 77.094 20.1022C77.9838 19.5032 79.0159 19.1278 80.0723 18.9847C81.1299 18.8444 82.2183 18.9407 83.2282 19.2762C84.2368 19.6158 85.1616 20.187 85.9196 20.9265C87.4599 22.3912 88.2343 24.5886 88.0078 26.69ZM88.0078 26.69C88.2201 24.5869 87.4302 22.4029 85.8888 20.9578C85.1235 20.2352 84.197 19.6878 83.1974 19.37C82.1961 19.0566 81.1251 18.9819 80.0936 19.1373C79.0629 19.2955 78.0647 19.6794 77.2113 20.2758C76.3601 20.8736 75.6419 21.6553 75.1233 22.5533C74.5944 23.4493 74.3206 24.4758 74.2377 25.5062C74.1725 26.5399 74.341 27.5863 74.7288 28.5464L74.754 28.6088L74.7207 28.666L72.9637 31.6782L72.8388 31.494L76.3335 31.0045L76.3817 30.9978L76.4161 31.03C77.3398 31.8972 78.5088 32.5025 79.7579 32.7514C80.0698 32.8144 80.3862 32.8539 80.7046 32.8665C81.0224 32.9001 81.3407 32.8766 81.6597 32.8651C82.2916 32.8002 82.9286 32.6932 83.5236 32.4546C84.1209 32.2309 84.6982 31.9378 85.207 31.5474C85.4747 31.3696 85.7009 31.1409 85.9439 30.9323C86.1581 30.6946 86.3947 30.475 86.5787 30.2116C87.3792 29.2058 87.8533 27.9632 88.0078 26.69Z" fill="#263238"/>
</g>
<g id="Group_109">
<path id="Vector_167" d="M77.6545 29.2178C77.6545 28.8012 77.9438 28.5002 78.3372 28.5002C78.7538 28.5002 79.0201 28.8012 79.0201 29.2178C79.0201 29.623 78.7538 29.9352 78.3372 29.9352C77.9323 29.9352 77.6545 29.6227 77.6545 29.2178ZM77.9438 27.5627L77.7817 22.0078H78.8927L78.7306 27.5627H77.9438Z" fill="#FCDCCC"/>
<path id="Vector_168" d="M80.3164 29.2178C80.3164 28.8012 80.6056 28.5002 80.9993 28.5002C81.416 28.5002 81.6822 28.8012 81.6822 29.2178C81.6822 29.623 81.416 29.9352 80.9993 29.9352C80.5942 29.9352 80.3164 29.6227 80.3164 29.2178ZM80.6056 27.5627L80.4438 22.0078H81.5548L81.393 27.5627H80.6056Z" fill="#FCDCCC"/>
<path id="Vector_169" d="M82.9785 29.2178C82.9785 28.8012 83.2678 28.5002 83.6614 28.5002C84.0781 28.5002 84.3441 28.8012 84.3441 29.2178C84.3441 29.623 84.0778 29.9352 83.6614 29.9352C83.2563 29.9352 82.9785 29.6227 82.9785 29.2178ZM83.268 27.5627L83.1059 22.0078H84.217L84.0551 27.5627H83.268Z" fill="#FCDCCC"/>
</g>
</g>
</g>
</g>
</svg>
