<svg width="20" height="16" viewBox="0 0 20 16" fill="none" xmlns="http://www.w3.org/2000/svg">
<path d="M19 7.00078H15.06C14.9903 6.99131 14.9197 6.99131 14.85 7.00078H14.68C14.6277 7.0306 14.5776 7.06401 14.53 7.10078C14.4743 7.13755 14.4209 7.17762 14.37 7.22078C14.3366 7.26167 14.3065 7.30514 14.28 7.35078C14.2342 7.41377 14.194 7.4807 14.16 7.55078L12.56 11.9608L8.39 0.660779C8.31993 0.467728 8.19212 0.300932 8.02394 0.183059C7.85577 0.0651863 7.65537 0.00195313 7.45 0.00195312C7.24463 0.00195313 7.04423 0.0651863 6.87605 0.183059C6.70788 0.300932 6.58007 0.467728 6.51 0.660779L4.2 7.00078H1C0.734784 7.00078 0.48043 7.10614 0.292893 7.29367C0.105357 7.48121 0 7.73556 0 8.00078C0 8.266 0.105357 8.52035 0.292893 8.70789C0.48043 8.89542 0.734784 9.00078 1 9.00078H4.92H5.15H5.3C5.35684 8.97341 5.4105 8.93988 5.46 8.90078C5.51568 8.86401 5.56911 8.82394 5.62 8.78078L5.71 8.65078C5.75766 8.58902 5.79794 8.5219 5.83 8.45078L7.45 3.92078L11.61 15.3408C11.6799 15.534 11.8076 15.7011 11.9758 15.8192C12.144 15.9373 12.3445 16.0007 12.55 16.0008C12.7555 16.0007 12.956 15.9373 13.1242 15.8192C13.2924 15.7011 13.4201 15.534 13.49 15.3408L15.79 9.00078H19C19.2652 9.00078 19.5196 8.89542 19.7071 8.70789C19.8946 8.52035 20 8.266 20 8.00078C20 7.73556 19.8946 7.48121 19.7071 7.29367C19.5196 7.10614 19.2652 7.00078 19 7.00078Z" fill="#3662D4"/>
</svg>
