<svg width="92" height="91" viewBox="0 0 92 91" fill="none" xmlns="http://www.w3.org/2000/svg">
<g id="Group 1000004091">
<rect id="Rectangle 943" width="92" height="91" rx="12" fill="white"/>
<g id="Group 1000004090">
<g id="OBJECTS">
<g id="Group">
<g id="Group_2">
<g id="Group_3">
<path id="Vector" d="M79.8865 56.1578C78.6926 53.4421 76.3997 51.1761 73.6455 50.0607C70.7767 48.899 67.4827 49.3219 64.461 48.9327C61.8367 48.5948 59.9431 47.4232 58.3761 45.3402C56.8747 43.3443 55.5284 41.134 53.0735 40.2108C51.1338 39.4813 48.9284 39.6835 47.0005 40.4437C43.4481 41.8443 40.7649 44.8226 38.5052 47.7896C36.442 50.4986 34.7591 53.4649 30.9429 53.5617C27.1243 53.6585 23.4889 51.4803 19.644 52.0574C14.5624 52.8203 10.3305 57.0505 9.44367 62.0867C8.61256 66.8066 10.6981 71.3844 14.281 74.0741H75.8652C80.3799 69.2847 82.749 62.6686 79.8865 56.1578Z" fill="#F7F0E3"/>
<g id="Group_4">
<path id="Vector_2" d="M24.2153 74.074H24.3847C25.5612 72.7809 26.4828 71.2118 27.0687 69.47C28.0169 66.6508 27.977 63.6922 26.9561 61.1391C26.4402 59.8488 25.6952 58.6463 24.9748 57.4834C24.2441 56.304 23.4886 55.0844 22.9758 53.7776C22.7638 53.2372 22.6072 52.657 22.513 52.0651C22.4705 52.0595 22.428 52.055 22.3855 52.0498C22.4802 52.6629 22.6412 53.2638 22.8605 53.8228C23.3774 55.1402 24.1359 56.3645 24.8695 57.5486C25.5871 58.707 26.3292 59.9049 26.8411 61.185C27.851 63.7109 27.8901 66.6391 26.9512 69.4305C26.3582 71.1939 25.4173 72.7777 24.2153 74.074Z" fill="white"/>
<path id="Vector_3" d="M75.5676 68.7032C76.8365 68.9736 78.0593 69.2161 79.2418 69.3686C79.2621 69.3295 79.2818 69.2903 79.3018 69.2511C78.1094 69.0995 76.8753 68.8551 75.5935 68.582C73.6418 68.1662 71.5294 67.7162 69.4343 67.7162C68.1371 67.7162 66.8466 67.8887 65.6051 68.3488C65.1347 68.523 64.6815 68.7441 64.25 69.0075C63.1291 68.5298 62.0022 68.0082 60.8858 67.4357C61.6959 66.8254 62.5144 66.2279 63.3417 65.6502C69.4832 61.3618 75.1509 58.9306 80.6267 58.2405C80.6157 58.2004 80.6042 58.1603 80.5928 58.1202C75.1025 58.8159 69.4223 61.2532 63.2709 65.5486C62.426 66.1386 61.5902 66.7492 60.7636 67.3727C59.5082 66.7241 58.2679 66.0113 57.0673 65.2247C54.89 63.798 52.3 61.7615 50.0381 59.0557C58.8033 58.0723 67.7274 56.8333 75.015 51.9627C75.2918 51.7778 75.5984 51.5596 75.9159 51.3123C75.8808 51.2873 75.8453 51.2627 75.8098 51.2382C75.5055 51.4739 75.212 51.6821 74.9462 51.8597C67.6605 56.7291 58.7199 57.9586 49.9432 58.9418C48.3449 57.0085 46.9168 54.7376 45.9244 52.1087C44.3785 48.0137 44.4601 43.995 46.1483 41.0832C46.2217 40.9567 46.2991 40.8322 46.3789 40.709C46.3083 40.7413 46.2385 40.7749 46.1687 40.8085C46.1252 40.8789 46.0826 40.9496 46.0411 41.021C44.3342 43.9652 44.2493 48.0224 45.8085 52.1524C46.7956 54.7671 48.2109 57.029 49.7963 58.9581C49.2882 59.0149 48.78 59.071 48.2734 59.1269C46.4458 59.3286 44.5559 59.5373 42.7207 59.7735C42.0509 59.8597 41.3697 59.9603 40.6919 60.0863C39.2389 57.0197 37.6428 54.0279 35.5796 51.4623C35.5501 51.4917 35.52 51.5202 35.4903 51.5492C37.5358 54.0954 39.122 57.0648 40.5661 60.11C37.6098 60.6738 34.7391 61.7337 33.2063 64.2007C31.7748 66.5046 31.7761 69.6892 33.2102 73.6663C33.2598 73.8037 33.3108 73.9394 33.3627 74.0741H33.4953C33.4385 73.9268 33.3821 73.7779 33.3267 73.6242C31.9061 69.6846 31.9011 66.5362 33.3116 64.266C34.8261 61.8284 37.6811 60.7827 40.6209 60.2256C41.1339 61.3107 41.6294 62.4047 42.1219 63.4919L42.1755 63.6102C43.8857 67.3858 45.6547 71.0294 47.9709 74.0741H48.1254C45.7882 71.0238 44.0093 67.3583 42.2883 63.5592L42.2347 63.4409C41.7465 62.3628 41.2551 61.2782 40.7468 60.2022C41.4115 60.0793 42.0796 59.9809 42.7367 59.8964C44.5707 59.6603 46.4599 59.4517 48.2871 59.2501C48.8206 59.1912 49.3554 59.1322 49.8907 59.0723C52.1741 61.8205 54.7971 63.8852 56.9994 65.3283C58.1869 66.1063 59.4132 66.8124 60.6541 67.4555C58.5475 69.0489 56.4983 70.7253 54.4977 72.3622C53.8049 72.929 53.1041 73.5017 52.3978 74.0741H52.5942C53.2604 73.5336 53.922 72.9931 54.576 72.458C56.5909 70.8098 58.6545 69.1214 60.7762 67.5186C61.8863 68.0897 63.0069 68.6104 64.1218 69.0874C62.5964 70.0575 61.3534 71.5596 60.6017 73.3837C60.5076 73.6121 60.4255 73.8427 60.3494 74.0741H60.4797C60.5516 73.8586 60.6285 73.6437 60.7163 73.4309C61.47 71.6018 62.7235 70.1011 64.2605 69.1466C67.3771 70.4706 70.4402 71.4535 73.0722 72.2323L73.1713 72.2615C74.2805 72.5895 75.4149 72.9256 76.4183 73.4654C76.4464 73.4334 76.4746 73.4016 76.5025 73.3694C75.4827 72.8161 74.3315 72.4754 73.2064 72.1427L73.1074 72.1135C70.5021 71.3426 67.4742 70.3717 64.3909 69.0673C64.7926 68.8282 65.2131 68.6262 65.6483 68.4649C68.8612 67.2742 72.4242 68.0335 75.5676 68.7032Z" fill="white"/>
<path id="Vector_4" d="M14.5914 60.6817C15.1384 62.9206 14.8944 65.3385 13.9218 67.3156C13.2849 68.6106 12.365 69.7829 11.2319 70.7897C11.2545 70.8248 11.2775 70.8595 11.3004 70.8944C12.4518 69.8743 13.3864 68.6849 14.033 67.3703C15.0182 65.3675 15.2656 62.9189 14.7117 60.6523C14.279 58.8813 13.4091 57.3812 12.2073 56.2959C12.1805 56.3274 12.1539 56.3591 12.1275 56.3909C13.3093 57.4594 14.1651 58.9368 14.5914 60.6817Z" fill="white"/>
</g>
</g>
<path id="Vector_5" d="M42.6198 32.3193C43.6986 33.4217 44.1822 35.2789 43.5873 36.9912C43.0114 38.6492 41.7488 40.0225 40.2318 40.9054C39.0113 41.6158 37.4192 42.0076 36.2189 41.2637C35.3219 40.7079 34.8567 39.6173 34.8309 38.5623C34.805 37.5073 35.1598 36.4792 35.5983 35.5194C36.2164 34.1663 37.0482 32.8543 38.2875 32.0315C39.9957 30.8974 41.5828 31.2596 42.6198 32.3193Z" fill="#F7F0E3"/>
</g>
<g id="Group_5">
<path id="Vector_6" d="M28.3194 12.9908H19.3861V9H28.3194V12.9908ZM19.5719 12.8051H28.1337V9.18576H19.5719V12.8051Z" fill="#E9DDCA"/>
<path id="Vector_7" d="M22.5078 16.8072H13.5745V12.8164H22.5078V16.8072ZM13.7602 16.6215H22.322V13.0022H13.7602V16.6215Z" fill="#E9DDCA"/>
</g>
<g id="Group_6">
<g id="Group_7">
<path id="Vector_8" d="M79.1482 21.0601C78.5698 19.1367 77.5524 17.3708 76.096 15.7563C74.6366 14.1418 72.6462 12.809 70.1249 11.755C67.6036 10.7008 64.4 10.1738 60.5142 10.1738C57.4145 10.1738 54.2554 10.5918 51.037 11.4278C47.8157 12.2669 45.0215 13.4603 42.6514 15.0112L45.7363 23.4808L44.083 24.8202L46.4809 25.5249C48.8479 24.286 51.0044 23.3864 52.9503 22.826C54.8932 22.2687 56.9577 21.99 59.1468 21.99C61.3329 21.99 62.9881 22.5171 64.1123 23.5711C65.2365 24.6283 65.7971 25.8974 65.7971 27.3877C65.7971 29.1869 65.2186 30.7832 64.0677 32.1796C62.9109 33.576 61.6354 34.9875 60.2383 36.4142C59.2683 37.4047 58.3251 38.4285 57.4144 39.4826C56.5038 40.5397 55.697 41.6696 54.9999 42.8812C54.2999 44.0897 53.7393 45.3922 53.3151 46.7886C52.8879 48.185 52.6774 49.7509 52.6774 51.4866C52.6774 52.0469 52.6892 52.7134 52.7218 53.4888C52.7273 53.6319 52.7348 53.7713 52.7434 53.909H50.4764L52.9503 55.5818H64.9784C64.9161 55.2093 64.8865 54.7761 64.8865 54.2793C64.8865 53.7826 64.8865 53.41 64.8865 53.1617C64.8865 52.1075 65.1 51.0686 65.5243 50.0448C65.9485 49.021 66.4824 48.0457 67.1201 47.1127C67.7579 46.1828 68.4698 45.2983 69.2618 44.4623C70.0508 43.6233 70.8102 42.8327 71.5399 42.0876C72.5098 41.0971 73.5125 40.043 74.5447 38.9253C75.577 37.8076 76.4906 36.6323 77.2796 35.3905C78.0686 34.1486 78.7212 32.8007 79.2373 31.3407C79.7534 29.8837 80.0145 28.2874 80.0145 26.5487C80.0144 24.813 79.7237 22.9835 79.1482 21.0601Z" fill="#E49B31"/>
<path id="Vector_9" d="M56.6002 21.3985C54.4368 21.3985 52.3965 21.6681 50.4764 22.2075C48.5534 22.7499 46.4222 23.6205 44.0829 24.8195L40.2984 14.6444C42.6406 13.1435 45.402 11.9886 48.5856 11.1765C51.7662 10.3675 54.8882 9.96289 57.9516 9.96289C61.7918 9.96289 64.9578 10.473 67.4495 11.4931C69.9412 12.5133 71.9082 13.8031 73.3505 15.3655C74.7898 16.928 75.7953 18.637 76.3669 20.4985C76.9356 22.36 77.2229 24.1306 77.2229 25.8103C77.2229 27.4929 76.9649 29.0378 76.4549 30.4479C75.9448 31.8608 75.2999 33.1653 74.5201 34.3672C73.7404 35.5691 72.8375 36.7065 71.8174 37.7882C70.7972 38.8699 69.8064 39.8901 68.8478 40.8486C68.1266 41.5698 67.3762 42.3349 66.5964 43.1469C65.8137 43.956 65.1102 44.812 64.4799 45.7119C63.8496 46.6148 63.322 47.5587 62.9028 48.5495C62.4836 49.5404 62.2725 50.5458 62.2725 51.566C62.2725 51.8064 62.2725 52.167 62.2725 52.6477C62.2725 53.1285 62.3018 53.5477 62.3634 53.9082H50.4764C50.3533 53.3073 50.28 52.633 50.2507 51.8826C50.2184 51.1322 50.2067 50.4872 50.2067 49.9449C50.2067 48.2652 50.4148 46.7497 50.8369 45.3983C51.2561 44.0469 51.8102 42.7863 52.502 41.6167C53.1909 40.4441 53.9882 39.3507 54.8882 38.3276C55.7882 37.3075 56.7203 36.3166 57.6789 35.3581C59.0597 33.9773 60.3202 32.6113 61.4634 31.2599C62.6008 29.9085 63.1725 28.3636 63.1725 26.6223C63.1725 25.18 62.6184 23.9518 61.5074 22.9287C60.3964 21.9085 58.7607 21.3985 56.6002 21.3985Z" fill="#FBC343"/>
</g>
<g id="Group_8">
<path id="Vector_10" d="M65.8016 67.2557C65.8016 69.4243 65.0996 71.0976 63.6955 72.2781C62.2915 73.461 60.7047 74.05 58.9328 74.05C57.1586 74.05 55.5718 73.461 54.1677 72.2781C52.7661 71.0977 52.0641 69.4243 52.0641 67.2557C52.0641 65.0896 52.7661 63.4163 54.1678 62.2334C56.329 60.4095 59.5264 60.0031 62.0568 61.2832C64.3022 62.4191 65.8016 64.7258 65.8016 67.2557Z" fill="#E49B31"/>
<path id="Vector_11" d="M63.4486 67.2562C63.4486 69.4248 62.7466 71.098 61.3426 72.2785C59.9385 73.4614 58.3518 74.0504 56.5799 74.0504C54.8056 74.0504 53.2188 73.4614 51.8148 72.2785C50.4131 71.0981 49.7111 69.4248 49.7111 67.2562C49.7111 65.09 50.4131 63.4167 51.8148 62.2338C53.2188 61.0534 54.8055 60.4619 56.5799 60.4619C58.3518 60.4619 59.9385 61.0533 61.3426 62.2338C62.7466 63.4167 63.4486 65.09 63.4486 67.2562Z" fill="#FBC343"/>
</g>
</g>
<g id="Group_9">
<g id="Group_10">
<path id="Vector_12" d="M27.8395 36.5116C27.9713 35.8084 27.5081 35.1316 26.8049 34.9998C26.1017 34.868 25.4248 35.3312 25.2931 36.0344C25.1613 36.7376 25.6245 37.4144 26.3277 37.5462C27.0308 37.678 27.7077 37.2148 27.8395 36.5116Z" fill="#D3DFFF"/>
<path id="Vector_13" d="M28.4592 38.9477C28.5333 38.5522 28.2705 38.1711 27.8722 38.0965C27.4739 38.0218 27.091 38.2819 27.0168 38.6774C26.9427 39.0729 27.2055 39.4541 27.6038 39.5287C28.0021 39.6034 28.3851 39.3432 28.4592 38.9477Z" fill="#D3DFFF"/>
<g id="Group_11">
<path id="Vector_14" d="M26.9759 33.3593C28.9677 31.3676 28.9677 28.1383 26.9759 26.1465C24.9841 24.1548 21.7548 24.1548 19.7631 26.1465C17.7713 28.1383 17.7713 31.3676 19.7631 33.3593C21.7548 35.3511 24.9841 35.3511 26.9759 33.3593Z" fill="#D3DFFF"/>
<g id="Group_12">
<path id="Vector_15" d="M21.4115 30.3955C21.7664 30.3955 22.0541 30.1078 22.0541 29.7529C22.0541 29.398 21.7664 29.1104 21.4115 29.1104C21.0566 29.1104 20.7689 29.398 20.7689 29.7529C20.7689 30.1078 21.0566 30.3955 21.4115 30.3955Z" fill="white"/>
<path id="Vector_16" d="M23.3699 30.3955C23.7248 30.3955 24.0125 30.1078 24.0125 29.7529C24.0125 29.398 23.7248 29.1104 23.3699 29.1104C23.015 29.1104 22.7273 29.398 22.7273 29.7529C22.7273 30.1078 23.015 30.3955 23.3699 30.3955Z" fill="white"/>
<path id="Vector_17" d="M25.3283 30.3955C25.6832 30.3955 25.9709 30.1078 25.9709 29.7529C25.9709 29.398 25.6832 29.1104 25.3283 29.1104C24.9734 29.1104 24.6857 29.398 24.6857 29.7529C24.6857 30.1078 24.9734 30.3955 25.3283 30.3955Z" fill="white"/>
</g>
</g>
</g>
<g id="Group_13">
<g id="Group_14">
<g id="Group_15">
<path id="Vector_18" d="M19.7163 71.4969L20.1929 73.3341C20.3172 73.8132 20.7804 74.1369 21.2929 74.1021C22.8554 73.9959 26.1019 73.6131 27.9652 72.2397L27.4355 69.592C24.8736 69.4473 22.4777 69.5898 20.4031 70.2882C19.8837 70.4631 19.5832 70.9838 19.7163 71.4969Z" fill="#102048"/>
<path id="Vector_19" d="M22.7024 72.9588C22.6753 72.9588 22.6504 72.9409 22.6428 72.9135L22.0029 70.6225C21.9937 70.5896 22.013 70.5554 22.0459 70.5462C22.079 70.5371 22.113 70.5563 22.1222 70.5892L22.7621 72.8803C22.7713 72.9132 22.752 72.9473 22.7191 72.9565C22.7135 72.9581 22.7079 72.9588 22.7024 72.9588Z" fill="white"/>
<path id="Vector_20" d="M24.0851 72.6493C24.058 72.6493 24.0332 72.6314 24.0255 72.604L23.3856 70.313C23.3765 70.28 23.3957 70.2459 23.4286 70.2367C23.4618 70.2274 23.4958 70.2468 23.505 70.2797L24.1448 72.5707C24.154 72.6037 24.1348 72.6378 24.1018 72.647C24.0962 72.6486 24.0906 72.6493 24.0851 72.6493Z" fill="white"/>
</g>
<path id="Vector_21" d="M25.6912 61.5672L19.7368 63.3344L24.1588 69.3933L30.5073 69.8982L39.2637 66.1955L35.9363 61.1885L25.6912 61.5672Z" fill="#FBC343"/>
<path id="Vector_22" d="M33.032 62.4081C46.1083 58.5371 48.2098 70.094 27.8073 72.1978C27.0867 71.3869 26.2445 69.9798 25.9101 68.8037L36.6844 63.8247L33.032 62.4081Z" fill="#FBC343"/>
<path id="Vector_23" d="M33.5875 70.6921C32.976 70.4963 32.39 70.1094 32.39 70.1094L30.2884 70.7686L30.77 73.0547L32.9531 73.4983C33.6182 72.2818 33.657 71.2831 33.5875 70.6921Z" fill="#F9B384"/>
<path id="Vector_24" d="M25.9569 68.8842L25.8635 68.7236C28.1112 67.4173 33.8687 64.279 38.774 63.3535L38.8084 63.5361C33.9314 64.4563 28.1963 67.5828 25.9569 68.8842Z" fill="#E49B31"/>
<path id="Vector_25" d="M25.6913 61.5672C13.5198 59.253 10.3675 70.9501 30.77 73.0539C31.4906 72.243 32.0555 71.2848 32.3899 70.1086C29.2559 68.0116 25.7518 66.0185 21.9114 64.1198L25.6913 61.5672Z" fill="#FBC343"/>
<path id="Vector_26" d="M32.34 70.1863C31.761 69.8178 31.1577 69.4282 30.519 69.0158C27.3127 66.9456 23.6786 64.5992 20.591 63.2613L20.6649 63.0908C23.7665 64.4349 27.4074 66.7857 30.6197 68.8597C31.2582 69.272 31.8612 69.6614 32.4397 70.0295L32.34 70.1863Z" fill="#E49B31"/>
<path id="Vector_27" d="M16.761 67.3671L16.5984 67.2773C17.0553 66.4502 17.7871 65.8923 18.7735 65.6191L18.8231 65.7981C17.8734 66.0612 17.1989 66.5744 16.761 67.3671Z" fill="#E49B31"/>
<path id="Vector_28" d="M42.1649 66.663C41.727 65.8703 41.0525 65.3571 40.1028 65.094L40.1524 64.915C41.1388 65.1882 41.8706 65.7461 42.3275 66.5732L42.1649 66.663Z" fill="#E49B31"/>
<path id="Vector_29" d="M29.6302 72.9511L29.4944 72.8244C30.468 71.7816 31.066 70.6808 31.3225 69.459L31.5043 69.4971C31.2407 70.7531 30.6276 71.8829 29.6302 72.9511Z" fill="#E49B31"/>
<g id="Group_16">
<path id="Vector_30" d="M39.6577 70.011C38.0983 69.0476 35.0752 70.7123 34.3163 70.7965C34.0951 70.821 33.8391 70.7726 33.5874 70.692C33.6569 71.2829 33.6181 72.2817 32.9531 73.4981L33.3239 73.5735C33.3239 73.5735 35.8875 74.5132 38.607 73.9662C41.1171 73.4613 40.8836 70.7684 39.6577 70.011Z" fill="#102048"/>
<path id="Vector_31" d="M37.532 73.1633C37.5259 73.1633 37.5196 73.1623 37.5134 73.1604C37.4808 73.1501 37.4627 73.1153 37.473 73.0827C37.6583 72.4961 37.7391 71.342 37.2025 70.567C37.183 70.5388 37.19 70.5002 37.2181 70.4808C37.2462 70.4612 37.2848 70.4683 37.3043 70.4964C37.8662 71.3081 37.7836 72.5101 37.591 73.12C37.5827 73.1464 37.5583 73.1633 37.532 73.1633Z" fill="white"/>
<path id="Vector_32" d="M36.3091 73.3937C36.3029 73.3937 36.2967 73.3928 36.2905 73.3909C36.2579 73.3806 36.2398 73.3458 36.2501 73.3132C36.4354 72.7265 36.5162 71.5724 35.9796 70.7974C35.9601 70.7693 35.9671 70.7307 35.9952 70.7113C36.0233 70.6917 36.0619 70.6987 36.0814 70.7269C36.6433 71.5386 36.5607 72.7406 36.3681 73.3504C36.3598 73.3768 36.3354 73.3937 36.3091 73.3937Z" fill="white"/>
</g>
</g>
<g id="Group_17">
<g id="Group_18">
<path id="Vector_33" d="M23.5379 46.4857C23.5379 46.4857 26.6032 43.8791 26.4898 43.3837C26.4086 43.0297 25.5403 43.5488 25.5403 43.5488C25.5403 43.5488 26.758 42.104 26.6961 41.9286C26.5855 41.6151 25.7432 42.1994 25.7432 42.1994C25.7432 42.1994 26.3125 41.3801 26.0404 41.2466C25.7682 41.1131 25.1749 41.618 25.1749 41.618C25.1749 41.618 25.5215 41.1631 25.3587 41.0437C25.1958 40.9243 24.4932 41.4151 24.4932 41.4151C24.4932 41.4151 24.7453 40.8415 24.2097 41.059C23.674 41.2764 19.9182 44.7232 19.9182 44.7232L23.5379 46.4857Z" fill="#F9B384"/>
<g id="Group_19">
<path id="Vector_34" d="M24.7922 43.3948C24.7773 43.3948 24.7623 43.3895 24.7504 43.3786C24.2243 42.8979 23.9923 42.7812 23.4118 42.6026C23.3791 42.5926 23.3607 42.5579 23.3708 42.5252C23.3809 42.4925 23.4155 42.4741 23.4482 42.4842C24.0497 42.6692 24.2899 42.79 24.834 43.2872C24.8593 43.3102 24.861 43.3494 24.838 43.3746C24.8257 43.388 24.809 43.3948 24.7922 43.3948Z" fill="#E28B6D"/>
<path id="Vector_35" d="M23.8686 44.8083C23.8657 44.8083 23.8628 44.8081 23.8599 44.8077C23.8261 44.803 23.8024 44.7717 23.8072 44.7378C23.8674 44.3068 24.0031 44.0374 24.222 43.9144C24.4091 43.8091 24.6526 43.82 24.9457 43.9465C24.9771 43.96 24.9915 43.9965 24.978 44.0279C24.9644 44.0593 24.928 44.0738 24.8966 44.0602C24.6409 43.9498 24.4344 43.937 24.2827 44.0223C24.1023 44.1237 23.9836 44.3702 23.9298 44.7549C23.9255 44.7859 23.899 44.8083 23.8686 44.8083Z" fill="#E28B6D"/>
<path id="Vector_36" d="M23.724 42.2024C23.7075 42.2024 23.6911 42.1958 23.6789 42.1829C23.6554 42.158 23.6566 42.1188 23.6815 42.0954L24.4507 41.3704C24.4756 41.3468 24.5147 41.3481 24.5382 41.373C24.5617 41.3979 24.5605 41.4371 24.5356 41.4605L23.7664 42.1855C23.7545 42.1968 23.7393 42.2024 23.724 42.2024Z" fill="#E28B6D"/>
<path id="Vector_37" d="M24.436 42.4504C24.4206 42.4504 24.4052 42.4447 24.3931 42.4331C24.3684 42.4094 24.3677 42.3702 24.3913 42.3455L25.1302 41.5757C25.1538 41.551 25.193 41.5502 25.2177 41.574C25.2424 41.5976 25.2432 41.6368 25.2195 41.6615L24.4807 42.4313C24.4685 42.444 24.4523 42.4504 24.436 42.4504Z" fill="#E28B6D"/>
<path id="Vector_38" d="M25.1637 42.8833C25.1485 42.8833 25.1334 42.8778 25.1215 42.8667C25.0964 42.8434 25.095 42.8042 25.1184 42.7792L25.698 42.1573C25.7214 42.1324 25.7605 42.131 25.7856 42.1543C25.8106 42.1776 25.812 42.2168 25.7887 42.2418L25.209 42.8636C25.1967 42.8767 25.1802 42.8833 25.1637 42.8833Z" fill="#E28B6D"/>
</g>
</g>
<g id="Group_20">
<path id="Vector_39" d="M35.1172 63.9202L23.9097 64.3536L22.6713 54.1368C22.6713 54.1368 26.4233 50.5781 27.8669 49.2676L30.3038 49.1426C37.8645 52.5793 36.6265 56.8716 35.1172 63.9202Z" fill="#3A6BEA"/>
<path id="Vector_40" d="M30.3036 49.1426C30.3036 49.1426 38.9537 49.8823 41.6806 55.8087C44.349 61.6076 33.3834 63.6725 33.3834 63.6725L30.3036 49.1426Z" fill="#3A6BEA"/>
<path id="Vector_41" d="M20.4162 50.4117L23.9907 46.0619L20.6481 44.0361C19.2537 45.0057 16.5574 47.2016 14.2724 49.6883C13.768 50.2372 13.374 50.8783 13.1756 51.5842C13.0063 52.1866 12.9755 52.7816 13.0707 53.3643C13.3187 54.8828 14.5132 56.0547 16.1077 56.2414C17.4695 56.4008 22.6712 55.9937 26.8818 54.7553L28.1202 49.9755C27.4839 49.6144 22.7543 49.5517 20.4162 50.4117Z" fill="#3A6BEA"/>
</g>
<g id="Group_21" opacity="0.8">
<path id="Vector_42" d="M37.5225 51.4946C37.5411 51.4904 37.5598 51.4861 37.5784 51.4818C37.5393 51.4587 37.5001 51.4362 37.4609 51.4135C36.827 51.5594 36.1729 51.7085 35.5282 51.7863C35.1408 51.833 33.8462 51.9185 33.4678 51.056C33.2796 50.6268 33.422 50.1496 33.635 49.8146C33.6038 49.8056 33.5731 49.7969 33.5422 49.7881C33.3242 50.1429 33.1842 50.6407 33.3828 51.0932C33.7867 52.0145 35.1357 51.9272 35.5394 51.8785C36.2027 51.7986 36.8736 51.6441 37.5225 51.4946Z" fill="white"/>
<path id="Vector_43" d="M41.5592 58.1788C41.1459 58.0191 40.719 57.8541 40.2702 57.8964C39.483 57.9708 38.8093 58.7492 38.7684 59.6317C38.7406 60.2334 38.9704 60.864 39.4086 61.4187C39.4351 61.4022 39.4614 61.3856 39.4876 61.3689C39.0591 60.8299 38.8343 60.2181 38.8612 59.6361C38.9001 58.798 39.536 58.059 40.2789 57.9888C40.7056 57.9493 41.1039 58.1025 41.5256 58.2654C41.6762 58.3235 41.8292 58.3821 41.9847 58.432C41.9927 58.402 42.0005 58.372 42.0077 58.3417C41.8562 58.293 41.7065 58.2357 41.5592 58.1788Z" fill="white"/>
<path id="Vector_44" d="M19.7264 55.2242C19.1863 54.7776 18.3472 54.6582 17.4246 54.8967C16.6023 55.1095 15.8968 55.5307 15.4122 56.0882C15.444 56.0985 15.4751 56.1101 15.5074 56.1195C15.979 55.5906 16.6581 55.1909 17.4478 54.9867C18.3411 54.7555 19.1503 54.8684 19.6672 55.2958C19.9129 55.4989 20.0866 55.7627 20.2129 56.0474C20.2448 56.0438 20.2768 56.0401 20.3089 56.0364C20.1767 55.7301 19.9925 55.4443 19.7264 55.2242Z" fill="white"/>
<path id="Vector_45" d="M14.8442 49.0816C15.8562 48.8302 16.8436 48.477 17.7544 47.9524C18.0985 47.7542 18.4871 47.5014 18.7604 47.1304C19.0511 46.7355 19.1477 46.2654 19.0188 45.873C18.9683 45.7191 18.8787 45.5839 18.7668 45.4756C18.7432 45.495 18.7192 45.5146 18.6954 45.5342C18.7999 45.6336 18.8836 45.7589 18.9306 45.902C19.0501 46.2659 18.9585 46.7046 18.6857 47.0753C18.4226 47.4325 18.0439 47.6785 17.7081 47.8719C16.849 48.3668 15.9198 48.709 14.9654 48.9562C14.9249 48.9978 14.8846 49.0397 14.8442 49.0816Z" fill="white"/>
</g>
<g id="Group_22">
<path id="Vector_46" d="M31.0954 46.8719L31.0938 47.0305L31.0687 49.4939L31.0656 49.7608C31.0609 50.1785 30.8897 50.5569 30.6134 50.8316C30.3386 51.1048 29.9603 51.2759 29.5411 51.279C28.6964 51.2837 28.0055 50.6054 27.9977 49.7592L27.9679 46.7148L31.0954 46.8719Z" fill="#F9B384"/>
<path id="Vector_47" d="M31.094 47.0293L31.0689 49.4927C29.6997 48.9353 29.1361 47.4532 29.1361 47.4532L31.094 47.0293Z" fill="#102048"/>
<path id="Vector_48" d="M31.6356 42.7315C32.1263 43.3203 33.559 46.6567 32.1067 47.795C30.4724 49.0759 27.9852 46.9707 27.9852 46.9707L27.6516 43.0848L29.8104 42.5156L31.6356 42.7315Z" fill="#F9B384"/>
<path id="Vector_49" d="M26.5517 42.5166C26.5517 42.5166 21.7633 45.0141 25.6677 52.2131C26.1691 53.1378 27.2799 53.5414 28.2301 53.0902C29.2494 52.6062 29.6353 51.361 29.0818 50.3777C28.4432 49.2431 27.8268 47.7822 28.0899 46.695L26.5517 42.5166Z" fill="#102048"/>
<path id="Vector_50" d="M27.9193 44.6142C28.4251 44.1083 28.4251 43.2882 27.9193 42.7823C27.4134 42.2765 26.5933 42.2765 26.0874 42.7823C25.5816 43.2882 25.5816 44.1083 26.0874 44.6142C26.5933 45.12 27.4134 45.12 27.9193 44.6142Z" fill="#FBC343"/>
<path id="Vector_51" d="M28.5974 45.2553C28.4574 44.4472 28.3721 43.893 29.1889 43.4765C29.1889 43.4765 32.0673 43.9999 32.6169 42.9139C33.1664 41.8279 32.329 40.114 30.5758 41.3045C26.088 40.4279 25.4862 44.6279 26.8469 46.0279L28.1899 45.8217C28.4602 45.7803 28.644 45.5247 28.5974 45.2553Z" fill="#102048"/>
<g id="Group_23">
<path id="Vector_52" d="M30.8259 45.4481C30.9316 45.4481 31.0172 45.3625 31.0172 45.2568C31.0172 45.1511 30.9316 45.0654 30.8259 45.0654C30.7202 45.0654 30.6345 45.1511 30.6345 45.2568C30.6345 45.3625 30.7202 45.4481 30.8259 45.4481Z" fill="#102048"/>
<path id="Vector_53" d="M32.1212 44.8104C32.2268 44.8104 32.3125 44.7248 32.3125 44.6191C32.3125 44.5134 32.2268 44.4277 32.1212 44.4277C32.0155 44.4277 31.9298 44.5134 31.9298 44.6191C31.9298 44.7248 32.0155 44.8104 32.1212 44.8104Z" fill="#102048"/>
<path id="Vector_54" d="M31.9888 45.8456C31.9754 45.8456 31.962 45.8406 31.9515 45.8306C31.9298 45.81 31.9289 45.7758 31.9496 45.7541C32.0263 45.6733 32.1104 45.5597 32.0751 45.4773C32.0384 45.3918 31.8833 45.3549 31.8122 45.3549C31.6596 45.3549 31.5863 45.0833 31.5731 45.0288C31.5661 44.9998 31.584 44.9705 31.613 44.9635C31.6421 44.9563 31.6714 44.9743 31.6784 45.0034C31.7063 45.1182 31.7694 45.2466 31.8122 45.2466C31.8853 45.2466 32.1088 45.2811 32.1746 45.4346C32.2217 45.5442 32.1724 45.6768 32.0282 45.8287C32.0175 45.8399 32.0031 45.8456 31.9888 45.8456Z" fill="#102048"/>
<path id="Vector_55" d="M31.9986 46.5721C31.9881 46.5721 31.9776 46.569 31.9683 46.5627C31.6081 46.3196 31.2443 46.5235 31.2406 46.5256C31.2147 46.5405 31.1816 46.5316 31.1666 46.5056C31.1517 46.4797 31.1606 46.4466 31.1865 46.4317C31.2038 46.4218 31.6132 46.1924 32.0289 46.473C32.0537 46.4897 32.0603 46.5234 32.0435 46.5482C32.0331 46.5637 32.016 46.5721 31.9986 46.5721Z" fill="#102048"/>
<path id="Vector_56" d="M30.7421 44.4274C30.851 44.6323 30.6613 44.6734 30.439 44.7915C30.2167 44.9096 29.9892 44.9529 29.9373 44.8551C29.8853 44.7574 30.0234 44.5824 30.2457 44.4643C30.4679 44.3462 30.6579 44.2688 30.7421 44.4274Z" fill="#102048"/>
<path id="Vector_57" d="M31.5528 44.058C31.6007 44.2409 31.737 44.1608 31.9354 44.1089C32.1338 44.057 32.2941 43.9573 32.2712 43.8701C32.2484 43.7829 32.0691 43.7542 31.8707 43.8062C31.6723 43.858 31.5158 43.9165 31.5528 44.058Z" fill="#102048"/>
</g>
<path id="Vector_58" opacity="0.4" d="M30.3273 46.5652C30.5564 46.3539 30.5708 45.9969 30.3596 45.7678C30.1483 45.5387 29.7913 45.5243 29.5622 45.7356C29.3331 45.9469 29.3187 46.3039 29.53 46.533C29.7413 46.762 30.0982 46.7765 30.3273 46.5652Z" fill="#EB5D60"/>
<path id="Vector_59" d="M28.4875 46.6796C28.7453 46.3455 28.6466 45.8371 28.2669 45.5441C27.8872 45.2511 27.3704 45.2845 27.1125 45.6186C26.8547 45.9528 26.9535 46.4611 27.3332 46.7541C27.7129 47.0471 28.2297 47.0137 28.4875 46.6796Z" fill="#F9B384"/>
<path id="Vector_60" d="M28.1358 46.4359C28.1059 46.4359 28.0817 46.4117 28.0817 46.3817C28.0817 46.2218 28.0037 46.0739 27.8731 45.9862C27.7615 45.911 27.6283 45.8935 27.517 45.9388C27.4893 45.9499 27.4577 45.9368 27.4464 45.9091C27.4351 45.8813 27.4484 45.8498 27.4761 45.8384C27.6208 45.7794 27.7919 45.8009 27.9336 45.8962C28.0942 46.0041 28.19 46.1856 28.19 46.3817C28.19 46.4117 28.1658 46.4359 28.1358 46.4359Z" fill="#102048"/>
</g>
<g id="Group_24">
<path id="Vector_61" d="M20.3699 50.3694L18.4148 52.4844L18.5057 52.5684L20.4609 50.4535L20.3699 50.3694Z" fill="#102048"/>
<path id="Vector_62" d="M34.1445 59.4598L34.1084 59.3414C35.5317 58.9076 36.913 58.3886 38.1648 56.8232L38.2615 56.9006C36.9877 58.4936 35.5872 59.0202 34.1445 59.4598Z" fill="#102048"/>
</g>
</g>
<g id="Group_25">
<g id="Group_26">
<path id="Vector_63" d="M35.0099 54.6641H22.9024C22.467 54.6641 22.114 55.0459 22.114 55.517V64.1613C22.114 64.6324 22.467 65.0143 22.9024 65.0143H35.01C35.4454 65.0143 35.7984 64.6324 35.7984 64.1613V55.517C35.7983 55.0459 35.4453 54.6641 35.0099 54.6641Z" fill="#D3DFFF"/>
</g>
<g id="Group_27">
<path id="Vector_64" d="M29.5953 59.2936C29.6413 59.2936 29.6785 59.3339 29.6785 59.3836V60.2963C29.6785 60.346 29.6413 60.3863 29.5953 60.3863H28.317C28.271 60.3863 28.2338 60.346 28.2338 60.2963V59.3836C28.2338 59.3339 28.271 59.2936 28.317 59.2936H29.5953ZM29.5953 59.0459H28.317C28.1345 59.0459 27.9861 59.1974 27.9861 59.3836V60.2963C27.9861 60.4825 28.1345 60.634 28.317 60.634H29.5953C29.7778 60.634 29.9262 60.4825 29.9262 60.2963V59.3836C29.9262 59.1974 29.7778 59.0459 29.5953 59.0459Z" fill="#1F3C88"/>
</g>
</g>
</g>
</g>
<path id="Vector_65" d="M82 73.9502H9V74.1979H82V73.9502Z" fill="#102048"/>
</g>
</g>
</g>
</g>
</svg>
