<svg width="62" height="50" viewBox="0 0 62 50" fill="none" xmlns="http://www.w3.org/2000/svg">
<g id="Group 1000004086">
<g id="Group 1000004087">
<path id="Vector" d="M56.8846 24.8448C56.883 24.6788 56.7595 24.4783 56.6328 24.3561C55.2769 23.0641 53.899 21.794 52.5447 20.4988C51.0887 19.1049 49.6342 17.708 48.1814 16.311C48.1814 13.3776 48.1814 10.4788 48.1814 7.57205C46.3484 7.57205 44.5718 7.57205 42.7436 7.57205C42.7436 7.72396 42.7436 7.84769 42.7436 7.97298C42.7436 9.01131 42.7546 10.0496 42.7467 11.088C38.9558 7.44832 35.1617 3.8118 31.3739 0.169006C31.1487 -0.048684 31.008 -0.0627773 30.7828 0.165876C30.2166 0.743774 29.6349 1.30914 29.0421 1.86041C25.908 4.77339 22.7661 7.67698 19.6336 10.59C17.7115 12.3769 15.802 14.1795 13.8799 15.9664C11.0352 18.6132 8.19665 21.2662 5.32686 23.8847C4.77324 24.3906 4.39633 24.8855 4.56836 25.6623C4.58087 25.7171 4.56993 25.7782 4.56993 25.8361C4.56993 27.1423 4.56993 28.4484 4.56993 29.8642C13.428 21.6311 22.2422 13.4372 31.0971 5.20721C39.6768 13.4137 48.2517 21.6154 56.8705 29.8595C56.8814 29.7405 56.8893 29.6872 56.8893 29.6355C56.8955 28.0396 56.9033 26.4422 56.8846 24.8448Z" fill="#F0893F"/>
<path id="Vector_2" d="M62 49.4324L52.457 45.0536C52.457 40.0013 52.457 34.9505 52.4616 29.8982C52.4616 29.6148 52.3881 29.4222 52.1723 29.2154C49.2024 26.3807 46.2498 23.5273 43.283 20.6895C39.6563 17.2205 36.0155 13.7641 32.3872 10.2967C31.9634 9.89109 31.5755 9.44631 31.1673 9.01562C31.0203 9.12995 30.9343 9.18633 30.8592 9.25524C30.2008 9.8535 29.5377 10.4486 28.8871 11.0563C25.6483 14.0773 22.4172 17.1062 19.1736 20.1225C15.8628 23.2015 12.5536 26.2836 9.21148 29.3297C8.86898 29.643 8.65785 29.9484 8.54369 30.3133L8.43734 29.8685V45.0097L0 49.4309L8.45142 49.4888C10.02 49.4888 11.5871 49.4888 13.1541 49.4888C18.2744 49.4888 23.39 49.4888 28.504 49.4888C25.3808 37.1995 19.4426 32.8598 16.6917 31.4644C15.7909 31.0071 15.2263 30.0815 15.2263 29.0698C15.2263 27.0683 17.336 25.7653 19.1205 26.6705C26.0408 30.1817 29.6941 36.7845 31.6193 42.5744C33.5445 36.7845 37.1978 30.1817 44.1181 26.6705C45.901 25.7653 48.0123 27.0683 48.0123 29.0698C48.0123 30.0799 47.4477 31.0071 46.5469 31.4644C43.7975 32.8598 37.8593 37.1995 34.7346 49.4888C39.0636 49.4888 43.3956 49.4888 47.7292 49.4888L47.7198 49.5295L62 49.4324ZM31.1533 29.8685C28.3992 29.8685 26.1675 27.6336 26.1675 24.8757C26.1675 22.1178 28.3992 19.8829 31.1533 19.8829C33.9073 19.8829 36.139 22.1178 36.139 24.8757C36.139 27.6336 33.9073 29.8685 31.1533 29.8685Z" fill="white"/>
</g>
</g>
</svg>
