<svg width="24" height="25" viewBox="0 0 24 25" fill="none" xmlns="http://www.w3.org/2000/svg">
<g id="002-kitchen" clip-path="url(#clip0_1_3706)">
<path id="Vector" d="M2.79962 12.5781C2.79962 12.7991 2.62054 12.9782 2.39954 12.9782C2.17871 12.9782 1.99963 12.7991 1.99963 12.5781C1.99963 12.3573 2.17871 12.1782 2.39954 12.1782C2.62054 12.1782 2.79962 12.3573 2.79962 12.5781Z" fill="#361830"/>
<path id="Vector_2" d="M4.39996 12.5781C4.39996 12.7991 4.22089 12.9782 3.99988 12.9782C3.77905 12.9782 3.59998 12.7991 3.59998 12.5781C3.59998 12.3573 3.77905 12.1782 3.99988 12.1782C4.22089 12.1782 4.39996 12.3573 4.39996 12.5781Z" fill="#361830"/>
<path id="Vector_3" d="M7.6004 12.5781C7.6004 12.7991 7.42133 12.9782 7.2005 12.9782C6.97949 12.9782 6.80042 12.7991 6.80042 12.5781C6.80042 12.3573 6.97949 12.1782 7.2005 12.1782C7.42133 12.1782 7.6004 12.3573 7.6004 12.5781Z" fill="#361830"/>
<path id="Vector_4" d="M9.20099 12.5781C9.20099 12.7991 9.02191 12.9782 8.80109 12.9782C8.58008 12.9782 8.401 12.7991 8.401 12.5781C8.401 12.3573 8.58008 12.1782 8.80109 12.1782C9.02191 12.1782 9.20099 12.3573 9.20099 12.5781Z" fill="#361830"/>
<path id="Vector_5" d="M8.40021 14.9785H2.80029C2.13782 14.9792 1.60095 15.5159 1.60022 16.1784V20.1785C1.60095 20.8408 2.13782 21.3777 2.80029 21.3784H8.40021C9.06268 21.3777 9.59955 20.8408 9.60028 20.1785V16.1784C9.59955 15.5159 9.06268 14.9792 8.40021 14.9785ZM8.80029 20.1785C8.79993 20.3992 8.62103 20.5782 8.40021 20.5784H2.80029C2.57947 20.5782 2.40057 20.3992 2.40021 20.1785V16.1784C2.40057 15.9576 2.57947 15.7787 2.80029 15.7785H8.40021C8.62103 15.7787 8.79993 15.9576 8.80029 16.1784V20.1785Z" fill="#361830"/>
<path id="Vector_6" d="M0.800672 5.77795H10.4007C10.5681 5.77814 10.7178 5.67377 10.7759 5.51685C10.8339 5.35974 10.7882 5.18323 10.6611 5.07428L8.00074 2.79407V1.37811C8.00074 1.1571 7.82167 0.978027 7.60066 0.978027H3.60072C3.37971 0.978027 3.20064 1.1571 3.20064 1.37811V2.79407L0.540296 5.07428C0.413221 5.18323 0.367445 5.35974 0.425489 5.51685C0.483534 5.67377 0.633314 5.77814 0.800672 5.77795ZM4.00062 1.77802H7.20076V2.578H4.00062V1.77802ZM3.74867 3.37799H7.45271L9.31947 4.97797H1.88191L3.74867 3.37799Z" fill="#361830"/>
<path id="Vector_7" d="M23.5998 0.978027H17.1999C16.9789 0.978027 16.7998 1.1571 16.7998 1.37811V10.978H10.7998C10.6925 10.9781 10.5896 11.0215 10.5147 11.0986C10.3543 11.0203 10.1783 10.9789 9.99982 10.978H1.19995C0.537476 10.9787 0.000610352 11.5156 -0.00012207 12.178V23.778C0.000610352 24.4404 0.537476 24.9773 1.19995 24.978H9.99982C10.1783 24.9771 10.3543 24.9357 10.5147 24.8574C10.5896 24.9344 10.6925 24.978 10.7998 24.978H23.5998C23.8208 24.978 23.9999 24.799 23.9999 24.5779V1.37811C23.9999 1.1571 23.8208 0.978027 23.5998 0.978027ZM11.1999 11.778H16.7998V14.1781H14.3998V13.778C14.3998 13.5572 14.2208 13.3781 13.9999 13.3781C13.7789 13.3781 13.5999 13.5572 13.5999 13.778V14.1781H11.1999V11.778ZM0.799866 12.178C0.800232 11.9572 0.979126 11.7783 1.19995 11.778H9.99982C10.2206 11.7783 10.3995 11.9572 10.3999 12.178V13.3781H0.799866V12.178ZM9.99982 24.178H9.19983V22.5781C9.19983 22.3571 9.02075 22.178 8.79993 22.178C8.57892 22.178 8.39984 22.3571 8.39984 22.5781V24.178H7.59985V22.5781C7.59985 22.3571 7.42078 22.178 7.19995 22.178C6.97894 22.178 6.79987 22.3571 6.79987 22.5781V24.178H5.99988V22.5781C5.99988 22.3571 5.8208 22.178 5.59979 22.178C5.37897 22.178 5.19989 22.3571 5.19989 22.5781V24.178H4.3999V22.5781C4.3999 22.3571 4.22083 22.178 3.99982 22.178C3.77899 22.178 3.59991 22.3571 3.59991 22.5781V24.178H2.79993V22.5781C2.79993 22.3571 2.62085 22.178 2.39984 22.178C2.17902 22.178 1.99994 22.3571 1.99994 22.5781V24.178H1.19995C0.979126 24.1777 0.800232 23.9988 0.799866 23.778V14.1781H10.3999V23.778C10.3995 23.9988 10.2206 24.1777 9.99982 24.178ZM11.1999 23.778V14.9781H16.7998V24.178H11.1999V23.778ZM23.1999 24.178H17.5998V1.77802H23.1999V24.178Z" fill="#361830"/>
<path id="Vector_8" d="M15.5992 18.1777C15.3782 18.1777 15.1991 18.3568 15.1991 18.5776V19.3778C15.1991 19.5986 15.3782 19.7777 15.5992 19.7777C15.82 19.7777 15.9991 19.5986 15.9991 19.3778V18.5776C15.9991 18.3568 15.82 18.1777 15.5992 18.1777Z" fill="#361830"/>
<path id="Vector_9" d="M22.0004 10.978C21.7795 10.978 21.6005 11.1571 21.6005 11.3781V12.1781C21.6005 12.3989 21.7795 12.578 22.0004 12.578C22.2214 12.578 22.4005 12.3989 22.4005 12.1781V11.3781C22.4005 11.1571 22.2214 10.978 22.0004 10.978Z" fill="#361830"/>
<path id="Vector_10" d="M18.7997 3.37762H21.9996C22.2206 3.37762 22.3997 3.19855 22.3997 2.97772C22.3997 2.75671 22.2206 2.57764 21.9996 2.57764H18.7997C18.5789 2.57764 18.3998 2.75671 18.3998 2.97772C18.3998 3.19855 18.5789 3.37762 18.7997 3.37762Z" fill="#361830"/>
<path id="Vector_11" d="M18.7997 23.3781H21.9996C22.2206 23.3781 22.3997 23.199 22.3997 22.978C22.3997 22.7572 22.2206 22.5781 21.9996 22.5781H18.7997C18.5789 22.5781 18.3998 22.7572 18.3998 22.978C18.3998 23.199 18.5789 23.3781 18.7997 23.3781Z" fill="#361830"/>
<path id="Vector_12" d="M15.6008 22.5781H12.4008C12.1798 22.5781 12.0007 22.7572 12.0007 22.978C12.0007 23.199 12.1798 23.3781 12.4008 23.3781H15.6008C15.8216 23.3781 16.0007 23.199 16.0007 22.978C16.0007 22.7572 15.8216 22.5781 15.6008 22.5781Z" fill="#361830"/>
<path id="Vector_13" d="M15.6008 15.7778H12.4008C12.1798 15.7778 12.0007 15.9569 12.0007 16.1777C12.0007 16.3987 12.1798 16.5778 12.4008 16.5778H15.6008C15.8216 16.5778 16.0007 16.3987 16.0007 16.1777C16.0007 15.9569 15.8216 15.7778 15.6008 15.7778Z" fill="#361830"/>
<path id="Vector_14" d="M3.6004 16.5781C3.37939 16.5781 3.20032 16.7572 3.20032 16.978V17.3781C3.20032 17.5989 3.37939 17.778 3.6004 17.778C3.82123 17.778 4.00031 17.5989 4.00031 17.3781V16.978C4.00031 16.7572 3.82123 16.5781 3.6004 16.5781Z" fill="#361830"/>
<path id="Vector_15" d="M3.6004 18.5776C3.37939 18.5776 3.20032 18.7569 3.20032 18.9777V19.3778C3.20032 19.5986 3.37939 19.7777 3.6004 19.7777C3.82123 19.7777 4.00031 19.5986 4.00031 19.3778V18.9777C4.00031 18.7569 3.82123 18.5776 3.6004 18.5776Z" fill="#361830"/>
</g>
<defs>
<clipPath id="clip0_1_3706">
<rect width="24" height="24" fill="white" transform="translate(-0.00012207 0.978027)"/>
</clipPath>
</defs>
</svg>
