<svg width="24" height="25" viewBox="0 0 24 25" fill="none" xmlns="http://www.w3.org/2000/svg">
<g id="028-washing-machine" clip-path="url(#clip0_1_3722)">
<path id="Vector" d="M22.7953 0.978027H8.39532C7.73285 0.97876 7.19598 1.51562 7.19525 2.1781V11.378H0.846803C0.625978 11.378 0.414857 11.4692 0.263795 11.6304C0.11255 11.7913 0.0345473 12.0076 0.0484633 12.228L0.70453 22.7278C0.785829 23.9916 1.83356 24.9758 3.09992 24.978H6.54211C6.92719 24.9782 7.30658 24.8852 7.64789 24.7068C7.85828 24.8806 8.12231 24.9764 8.39532 24.978H22.7953C23.4578 24.9773 23.9944 24.4404 23.9952 23.7779V2.1781C23.9944 1.51562 23.4578 0.97876 22.7953 0.978027ZM23.1952 2.1781V4.97797H13.5953V1.77801H22.7953C23.0161 1.7782 23.195 1.95728 23.1952 2.1781ZM7.99524 2.1781C7.99542 1.95728 8.1745 1.7782 8.39532 1.77801H12.7953V4.97797H7.99524V2.1781ZM6.021 12.178V12.5779C6.02081 12.7988 5.84192 12.9778 5.62109 12.978H4.02112C3.80029 12.9778 3.62122 12.7989 3.62103 12.5779V12.178H6.021ZM1.50324 22.678L0.846803 12.178H2.82105V14.578C2.82105 14.799 3.00012 14.9781 3.22113 14.9781C3.44196 14.9781 3.62103 14.799 3.62103 14.578V13.7042C3.74921 13.7516 3.88452 13.7767 4.02112 13.778H4.42102V14.578C4.42102 14.799 4.6001 14.9781 4.82111 14.9781C5.04193 14.9781 5.22101 14.799 5.22101 14.578V13.778H5.62109C5.75769 13.7767 5.89301 13.7516 6.021 13.7042V14.578C6.021 14.799 6.20007 14.9781 6.42108 14.9781C6.64191 14.9781 6.82098 14.799 6.82098 14.578V12.178H8.79523L8.13898 22.678C8.091 23.4138 7.547 24.0218 6.82098 24.1511V23.378C6.82098 23.157 6.64191 22.978 6.42108 22.978C6.20007 22.978 6.021 23.157 6.021 23.378V24.178H5.22101V23.378C5.22101 23.157 5.04193 22.978 4.82111 22.978C4.6001 22.978 4.42102 23.157 4.42102 23.378V24.178H3.62103V23.378C3.62103 23.157 3.44196 22.978 3.22113 22.978C3.00012 22.978 2.82105 23.157 2.82105 23.378V24.1509C2.09522 24.0217 1.55139 23.4138 1.50324 22.678ZM23.1952 23.7779C23.195 23.9988 23.0161 24.1779 22.7953 24.178H8.39532C8.37518 24.1769 8.35504 24.1746 8.33527 24.1703C8.69196 23.7706 8.90399 23.2625 8.93732 22.7278L9.30994 16.7667C10.5455 19.7672 13.7294 21.4765 16.913 20.8483C20.0967 20.2202 22.3928 17.4297 22.3961 14.1847C22.3994 10.9397 20.1093 8.14459 16.9269 7.50976C13.7446 6.87494 10.5571 8.57763 9.31525 11.5756C9.17114 11.4496 8.98657 11.3795 8.79523 11.378H7.99524V5.77795H23.1952V23.7779ZM9.59521 14.1781C9.59521 10.8643 12.2816 8.1781 15.5952 8.1781C18.9091 8.1781 21.5952 10.8643 21.5952 14.1781C21.5952 17.4918 18.9091 20.1781 15.5952 20.1781C12.283 20.1743 9.59888 17.4903 9.59521 14.1781Z" fill="#361830"/>
<path id="Vector_2" d="M10.3942 2.17822C9.73157 2.17822 9.19434 2.71545 9.19434 3.37811C9.19434 4.04095 9.73157 4.57819 10.3942 4.57819C11.0571 4.57819 11.5943 4.04095 11.5943 3.37811C11.5936 2.71564 11.0567 2.17896 10.3942 2.17822ZM10.3942 3.7782C10.1734 3.7782 9.99432 3.59912 9.99432 3.37811C9.99432 3.15729 10.1734 2.97821 10.3942 2.97821C10.6152 2.97821 10.7943 3.15729 10.7943 3.37811C10.7941 3.59894 10.6151 3.77801 10.3942 3.7782Z" fill="#361830"/>
<path id="Vector_3" d="M15.5963 4.57819C16.2591 4.57819 16.7963 4.04095 16.7963 3.37811C16.7963 2.71545 16.2591 2.17822 15.5963 2.17822C14.9336 2.17822 14.3964 2.71545 14.3964 3.37811C14.3971 4.04059 14.9338 4.57745 15.5963 4.57819ZM15.5963 2.97821C15.8173 2.97821 15.9963 3.15729 15.9963 3.37811C15.9963 3.59912 15.8173 3.7782 15.5963 3.7782C15.3754 3.7782 15.1963 3.59912 15.1963 3.37811C15.1965 3.15729 15.3754 2.97839 15.5963 2.97821Z" fill="#361830"/>
<path id="Vector_4" d="M17.9943 3.7785H18.3943C18.6152 3.7785 18.7944 3.59943 18.7944 3.37842C18.7944 3.15759 18.6152 2.97852 18.3943 2.97852H17.9943C17.7734 2.97852 17.5944 3.15759 17.5944 3.37842C17.5944 3.59943 17.7734 3.7785 17.9943 3.7785Z" fill="#361830"/>
<path id="Vector_5" d="M19.9954 3.7785H20.3954C20.6163 3.7785 20.7953 3.59943 20.7953 3.37842C20.7953 3.15759 20.6163 2.97852 20.3954 2.97852H19.9954C19.7745 2.97852 19.5955 3.15759 19.5955 3.37842C19.5955 3.59943 19.7745 3.7785 19.9954 3.7785Z" fill="#361830"/>
<path id="Vector_6" d="M15.5955 19.3782C17.3094 19.3776 18.9126 18.5324 19.8813 17.1186L19.8873 17.1106C19.8922 17.1034 19.8981 17.0974 19.903 17.0904C19.9087 17.0818 19.9094 17.0716 19.9146 17.0628C19.9265 17.0452 19.9369 17.0267 19.9459 17.0073C19.9499 16.9965 19.9481 16.9857 19.9512 16.9747C19.9741 16.9006 19.9728 16.8211 19.9472 16.7477C19.9232 16.6739 19.8787 16.6083 19.8192 16.5585C19.8104 16.5514 19.8056 16.5413 19.7961 16.5349C19.7818 16.5279 19.7674 16.5217 19.7523 16.5166C19.7397 16.5076 19.7265 16.4994 19.7128 16.4919C18.9373 16.1991 18.3955 15.2479 18.3955 14.1782C18.3955 13.1085 18.9373 12.157 19.7128 11.8643C19.7265 11.8567 19.7397 11.8485 19.7523 11.8393C19.7674 11.8342 19.7818 11.8282 19.7959 11.8212C19.8054 11.8148 19.8104 11.8047 19.8192 11.7976C19.9406 11.6963 19.992 11.5339 19.9512 11.3814C19.9481 11.3704 19.9499 11.3596 19.9459 11.3488C19.927 11.3237 19.9126 11.2957 19.9029 11.2657C18.5155 9.21343 15.8727 8.4248 13.5874 9.38116C11.3022 10.3375 10.0089 12.7734 10.4967 15.2021C10.9847 17.631 13.1183 19.3784 15.5955 19.3782ZM18.967 16.9969C17.7981 18.4004 15.8824 18.934 14.1563 18.3367C12.4301 17.7396 11.2539 16.1363 11.2022 14.3104C11.4167 14.0776 12.1159 13.4897 13.5171 13.7704C14.0744 13.8905 14.6126 14.0872 15.1163 14.3545C15.6248 14.6502 16.1974 14.8188 16.7849 14.8458C17.072 14.8414 17.3573 14.7989 17.6333 14.7192C17.7309 15.6346 18.2165 16.4639 18.967 16.9969ZM15.5955 9.77813C16.8983 9.77923 18.1331 10.3584 18.967 11.3594C18.1509 11.949 17.6519 12.8818 17.6144 13.8879C16.6679 14.2084 16.1985 13.9903 15.4658 13.6347C14.9011 13.3372 14.2982 13.1187 13.6738 12.986C12.8738 12.79 12.0301 12.8858 11.2943 13.256C11.731 11.2291 13.522 9.78106 15.5955 9.77813Z" fill="#361830"/>
<path id="Vector_7" d="M10.7954 22.5781H9.99542C9.77441 22.5781 9.59534 22.7572 9.59534 22.978C9.59534 23.199 9.77441 23.3781 9.99542 23.3781H10.7954C11.0162 23.3781 11.1953 23.199 11.1953 22.978C11.1953 22.7572 11.0162 22.5781 10.7954 22.5781Z" fill="#361830"/>
<path id="Vector_8" d="M17.1944 22.5781H12.3945C12.1735 22.5781 11.9944 22.7572 11.9944 22.978C11.9944 23.199 12.1735 23.3781 12.3945 23.3781H17.1944C17.4154 23.3781 17.5945 23.199 17.5945 22.978C17.5945 22.7572 17.4154 22.5781 17.1944 22.5781Z" fill="#361830"/>
<path id="Vector_9" d="M4.01959 21.3784C3.79858 21.3784 3.61951 21.5575 3.61951 21.7785V22.5785C3.61951 22.7993 3.79858 22.9784 4.01959 22.9784C4.24042 22.9784 4.41949 22.7993 4.41949 22.5785V21.7785C4.41949 21.5575 4.24042 21.3784 4.01959 21.3784Z" fill="#361830"/>
<path id="Vector_10" d="M2.8205 22.5785V21.7785C2.8205 21.5575 2.64142 21.3784 2.42059 21.3784C2.19958 21.3784 2.02051 21.5575 2.02051 21.7785V22.5785C2.02051 22.7993 2.19958 22.9784 2.42059 22.9784C2.64142 22.9784 2.8205 22.7993 2.8205 22.5785Z" fill="#361830"/>
<path id="Vector_11" d="M5.6214 21.3774C5.40039 21.3774 5.22131 21.5565 5.22131 21.7775V22.5775C5.22131 22.7983 5.40039 22.9774 5.6214 22.9774C5.84222 22.9774 6.0213 22.7983 6.0213 22.5775V21.7775C6.0213 21.5565 5.84222 21.3774 5.6214 21.3774Z" fill="#361830"/>
<path id="Vector_12" d="M7.2215 21.3774C7.00049 21.3774 6.82141 21.5565 6.82141 21.7775V22.5775C6.82141 22.7983 7.00049 22.9774 7.2215 22.9774C7.44232 22.9774 7.6214 22.7983 7.6214 22.5775V21.7775C7.6214 21.5565 7.44232 21.3774 7.2215 21.3774Z" fill="#361830"/>
<path id="Vector_13" d="M5.21991 20.1779C5.21991 19.9569 5.04083 19.7778 4.82001 19.7778C4.599 19.7778 4.41992 19.9569 4.41992 20.1779V20.9779C4.41992 21.1987 4.599 21.3778 4.82001 21.3778C5.04083 21.3778 5.21991 21.1987 5.21991 20.9779V20.1779Z" fill="#361830"/>
<path id="Vector_14" d="M3.62067 20.1779C3.62067 19.9569 3.44159 19.7778 3.22076 19.7778C2.99976 19.7778 2.82068 19.9569 2.82068 20.1779V20.9779C2.82068 21.1987 2.99976 21.3778 3.22076 21.3778C3.44159 21.3778 3.62067 21.1987 3.62067 20.9779V20.1779Z" fill="#361830"/>
<path id="Vector_15" d="M6.82135 20.1779C6.82135 19.9569 6.64227 19.7778 6.42145 19.7778C6.20044 19.7778 6.02136 19.9569 6.02136 20.1779V20.9779C6.02136 21.1987 6.20044 21.3778 6.42145 21.3778C6.64227 21.3778 6.82135 21.1987 6.82135 20.9779V20.1779Z" fill="#361830"/>
<path id="Vector_16" d="M4.01959 19.7777C4.24042 19.7777 4.41949 19.5986 4.41949 19.3778V18.5776C4.41949 18.3568 4.24042 18.1777 4.01959 18.1777C3.79858 18.1777 3.61951 18.3568 3.61951 18.5776V19.3778C3.61951 19.5986 3.79858 19.7777 4.01959 19.7777Z" fill="black"/>
<path id="Vector_17" d="M2.42059 19.7777C2.64142 19.7777 2.8205 19.5986 2.8205 19.3778V18.5776C2.8205 18.3568 2.64142 18.1777 2.42059 18.1777C2.19958 18.1777 2.02051 18.3568 2.02051 18.5776V19.3778C2.02051 19.5986 2.19958 19.7777 2.42059 19.7777Z" fill="black"/>
<path id="Vector_18" d="M5.6214 19.7777C5.84222 19.7777 6.0213 19.5986 6.0213 19.3778V18.5776C6.0213 18.3568 5.84222 18.1777 5.6214 18.1777C5.40039 18.1777 5.22131 18.3568 5.22131 18.5776V19.3778C5.22131 19.5986 5.40039 19.7777 5.6214 19.7777Z" fill="black"/>
<path id="Vector_19" d="M7.2215 18.1777C7.00049 18.1777 6.82141 18.3568 6.82141 18.5776V19.3778C6.82141 19.5986 7.00049 19.7777 7.2215 19.7777C7.44232 19.7777 7.6214 19.5986 7.6214 19.3778V18.5776C7.6214 18.3568 7.44232 18.1777 7.2215 18.1777Z" fill="black"/>
<path id="Vector_20" d="M4.41992 17.778C4.41992 17.999 4.599 18.1781 4.82001 18.1781C5.04083 18.1781 5.21991 17.999 5.21991 17.778V16.978C5.21991 16.7572 5.04083 16.5781 4.82001 16.5781C4.599 16.5781 4.41992 16.7572 4.41992 16.978V17.778Z" fill="black"/>
<path id="Vector_21" d="M2.82068 17.778C2.82068 17.999 2.99976 18.1781 3.22076 18.1781C3.44159 18.1781 3.62067 17.999 3.62067 17.778V16.978C3.62067 16.7572 3.44159 16.5781 3.22076 16.5781C2.99976 16.5781 2.82068 16.7572 2.82068 16.978V17.778Z" fill="black"/>
<path id="Vector_22" d="M6.02136 17.778C6.02136 17.999 6.20044 18.1781 6.42145 18.1781C6.64227 18.1781 6.82135 17.999 6.82135 17.778V16.978C6.82135 16.7572 6.64227 16.5781 6.42145 16.5781C6.20044 16.5781 6.02136 16.7572 6.02136 16.978V17.778Z" fill="black"/>
<path id="Vector_23" d="M4.01959 16.5785C4.24042 16.5785 4.41949 16.3994 4.41949 16.1784V15.3784C4.41949 15.1576 4.24042 14.9785 4.01959 14.9785C3.79858 14.9785 3.61951 15.1576 3.61951 15.3784V16.1784C3.61951 16.3994 3.79858 16.5785 4.01959 16.5785Z" fill="black"/>
<path id="Vector_24" d="M2.42059 16.5785C2.64142 16.5785 2.8205 16.3994 2.8205 16.1784V15.3784C2.8205 15.1576 2.64142 14.9785 2.42059 14.9785C2.19958 14.9785 2.02051 15.1576 2.02051 15.3784V16.1784C2.02051 16.3994 2.19958 16.5785 2.42059 16.5785Z" fill="black"/>
<path id="Vector_25" d="M5.6214 16.5785C5.84222 16.5785 6.0213 16.3994 6.0213 16.1784V15.3784C6.0213 15.1576 5.84222 14.9785 5.6214 14.9785C5.40039 14.9785 5.22131 15.1576 5.22131 15.3784V16.1784C5.22131 16.3994 5.40039 16.5785 5.6214 16.5785Z" fill="black"/>
<path id="Vector_26" d="M7.2215 16.5785C7.44232 16.5785 7.6214 16.3994 7.6214 16.1784V15.3784C7.6214 15.1576 7.44232 14.9785 7.2215 14.9785C7.00049 14.9785 6.82141 15.1576 6.82141 15.3784V16.1784C6.82141 16.3994 7.00049 16.5785 7.2215 16.5785Z" fill="black"/>
</g>
<defs>
<clipPath id="clip0_1_3722">
<rect width="24" height="24" fill="white" transform="translate(-0.00012207 0.978027)"/>
</clipPath>
</defs>
</svg>
