<svg width="24" height="24" viewBox="0 0 24 24" fill="none" xmlns="http://www.w3.org/2000/svg">
<g id="022-living-room" clip-path="url(#clip0_1_3690)">
<path id="Vector" d="M22.8006 14.0004H21.6006V10.0006C21.5993 8.89651 20.7046 8.00188 19.6006 8.0006H13.2009C12.0968 8.00188 11.2022 8.89651 11.2009 10.0006V14.0004H10.0008C9.33856 14.0011 8.80172 14.538 8.80098 15.2004V19.2002C8.8041 20.2529 9.62365 21.1222 10.6743 21.1874L10.0992 23.2001H6.36063C6.16929 22.2697 5.35102 21.6014 4.4011 21.6001H3.60114V3.18472C3.60169 1.9336 4.56882 0.895606 5.81683 0.806985C7.06483 0.718365 8.16911 1.60914 8.34653 2.84763L8.35349 2.89615C7.83733 3.10873 7.5376 3.6507 7.63208 4.20074L7.7412 4.84653L6.67172 6.6832C6.52799 6.9302 6.52689 7.23506 6.66861 7.48316C6.81051 7.73126 7.07399 7.88488 7.35981 7.88616C7.40558 7.88616 7.45136 7.88232 7.4964 7.87463L11.3338 7.22609C11.6398 7.17427 11.8882 6.95016 11.9714 6.65116C12.0543 6.35215 11.9569 6.0321 11.7212 5.83014L10.1076 4.44682L9.99845 3.80103C9.921 3.35079 9.59399 2.98386 9.15565 2.85514L9.13844 2.73447C8.90205 1.07999 7.427 -0.110343 5.76007 0.00812222C4.09313 0.126588 2.80118 1.51357 2.80118 3.18472V21.6001H2.00122V21.2002C2.00122 20.9792 1.82215 20.8002 1.60114 20.8002C1.38033 20.8002 1.20125 20.9792 1.20125 21.2002V21.7697C0.473434 22.0877 0.0026855 22.8058 0.0012207 23.6001C0.0012207 23.8209 0.180292 24 0.401293 24H23.6006C23.8214 24 24.0004 23.8209 24.0004 23.6001C24.0004 23.3791 23.8214 23.2001 23.6006 23.2001H22.7023L22.1271 21.1874C23.1778 21.1222 23.9973 20.2529 24.0004 19.2002V15.2004C23.9997 14.538 23.4629 14.0011 22.8006 14.0004ZM11.2005 6.4373L7.3631 7.08602L8.41116 5.28615L9.61944 5.08199L11.2034 6.43656L11.2005 6.4373ZM9.27649 4.32854L8.4877 4.46183L8.42087 4.06744C8.38443 3.84973 8.53091 3.64356 8.74862 3.60639C8.77077 3.60273 8.79311 3.6009 8.81563 3.6009C9.01063 3.60127 9.17707 3.74189 9.21003 3.93414L9.27649 4.32854ZM13.2009 8.80056H19.6006C20.263 8.80129 20.7999 9.33814 20.8006 10.0006V14.0742C20.3225 14.2425 20.0021 14.6934 20.0006 15.2004V16.0107C19.6564 15.7461 19.2347 15.6018 18.8006 15.6003H17.3664L18.2835 14.6832C18.4349 14.5263 18.4329 14.2767 18.2786 14.1225C18.1242 13.9682 17.8748 13.966 17.7179 14.1176L16.8008 15.0347V13.2004C16.8008 12.9794 16.6215 12.8004 16.4007 12.8004C16.1799 12.8004 16.0006 12.9794 16.0006 13.2004V15.0347L15.0835 14.1176C14.9266 13.966 14.6772 13.9682 14.5228 14.1225C14.3685 14.2767 14.3665 14.5263 14.5179 14.6832L15.435 15.6003H14.0008C13.5667 15.6018 13.145 15.7461 12.8008 16.0107V15.2004C12.7993 14.6934 12.4789 14.2425 12.0008 14.0742V10.0006C12.0016 9.33814 12.5384 8.80129 13.2009 8.80056ZM18.8006 16.4003C19.4631 16.401 19.9999 16.9379 20.0006 17.6003V18.0002H12.8008V17.6003C12.8015 16.9379 13.3384 16.401 14.0008 16.4003H18.8006ZM19.3686 21.2002L20.5115 23.2001H12.2901L13.4329 21.2002H19.3686ZM20.0006 20.4001H12.8008V18.8002H20.0006V20.4001ZM9.60095 19.2002V15.2004C9.60113 14.9796 9.7802 14.8007 10.0008 14.8004H11.6009C11.8216 14.8007 12.0006 14.9796 12.0008 15.2004V20.4001H10.801C10.1385 20.3994 9.60168 19.8627 9.60095 19.2002ZM0.869845 23.2001C1.03976 22.7211 1.49275 22.4006 2.00122 22.4001H4.4011C4.90939 22.4006 5.36256 22.7211 5.53247 23.2001H0.869845ZM10.9312 23.2001L11.5026 21.2002H12.5117L11.369 23.2001H10.9312ZM21.4325 23.2001L20.2897 21.2002H21.2988L21.8703 23.2001H21.4325ZM23.2005 19.2002C23.1997 19.8627 22.6629 20.3994 22.0004 20.4001H20.8006V15.2004C20.8008 14.9796 20.9798 14.8007 21.2005 14.8004H22.8006C23.0212 14.8007 23.2001 14.9796 23.2005 15.2004V19.2002Z" fill="#361830"/>
</g>
<defs>
<clipPath id="clip0_1_3690">
<rect width="24" height="24" fill="white"/>
</clipPath>
</defs>
</svg>
