<svg width="24" height="25" viewBox="0 0 24 25" fill="none" xmlns="http://www.w3.org/2000/svg">
<g id="004-dinning-table" clip-path="url(#clip0_1_3730)">
<path id="Vector" d="M0.719883 16.1921C0.721348 16.2022 0.727207 16.2103 0.729405 16.2202L0.850803 17.1855C0.922214 17.7148 1.25363 18.1733 1.73374 18.4075L0.590794 24.5046C0.568821 24.6216 0.600132 24.7422 0.676121 24.8338C0.75211 24.9253 0.864902 24.9783 0.983921 24.9783H1.78391C1.95877 24.9783 2.1135 24.8646 2.16568 24.6976L4.07803 18.5784H5.30557L5.61172 19.5615L3.62942 24.4273C3.57907 24.5507 3.59354 24.691 3.66788 24.8016C3.74222 24.912 3.86673 24.9783 3.99985 24.9783H5.59982C5.7626 24.9783 5.9089 24.8797 5.97042 24.7292L6.68234 22.9817L7.2181 24.6974C7.27029 24.8646 7.42483 24.9783 7.59988 24.9783H8.39986C8.51888 24.9783 8.63167 24.9253 8.70766 24.8338C8.78383 24.7421 8.81496 24.6214 8.79299 24.5044L7.93093 19.9171L10.269 14.1784H13.7308L16.0689 19.9171L15.2068 24.5044C15.1848 24.6214 15.216 24.7421 15.2919 24.8338C15.3679 24.9253 15.4809 24.9783 15.5999 24.9783H16.3999C16.575 24.9783 16.7295 24.8646 16.7817 24.6974L17.3175 22.9817L18.0294 24.7292C18.0909 24.8797 18.2372 24.9783 18.3998 24.9783H19.9999C20.1331 24.9783 20.2576 24.912 20.3319 24.8016C20.4063 24.691 20.4207 24.5507 20.3704 24.4273L18.3879 19.5615L18.6942 18.5784H19.9218L21.8341 24.6976C21.8863 24.8646 22.0408 24.9783 22.2159 24.9783H23.0159C23.1349 24.9783 23.2477 24.9253 23.3237 24.8338C23.3997 24.7422 23.431 24.6216 23.409 24.5046L22.2659 18.4073C22.7463 18.1728 23.0778 17.7136 23.149 17.1837L23.2702 16.2202C23.2724 16.2103 23.2783 16.2022 23.2797 16.1921C23.2814 16.1808 23.2773 16.1704 23.2779 16.159L23.9968 10.4443C24.0244 10.2251 23.869 10.025 23.6498 9.99733C23.4306 9.96968 23.2306 10.1251 23.203 10.3443L23.151 10.759C22.3001 10.6746 21.5349 11.2787 21.4196 12.1259L21.0839 14.6709C20.9611 15.5399 21.5637 16.3449 22.4323 16.4717L22.3556 17.0819C22.3027 17.4799 21.9637 17.7775 21.5622 17.7784H21.3754C21.1843 16.8478 20.3658 16.1795 19.4158 16.1782H17.4158C17.2849 16.1786 17.1541 16.1916 17.0256 16.2174L16.1948 14.1784H19.5999C20.0415 14.1778 20.3995 13.82 20.3998 13.3784V12.5784C20.3995 12.1367 20.0415 11.7788 19.5999 11.7784H4.39993C3.95828 11.7788 3.60031 12.1367 3.59994 12.5784V13.3784C3.60031 13.82 3.95828 14.1778 4.39993 14.1784H7.80495L6.97421 16.2174C6.84567 16.1916 6.71493 16.1786 6.58383 16.1782H4.58395C3.634 16.1795 2.81552 16.8478 2.62436 17.7784H2.43759C2.03659 17.7776 1.69785 17.4808 1.64438 17.0835L1.56748 16.4716C2.43485 16.3452 3.03726 15.5421 2.91623 14.674L2.57987 12.1228C2.46304 11.2771 1.69858 10.6746 0.848789 10.7589L0.796787 10.3441C0.769322 10.125 0.569188 9.96968 0.350011 9.99733C0.130834 10.025 -0.0244394 10.2249 0.0030264 10.4441L0.721897 16.1592C0.722447 16.1705 0.718418 16.1808 0.719883 16.1921ZM22.0287 15.3727C21.9002 15.2032 21.8455 14.9891 21.8762 14.7788L22.2119 12.2338C22.269 11.8212 22.6356 11.5233 23.051 11.5519L22.5323 15.6767C22.3316 15.6439 22.1512 15.535 22.0287 15.3727ZM1.48966 24.1783H1.46567L2.51596 18.5784H3.23996L1.48966 24.1783ZM7.91775 24.1783H7.89413L7.15695 21.8171L7.37392 21.2845L7.91775 24.1783ZM16.1057 24.1783H16.082L16.626 21.2845L16.843 21.8171L16.1057 24.1783ZM22.5099 24.1783L20.7598 18.5784H21.4838L22.5339 24.1783H22.5099ZM17.4158 16.9782H19.4158C19.9243 16.9789 20.3773 17.2992 20.5474 17.7784H17.6615L17.3387 16.9859C17.3647 16.9843 17.3894 16.9782 17.4158 16.9782ZM16.4246 16.863L16.4255 16.8665L16.4272 16.8689L17.0227 18.3308L17.025 18.3365L19.4049 24.1783H18.6689L16.8544 19.7246C16.852 19.7187 16.85 19.7133 16.8474 19.7076L14.5949 14.1784H15.3308L16.4246 16.863ZM4.39993 12.5784H19.5999L19.6004 13.3784H4.39993V12.5784ZM9.40493 14.1784L7.14889 19.7162L7.14687 19.7211L5.33084 24.1783H4.59494L6.97494 18.3365L6.97714 18.3308L7.57186 16.8713L7.57333 16.8693L7.57406 16.866L8.66884 14.1784H9.40493ZM4.58395 16.9782H6.58383C6.61056 16.9782 6.63491 16.9843 6.6611 16.9857L6.33828 17.7784H3.45236C3.62247 17.2992 4.07547 16.9789 4.58395 16.9782ZM1.47702 11.7075C1.64603 11.8337 1.75791 12.0219 1.78739 12.2307L2.12393 14.7819C2.18509 15.2089 1.8934 15.6066 1.4675 15.6763L0.948581 11.5519C1.13773 11.5391 1.32505 11.5944 1.47702 11.7075Z" fill="#361830"/>
<path id="Vector_2" d="M8.79978 6.17803H10.3998C10.3998 7.0617 11.1161 7.778 11.9997 7.778C12.8834 7.778 13.5997 7.0617 13.5997 6.17803H15.1997C15.3681 6.17803 15.5185 6.07256 15.5758 5.91418C15.6331 5.75579 15.5851 5.57854 15.4557 5.47088L13.1996 3.59075V2.578C13.1992 2.13635 12.8413 1.77856 12.3996 1.77801V1.37811C12.3996 1.1571 12.2206 0.978027 11.9997 0.978027C11.7787 0.978027 11.5996 1.1571 11.5996 1.37811V1.77801C11.158 1.77856 10.8002 2.13635 10.7997 2.578V3.59075L8.5438 5.4707C8.41434 5.57854 8.36637 5.75579 8.42368 5.91418C8.48099 6.07256 8.63132 6.17803 8.79978 6.17803ZM11.9997 6.97802C11.5581 6.97765 11.2001 6.61968 11.1997 6.17803H12.7997C12.7993 6.61968 12.4414 6.97765 11.9997 6.97802ZM11.5996 2.578H12.3996V3.37799H11.5996V2.578ZM11.3444 4.17797H12.6551L14.095 5.37804H9.90464L11.3444 4.17797Z" fill="#361830"/>
</g>
<defs>
<clipPath id="clip0_1_3730">
<rect width="24" height="24" fill="white" transform="translate(-0.00012207 0.978027)"/>
</clipPath>
</defs>
</svg>
