<svg width="42" height="42" viewBox="0 0 42 42" fill="none" xmlns="http://www.w3.org/2000/svg">
<g id="u:user">
<path id="Vector" d="M27.4925 22.2424C29.2082 20.8925 30.4605 19.0415 31.0752 16.9468C31.6898 14.852 31.6364 12.6178 30.9221 10.5549C30.2079 8.49202 28.8684 6.70304 27.0901 5.43685C25.3118 4.17066 23.183 3.49023 21 3.49023C18.817 3.49023 16.6882 4.17066 14.9099 5.43685C13.1315 6.70304 11.7921 8.49202 11.0779 10.5549C10.3636 12.6178 10.3101 14.852 10.9248 16.9468C11.5395 19.0415 12.7918 20.8925 14.5075 22.2424C11.5676 23.4202 9.0025 25.3737 7.08556 27.8947C5.16862 30.4157 3.97173 33.4096 3.62249 36.5574C3.59721 36.7872 3.61745 37.0197 3.68204 37.2417C3.74663 37.4637 3.85431 37.6708 3.99894 37.8512C4.29103 38.2155 4.71587 38.4488 5.17999 38.4999C5.64412 38.5509 6.10952 38.4155 6.47381 38.1234C6.8381 37.8313 7.07144 37.4065 7.12249 36.9424C7.50677 33.5214 9.13795 30.362 11.7044 28.0677C14.2708 25.7735 17.5926 24.5052 21.035 24.5052C24.4774 24.5052 27.7992 25.7735 30.3656 28.0677C32.932 30.362 34.5632 33.5214 34.9475 36.9424C34.9951 37.3724 35.2003 37.7695 35.5234 38.0571C35.8466 38.3448 36.2649 38.5025 36.6975 38.4999H36.89C37.3487 38.4471 37.768 38.2151 38.0565 37.8545C38.3449 37.494 38.4792 37.034 38.43 36.5749C38.0791 33.4182 36.8758 30.4166 34.949 27.8917C33.0222 25.3668 30.4446 23.4139 27.4925 22.2424ZM21 20.9999C19.6155 20.9999 18.2621 20.5893 17.111 19.8201C15.9599 19.051 15.0627 17.9577 14.5328 16.6786C14.003 15.3996 13.8644 13.9921 14.1345 12.6342C14.4046 11.2764 15.0713 10.0291 16.0502 9.0501C17.0292 8.07114 18.2765 7.40445 19.6344 7.13436C20.9922 6.86426 22.3997 7.00288 23.6788 7.5327C24.9579 8.06251 26.0511 8.95972 26.8203 10.1109C27.5895 11.262 28 12.6154 28 13.9999C28 15.8564 27.2625 17.6368 25.9497 18.9496C24.637 20.2624 22.8565 20.9999 21 20.9999Z" fill="white"/>
</g>
</svg>
