<svg width="21" height="24" viewBox="0 0 21 24" fill="none" xmlns="http://www.w3.org/2000/svg">
<path d="M18.2537 8.3186L6.39822 1.51951C5.75671 1.14907 5.02858 0.955012 4.2878 0.957047C3.54701 0.959082 2.81996 1.15714 2.18049 1.5311C1.54102 1.90505 1.01191 2.4416 0.64691 3.08622C0.281908 3.73084 0.0940146 4.46059 0.102314 5.20133V18.8486C0.102314 19.9618 0.544526 21.0294 1.33167 21.8165C2.11881 22.6037 3.1864 23.0459 4.29959 23.0459C5.03649 23.0446 5.76015 22.85 6.39822 22.4813L18.2537 15.6822C18.8907 15.3136 19.4196 14.7838 19.7873 14.1462C20.1549 13.5086 20.3485 12.7855 20.3485 12.0495C20.3485 11.3135 20.1549 10.5904 19.7873 9.9528C19.4196 9.31519 18.8907 8.78547 18.2537 8.41678V8.3186ZM17.0264 13.4609L5.17095 20.3581C4.90523 20.5087 4.60502 20.5879 4.29959 20.5879C3.99416 20.5879 3.69395 20.5087 3.42822 20.3581C3.16325 20.2052 2.94323 19.9851 2.79027 19.7201C2.63731 19.4552 2.55681 19.1546 2.55686 18.8486V5.15224C2.55681 4.84628 2.63731 4.54569 2.79027 4.28071C2.94323 4.01572 3.16325 3.79567 3.42822 3.64269C3.69504 3.49438 3.99436 3.41428 4.29959 3.40951C4.60461 3.41577 4.90357 3.49578 5.17095 3.64269L17.0264 10.4909C17.2915 10.6438 17.5116 10.8638 17.6647 11.1288C17.8177 11.3938 17.8983 11.6944 17.8983 12.0004C17.8983 12.3064 17.8177 12.6071 17.6647 12.872C17.5116 13.137 17.2915 13.357 17.0264 13.51V13.4609Z" fill="white"/>
</svg>
