<svg width="25" height="24" viewBox="0 0 25 24" fill="none" xmlns="http://www.w3.org/2000/svg">
<g id="u:qrcode-scan">
<path id="Vector" d="M8.5 21H4.5C4.23478 21 3.98043 20.8946 3.79289 20.7071C3.60536 20.5196 3.5 20.2652 3.5 20V16C3.5 15.7348 3.39464 15.4804 3.20711 15.2929C3.01957 15.1054 2.76522 15 2.5 15C2.23478 15 1.98043 15.1054 1.79289 15.2929C1.60536 15.4804 1.5 15.7348 1.5 16V20C1.5 20.7956 1.81607 21.5587 2.37868 22.1213C2.94129 22.6839 3.70435 23 4.5 23H8.5C8.76522 23 9.01957 22.8946 9.20711 22.7071C9.39464 22.5196 9.5 22.2652 9.5 22C9.5 21.7348 9.39464 21.4804 9.20711 21.2929C9.01957 21.1054 8.76522 21 8.5 21ZM22.5 15C22.2348 15 21.9804 15.1054 21.7929 15.2929C21.6054 15.4804 21.5 15.7348 21.5 16V20C21.5 20.2652 21.3946 20.5196 21.2071 20.7071C21.0196 20.8946 20.7652 21 20.5 21H16.5C16.2348 21 15.9804 21.1054 15.7929 21.2929C15.6054 21.4804 15.5 21.7348 15.5 22C15.5 22.2652 15.6054 22.5196 15.7929 22.7071C15.9804 22.8946 16.2348 23 16.5 23H20.5C21.2956 23 22.0587 22.6839 22.6213 22.1213C23.1839 21.5587 23.5 20.7956 23.5 20V16C23.5 15.7348 23.3946 15.4804 23.2071 15.2929C23.0196 15.1054 22.7652 15 22.5 15ZM20.5 1H16.5C16.2348 1 15.9804 1.10536 15.7929 1.29289C15.6054 1.48043 15.5 1.73478 15.5 2C15.5 2.26522 15.6054 2.51957 15.7929 2.70711C15.9804 2.89464 16.2348 3 16.5 3H20.5C20.7652 3 21.0196 3.10536 21.2071 3.29289C21.3946 3.48043 21.5 3.73478 21.5 4V8C21.5 8.26522 21.6054 8.51957 21.7929 8.70711C21.9804 8.89464 22.2348 9 22.5 9C22.7652 9 23.0196 8.89464 23.2071 8.70711C23.3946 8.51957 23.5 8.26522 23.5 8V4C23.5 3.20435 23.1839 2.44129 22.6213 1.87868C22.0587 1.31607 21.2956 1 20.5 1ZM2.5 9C2.76522 9 3.01957 8.89464 3.20711 8.70711C3.39464 8.51957 3.5 8.26522 3.5 8V4C3.5 3.73478 3.60536 3.48043 3.79289 3.29289C3.98043 3.10536 4.23478 3 4.5 3H8.5C8.76522 3 9.01957 2.89464 9.20711 2.70711C9.39464 2.51957 9.5 2.26522 9.5 2C9.5 1.73478 9.39464 1.48043 9.20711 1.29289C9.01957 1.10536 8.76522 1 8.5 1H4.5C3.70435 1 2.94129 1.31607 2.37868 1.87868C1.81607 2.44129 1.5 3.20435 1.5 4V8C1.5 8.26522 1.60536 8.51957 1.79289 8.70711C1.98043 8.89464 2.23478 9 2.5 9ZM10.5 5H6.5C6.23478 5 5.98043 5.10536 5.79289 5.29289C5.60536 5.48043 5.5 5.73478 5.5 6V10C5.5 10.2652 5.60536 10.5196 5.79289 10.7071C5.98043 10.8946 6.23478 11 6.5 11H10.5C10.7652 11 11.0196 10.8946 11.2071 10.7071C11.3946 10.5196 11.5 10.2652 11.5 10V6C11.5 5.73478 11.3946 5.48043 11.2071 5.29289C11.0196 5.10536 10.7652 5 10.5 5ZM9.5 9H7.5V7H9.5V9ZM14.5 11H18.5C18.7652 11 19.0196 10.8946 19.2071 10.7071C19.3946 10.5196 19.5 10.2652 19.5 10V6C19.5 5.73478 19.3946 5.48043 19.2071 5.29289C19.0196 5.10536 18.7652 5 18.5 5H14.5C14.2348 5 13.9804 5.10536 13.7929 5.29289C13.6054 5.48043 13.5 5.73478 13.5 6V10C13.5 10.2652 13.6054 10.5196 13.7929 10.7071C13.9804 10.8946 14.2348 11 14.5 11ZM15.5 7H17.5V9H15.5V7ZM10.5 13H6.5C6.23478 13 5.98043 13.1054 5.79289 13.2929C5.60536 13.4804 5.5 13.7348 5.5 14V18C5.5 18.2652 5.60536 18.5196 5.79289 18.7071C5.98043 18.8946 6.23478 19 6.5 19H10.5C10.7652 19 11.0196 18.8946 11.2071 18.7071C11.3946 18.5196 11.5 18.2652 11.5 18V14C11.5 13.7348 11.3946 13.4804 11.2071 13.2929C11.0196 13.1054 10.7652 13 10.5 13ZM9.5 17H7.5V15H9.5V17ZM14.5 16C14.7652 16 15.0196 15.8946 15.2071 15.7071C15.3946 15.5196 15.5 15.2652 15.5 15C15.7652 15 16.0196 14.8946 16.2071 14.7071C16.3946 14.5196 16.5 14.2652 16.5 14C16.5 13.7348 16.3946 13.4804 16.2071 13.2929C16.0196 13.1054 15.7652 13 15.5 13H14.5C14.2348 13 13.9804 13.1054 13.7929 13.2929C13.6054 13.4804 13.5 13.7348 13.5 14V15C13.5 15.2652 13.6054 15.5196 13.7929 15.7071C13.9804 15.8946 14.2348 16 14.5 16ZM18.5 13C18.2348 13 17.9804 13.1054 17.7929 13.2929C17.6054 13.4804 17.5 13.7348 17.5 14V17C17.2348 17 16.9804 17.1054 16.7929 17.2929C16.6054 17.4804 16.5 17.7348 16.5 18C16.5 18.2652 16.6054 18.5196 16.7929 18.7071C16.9804 18.8946 17.2348 19 17.5 19H18.5C18.7652 19 19.0196 18.8946 19.2071 18.7071C19.3946 18.5196 19.5 18.2652 19.5 18V14C19.5 13.7348 19.3946 13.4804 19.2071 13.2929C19.0196 13.1054 18.7652 13 18.5 13ZM14.5 17C14.3022 17 14.1089 17.0586 13.9444 17.1685C13.78 17.2784 13.6518 17.4346 13.5761 17.6173C13.5004 17.8 13.4806 18.0011 13.5192 18.1951C13.5578 18.3891 13.653 18.5673 13.7929 18.7071C13.9327 18.847 14.1109 18.9422 14.3049 18.9808C14.4989 19.0194 14.7 18.9996 14.8827 18.9239C15.0654 18.8482 15.2216 18.72 15.3315 18.5556C15.4414 18.3911 15.5 18.1978 15.5 18C15.5 17.7348 15.3946 17.4804 15.2071 17.2929C15.0196 17.1054 14.7652 17 14.5 17Z" fill="white"/>
</g>
</svg>
