<svg width="24" height="24" viewBox="0 0 24 24" fill="none" xmlns="http://www.w3.org/2000/svg">
<g id="Icon">
<path id="&#240;&#159;&#142;&#168;-Color" d="M3.04898 19.9775L8.54897 5.48238C8.77941 4.87505 9.60159 4.83938 9.90159 5.37528L9.95144 5.48247L15.4514 19.983C15.5983 20.3702 15.4035 20.8033 15.0162 20.9502C14.6611 21.0848 14.2677 20.9323 14.0914 20.6076L14.0489 20.5149L12.335 15.998H6.163L4.45142 20.5097C4.31672 20.8647 3.9416 21.058 3.58171 20.9745L3.48413 20.9448C3.12913 20.8101 2.93585 20.435 3.01928 20.0751L3.04898 19.9775ZM9.25006 7.86291L6.732 14.498H11.767L9.25006 7.86291ZM14.8437 3.39055C15.0423 3.02705 15.498 2.89337 15.8615 3.09197C17.9472 4.23151 19.513 5.69464 20.5432 7.47906C21.5735 9.26347 22.0577 11.351 22.0017 13.7271C21.9919 14.1412 21.6483 14.469 21.2342 14.4592C20.8201 14.4495 20.4923 14.1059 20.5021 13.6918C20.5518 11.5804 20.1306 9.7644 19.2442 8.22906C18.3577 6.69371 16.9956 5.42089 15.1423 4.40831C14.7788 4.20972 14.6451 3.75405 14.8437 3.39055ZM14.6064 6.99204C14.8047 6.62837 15.2603 6.49432 15.6239 6.69261C16.5909 7.21989 17.3659 7.98725 17.9402 8.98192C18.5145 9.9766 18.7915 11.0314 18.7646 12.1325C18.7545 12.5466 18.4107 12.8741 17.9966 12.864C17.5825 12.8539 17.255 12.51 17.2651 12.0959C17.2851 11.2743 17.0794 10.491 16.6411 9.73192C16.2029 8.97286 15.6274 8.40299 14.9058 8.00956C14.5422 7.81126 14.4081 7.3557 14.6064 6.99204Z" fill="white" stroke="white" stroke-width="0.5"/>
</g>
</svg>
