<svg width="136" height="128" viewBox="0 0 136 128" fill="none" xmlns="http://www.w3.org/2000/svg">
<g id="Group 1000004089">
<g id="Furniture">
<g id="Group">
<g id="Group_2">
<path id="Vector" d="M76.8966 32.396L131.091 32.396V30.3532L76.8966 30.3532V32.396Z" stroke="#D9B891" stroke-miterlimit="10" stroke-linecap="round" stroke-linejoin="round"/>
<path id="Vector_2" d="M79.4103 87.6367H128.578V32.4546L79.4103 32.4546V87.6367Z" stroke="#D9B891" stroke-miterlimit="10" stroke-linecap="round" stroke-linejoin="round"/>
<g id="Group_3">
<path id="Vector_3" d="M81.1788 46.9951L126.866 46.9951V35.0218L81.1788 35.0218V46.9951Z" stroke="#D9B891" stroke-miterlimit="10" stroke-linecap="round" stroke-linejoin="round"/>
<path id="Vector_4" d="M101.817 42.1113H106.386V39.9059H101.817V42.1113Z" fill="#999999" stroke="#D9B891" stroke-miterlimit="10" stroke-linecap="round" stroke-linejoin="round"/>
</g>
<g id="Group_4">
<path id="Vector_5" d="M81.1788 62.1191L126.866 62.1191V50.1458L81.1788 50.1458V62.1191Z" stroke="#D9B891" stroke-miterlimit="10" stroke-linecap="round" stroke-linejoin="round"/>
<path id="Vector_6" d="M101.817 57.2363H106.386V55.0305H101.817V57.2363Z" fill="#999999" stroke="#D9B891" stroke-miterlimit="10" stroke-linecap="round" stroke-linejoin="round"/>
</g>
<g id="Group_5">
<path id="Vector_7" d="M81.1788 77.3145H126.866V65.3411H81.1788V77.3145Z" stroke="#D9B891" stroke-miterlimit="10" stroke-linecap="round" stroke-linejoin="round"/>
<path id="Vector_8" d="M101.817 72.4307H106.386V70.2252H101.817V72.4307Z" fill="#999999" stroke="#D9B891" stroke-miterlimit="10" stroke-linecap="round" stroke-linejoin="round"/>
</g>
</g>
<g id="Group_6">
<path id="Vector_9" d="M106.244 6.2106C106.798 6.45272 108.154 6.42227 108.154 6.42227C108.168 6.4219 107.863 5.53512 107.837 5.48165C107.54 4.85964 106.6 3.83287 105.835 3.93648C105.284 4.01112 104.978 4.56256 105.102 5.08134C105.229 5.6105 105.772 6.00413 106.244 6.2106Z" fill="#628754"/>
<path id="Vector_10" d="M119.949 6.50875C119.961 6.51618 120.196 5.60823 120.204 5.54919C120.299 4.86628 120.081 3.49156 119.386 3.15586C118.885 2.91412 118.325 3.20488 118.143 3.7062C117.957 4.21828 118.193 4.8466 118.473 5.27885C118.801 5.78611 119.948 6.50838 119.949 6.50875Z" fill="#628754"/>
<path id="Vector_11" d="M123.993 1.59891C123.225 1.51647 122.313 2.56813 122.033 3.19793C122.009 3.25252 121.728 4.1471 121.742 4.14673C121.742 4.14673 121.755 4.14673 121.758 4.14673C121.613 4.3116 121.459 4.49022 121.295 4.68852C120.995 5.05727 120.659 5.47689 120.324 5.95815C119.989 6.43793 119.637 6.96896 119.318 7.56163C118.997 8.15504 118.69 8.79598 118.458 9.49708C118.456 9.50488 118.454 9.5138 118.451 9.5216C118.455 9.29545 118.445 8.66304 118.439 8.61439C118.351 7.93074 117.778 6.66185 117.018 6.52148C116.471 6.42048 116.008 6.84901 115.965 7.38078C115.92 7.92369 116.314 8.46734 116.698 8.81046C117.131 9.19741 118.333 9.57173 118.429 9.60143C118.215 10.2713 118.05 10.9762 117.921 11.6984C117.848 12.1114 117.786 12.5295 117.73 12.9499C117.727 12.7542 117.723 12.5796 117.72 12.5551C117.631 11.8715 117.059 10.6026 116.299 10.4626C115.752 10.3616 115.289 10.7901 115.246 11.3219C115.201 11.8652 115.595 12.4084 115.979 12.7516C116.369 13.0995 117.387 13.4397 117.658 13.5258C117.638 13.6874 117.616 13.8482 117.597 14.0097C117.504 14.7843 117.415 15.5578 117.305 16.3139C117.266 16.5805 117.218 16.8412 117.171 17.1026C117.168 16.9289 117.164 16.7825 117.161 16.7602C117.073 16.0766 116.5 14.8077 115.741 14.6677C115.194 14.5667 114.73 14.9949 114.687 15.527C114.642 16.0699 115.036 16.6136 115.42 16.9567C115.792 17.2887 116.729 17.611 117.051 17.715C116.994 17.9809 116.939 18.2475 116.872 18.503C116.822 18.6764 116.787 18.8465 116.728 19.018C116.673 19.1889 116.618 19.3578 116.564 19.5253C116.448 19.8439 116.33 20.1737 116.209 20.4819C116.127 20.6969 116.044 20.9 115.961 21.105C116.003 20.8402 116.074 20.3204 116.075 20.2762C116.086 19.8183 115.923 19.0737 115.599 18.5505C115.601 18.4829 115.598 18.4153 115.587 18.3485C115.502 17.8219 115.007 17.4305 114.47 17.5735C113.724 17.7722 113.251 19.0815 113.215 19.7696C113.213 19.8101 113.24 20.2535 113.261 20.5328C113.224 20.3705 113.189 20.2127 113.149 20.0459C113.07 19.7162 112.983 19.389 112.889 19.037C112.838 18.8684 112.787 18.6983 112.735 18.5268C112.687 18.3552 112.615 18.1803 112.555 18.005C112.407 17.6017 112.238 17.2003 112.059 16.7992C112.347 16.7302 113.369 16.4695 113.779 16.1546C114.188 15.8412 114.621 15.3283 114.617 14.7836C114.614 14.2499 114.183 13.7884 113.631 13.8482C112.863 13.9313 112.197 15.1538 112.058 15.8293C112.049 15.8713 112.004 16.367 111.984 16.6396C111.874 16.3993 111.766 16.1594 111.647 15.9199C111.304 15.2292 110.935 14.5407 110.571 13.8522C110.459 13.6413 110.35 13.43 110.24 13.2187C110.343 13.1953 111.564 12.912 112.024 12.5592C112.432 12.2458 112.865 11.733 112.861 11.1882C112.858 10.6546 112.428 10.193 111.875 10.2531C111.107 10.3367 110.441 11.5592 110.302 12.2343C110.292 12.2852 110.227 12.9985 110.22 13.1805C109.978 12.7152 109.741 12.2491 109.527 11.7805C109.23 11.134 108.975 10.4834 108.774 9.83464C108.822 9.82387 110.098 9.53385 110.568 9.17253C110.977 8.85911 111.41 8.34628 111.406 7.80152C111.402 7.26789 110.972 6.80631 110.42 6.8661C109.652 6.94928 108.986 8.17212 108.847 8.84686C108.838 8.89142 108.788 9.43507 108.77 9.6939C108.746 9.6965 108.751 9.69613 108.727 9.69872C108.52 9.00096 108.407 8.29949 108.334 7.63738C108.291 7.25415 108.271 6.88503 108.26 6.52594C108.503 6.49623 109.613 6.34844 110.073 6.0703C110.513 5.80367 111 5.34172 111.056 4.79955C111.111 4.2689 110.734 3.76238 110.178 3.76164C109.406 3.76015 108.61 4.90241 108.398 5.55784C108.386 5.59349 108.308 5.96892 108.256 6.24335C108.253 6.08107 108.248 5.91396 108.249 5.75837C108.25 5.17461 108.287 4.64024 108.323 4.16715C108.346 3.89829 108.372 3.6558 108.399 3.42891C108.623 3.27517 109.515 2.645 109.79 2.19455C110.058 1.75488 110.277 1.12062 110.077 0.61373C109.881 0.11724 109.313 -0.158299 108.819 0.0968166C108.134 0.451453 107.953 1.83175 108.067 2.51169C108.076 2.57036 108.336 3.47162 108.347 3.46382C108.347 3.46382 108.358 3.45639 108.36 3.45453C108.33 3.67214 108.301 3.90609 108.273 4.16195C108.226 4.63505 108.177 5.17015 108.164 5.75651C108.148 6.34212 108.148 6.97861 108.209 7.64926C108.268 8.3214 108.365 9.02547 108.559 9.73809C108.561 9.74626 108.565 9.75443 108.567 9.76223C108.445 9.57135 108.088 9.04924 108.056 9.01248C107.605 8.49111 106.428 7.74916 105.717 8.05069C105.205 8.26793 105.055 8.88102 105.312 9.34855C105.575 9.8261 106.203 10.0623 106.712 10.1365C107.287 10.2201 108.496 9.86954 108.592 9.84132C108.783 10.5183 109.034 11.1975 109.326 11.8707C109.492 12.2558 109.671 12.6387 109.856 13.02C109.746 12.8585 109.646 12.7148 109.63 12.6962C109.179 12.1749 108.001 11.4329 107.291 11.7344C106.778 11.9517 106.629 12.5648 106.886 13.0323C107.148 13.5099 107.777 13.746 108.286 13.8203C108.803 13.8957 109.84 13.6175 110.114 13.5403C110.186 13.6859 110.257 13.8322 110.33 13.9774C110.68 14.6744 111.032 15.3688 111.357 16.0603C111.472 16.3039 111.576 16.5482 111.681 16.7918C111.583 16.6485 111.499 16.5285 111.484 16.5115C111.033 15.9901 109.855 15.2481 109.144 15.5497C108.632 15.7669 108.483 16.38 108.74 16.8475C109.002 17.3251 109.63 17.5613 110.14 17.6355C110.633 17.7076 111.593 17.4591 111.918 17.3689C112.018 17.6218 112.118 17.875 112.203 18.1246C112.258 18.2965 112.322 18.458 112.367 18.6337C112.416 18.8067 112.463 18.9776 112.511 19.1473C112.59 19.477 112.673 19.8168 112.742 20.1406C112.792 20.3653 112.835 20.5803 112.88 20.7972C112.769 20.5532 112.541 20.0805 112.517 20.0433C112.15 19.4596 111.099 18.5479 110.35 18.7384C109.812 18.8758 109.571 19.4588 109.754 19.9598C109.941 20.4715 110.526 20.8001 111.018 20.9509C111.561 21.1165 112.761 20.965 112.911 20.9453C112.983 21.3041 113.049 21.6535 113.107 21.9844C113.234 22.7096 113.331 23.3595 113.405 23.9109H110.363V30.3077H118.36V23.9109H115.268C115.468 23.4657 115.688 22.9595 115.917 22.3988C116.059 22.0553 116.203 21.6854 116.347 21.3044C116.493 21.3349 117.681 21.5763 118.235 21.4511C118.737 21.3375 119.345 21.0534 119.569 20.5573C119.79 20.0712 119.593 19.4718 119.066 19.2947C118.334 19.0489 117.217 19.8799 116.808 20.4344C116.784 20.467 116.562 20.8514 116.425 21.0961C116.483 20.9401 116.542 20.7894 116.599 20.6278C116.716 20.3096 116.823 19.9884 116.94 19.6434C116.99 19.4748 117.041 19.3043 117.093 19.1324C117.147 18.9631 117.184 18.777 117.23 18.5977C117.33 18.1799 117.41 17.7518 117.482 17.3184C117.761 17.4201 118.757 17.7666 119.273 17.7302C119.786 17.6942 120.431 17.5055 120.728 17.0488C121.019 16.6017 120.915 15.9793 120.421 15.7246C119.735 15.3707 118.505 16.0231 118.016 16.5092C117.986 16.5393 117.674 16.9277 117.507 17.1442C117.548 16.8835 117.591 16.6236 117.623 16.3581C117.718 15.5927 117.791 14.8151 117.866 14.0398C117.889 13.8021 117.915 13.5659 117.94 13.329C118.039 13.3661 119.214 13.8036 119.792 13.7631C120.305 13.7271 120.949 13.5385 121.247 13.0817C121.538 12.6346 121.434 12.0122 120.94 11.7575C120.254 11.4036 119.024 12.056 118.535 12.5421C118.499 12.5789 118.051 13.1381 117.944 13.2859C117.999 12.7646 118.059 12.2454 118.139 11.7359C118.248 11.033 118.394 10.3493 118.584 9.69724C118.63 9.71469 119.854 10.1766 120.446 10.1351C120.959 10.099 121.604 9.9104 121.901 9.45364C122.192 9.00654 122.088 8.38416 121.594 8.12941C120.908 7.77552 119.678 8.42798 119.19 8.91407C119.158 8.94601 118.816 9.37157 118.659 9.57804C118.637 9.5669 118.641 9.56876 118.62 9.55762C118.832 8.86171 119.125 8.21445 119.429 7.62178C119.605 7.27829 119.792 6.95968 119.981 6.65406C120.2 6.7636 121.207 7.25266 121.744 7.27383C122.258 7.29426 122.919 7.17766 123.265 6.75655C123.604 6.34398 123.569 5.71418 123.105 5.40633C122.462 4.97928 121.169 5.49248 120.629 5.92213C120.6 5.94552 120.329 6.21587 120.133 6.41565C120.22 6.279 120.308 6.1364 120.395 6.0068C120.717 5.52033 121.043 5.09514 121.335 4.72045C121.502 4.50879 121.658 4.32088 121.805 4.14635C122.076 4.14152 123.168 4.10848 123.646 3.88418C124.112 3.66546 124.645 3.25698 124.757 2.72372C124.867 2.20161 124.546 1.65833 123.993 1.59891ZM115.495 22.219C115.218 22.8585 114.954 23.4256 114.72 23.909H113.91C113.822 23.3387 113.707 22.6598 113.556 21.8986C113.484 21.5343 113.401 21.1462 113.311 20.7485C113.401 20.7129 113.913 20.5057 114.366 20.2524C114.761 20.6802 115.774 21.1811 115.905 21.2446C115.767 21.5833 115.63 21.9116 115.495 22.219Z" fill="#628754"/>
</g>
</g>
</g>
<g id="Plant">
<g id="Group_7">
<g id="Group_8">
<g id="Group_9">
<g id="Group_10">
<path id="Vector_12" d="M10.0551 68.4207C10.0551 68.4207 10.0364 67.5068 9.14514 66.8335C8.60894 66.4285 5.8898 65.5381 5.71623 66.4842C5.5275 67.5135 8.38027 69.2704 10.0551 68.4207Z" fill="#628754"/>
</g>
<g id="Group_11">
<path id="Vector_13" d="M10.9267 73.0584C10.9267 73.0584 10.9081 72.1445 10.0168 71.4712C9.48096 71.0662 6.76144 70.1758 6.58787 71.1219C6.39914 72.1512 9.25194 73.9085 10.9267 73.0584Z" fill="#628754"/>
</g>
<g id="Group_12">
<path id="Vector_14" d="M7.92802 57.1033C7.92802 57.1033 7.90936 56.1894 7.01807 55.5162C6.48187 55.1111 3.76272 54.2207 3.58915 55.1668C3.40042 56.1961 6.25322 57.9534 7.92802 57.1033Z" fill="#628754"/>
</g>
<g id="Group_13">
<path id="Vector_15" d="M8.7996 61.741C8.7996 61.741 8.78057 60.8271 7.88965 60.1538C7.35345 59.7488 4.63431 58.8584 4.46074 59.8045C4.272 60.8338 7.12481 62.5911 8.7996 61.741Z" fill="#628754"/>
</g>
<g id="Group_14">
<path id="Vector_16" d="M6.51188 49.5696C6.51188 49.5696 6.49285 48.6557 5.60193 47.9825C5.06573 47.5774 2.34659 46.687 2.17302 47.6331C1.98429 48.6624 4.83706 50.4193 6.51188 49.5696Z" fill="#628754"/>
</g>
<g id="Group_15">
<path id="Vector_17" d="M5.08976 42.0032C5.08976 42.0032 5.07073 41.0893 4.17981 40.416C3.64361 40.011 0.924468 39.1206 0.750898 40.0667C0.562166 41.096 3.41494 42.8529 5.08976 42.0032Z" fill="#628754"/>
</g>
<g id="Group_16">
<path id="Vector_18" d="M11.864 65.2363C11.864 65.2363 11.55 64.3783 12.1356 63.4271C12.4881 62.855 14.6984 61.0381 15.2037 61.8566C15.7533 62.7472 13.7331 65.4199 11.864 65.2363Z" fill="#628754"/>
</g>
<g id="Group_17">
<path id="Vector_19" d="M9.57001 53.0318C9.57001 53.0318 9.25599 52.1737 9.8416 51.2225C10.1941 50.6504 12.4044 48.8335 12.9097 49.652C13.4592 50.5426 11.4391 53.2154 9.57001 53.0318Z" fill="#628754"/>
</g>
<g id="Group_18">
<path id="Vector_20" d="M8.5617 47.6675C8.5617 47.6675 8.24766 46.8091 8.8333 45.8583C9.18582 45.2861 11.3961 43.4693 11.9018 44.2878C12.4509 45.1783 10.4312 47.8514 8.5617 47.6675Z" fill="#628754"/>
</g>
<g id="Group_19">
<path id="Vector_21" d="M7.08398 39.8052C7.08398 39.8052 6.76997 38.9471 7.35558 37.996C7.7081 37.4238 9.91841 35.607 10.4237 36.4255C10.9732 37.316 8.95308 39.9892 7.08398 39.8052Z" fill="#628754"/>
<path id="Vector_22" d="M5.14569 36.5596C5.14569 36.5596 4.83167 35.7015 5.41729 34.7504C5.7698 34.1782 7.98012 32.3614 8.48538 33.1799C9.03493 34.0704 7.01476 36.7432 5.14569 36.5596Z" fill="#628754"/>
<path id="Vector_23" d="M5.28405 36.6415C5.28405 36.6415 4.39763 36.8639 3.51342 36.1815C2.98123 35.771 1.40607 33.3821 2.27323 32.9656C3.21636 32.5124 5.6627 34.8019 5.28405 36.6415Z" fill="#628754"/>
</g>
</g>
</g>
<g id="Group_20">
<g id="Group_21">
<g id="Group_22">
<path id="Vector_24" d="M15.5849 71.8739C15.5849 71.8739 16.1161 71.1302 15.8043 70.0577C15.6169 69.4127 13.9692 67.0729 13.2642 67.7275C12.4977 68.4399 13.734 71.554 15.5849 71.8739Z" fill="#628754"/>
</g>
<g id="Group_23">
<path id="Vector_25" d="M20.6455 61.5301C20.6455 61.5301 21.1767 60.7864 20.8649 59.714C20.6775 59.0689 19.0298 56.7291 18.3248 57.3838C17.5588 58.0959 18.7951 61.21 20.6455 61.5301Z" fill="#628754"/>
</g>
<g id="Group_24">
<path id="Vector_26" d="M18.5719 65.7685C18.5719 65.7685 19.1031 65.0247 18.7913 63.9523C18.6039 63.3072 16.9562 60.9674 16.2512 61.6221C15.4847 62.3345 16.721 65.4485 18.5719 65.7685Z" fill="#628754"/>
</g>
<g id="Group_25">
<path id="Vector_27" d="M24.0147 54.6449C24.0147 54.6449 24.5459 53.9012 24.2341 52.8287C24.0467 52.1837 22.399 49.8439 21.694 50.4985C20.9275 51.2109 22.164 54.3247 24.0147 54.6449Z" fill="#628754"/>
</g>
<g id="Group_26">
<path id="Vector_28" d="M27.3985 47.7294C27.3985 47.7294 27.9296 46.9856 27.6178 45.9132C27.4305 45.2682 25.7827 42.9283 25.0778 43.583C24.3114 44.2951 25.5477 47.4091 27.3985 47.7294Z" fill="#628754"/>
</g>
<g id="Group_27">
<path id="Vector_29" d="M18.9389 70.4028C18.9389 70.4028 19.2 69.5271 20.2381 69.1149C20.8626 68.867 23.7209 68.7322 23.6363 69.6904C23.5447 70.7327 20.3273 71.6673 18.9389 70.4028Z" fill="#628754"/>
</g>
<g id="Group_28">
<path id="Vector_30" d="M24.3965 59.247C24.3965 59.247 24.6577 58.371 25.6957 57.9591C26.3202 57.7112 29.1785 57.5764 29.0939 58.5347C29.0026 59.5771 25.7851 60.512 24.3965 59.247Z" fill="#628754"/>
</g>
<g id="Group_29">
<path id="Vector_31" d="M26.7949 54.3461C26.7949 54.3461 27.0562 53.4701 28.0942 53.0582C28.7187 52.8104 31.577 52.6755 31.4928 53.6339C31.4007 54.6761 28.1832 55.611 26.7949 54.3461Z" fill="#628754"/>
</g>
<g id="Group_30">
<path id="Vector_32" d="M30.3111 47.1596C30.3111 47.1596 30.5723 46.2836 31.6103 45.8717C32.2348 45.6238 35.0931 45.489 35.0085 46.4473C34.9169 47.4895 31.6994 48.4245 30.3111 47.1596Z" fill="#628754"/>
<path id="Vector_33" d="M30.6977 43.3984C30.6977 43.3984 30.9589 42.5224 31.9969 42.1105C32.6214 41.8626 35.4797 41.7278 35.3951 42.686C35.3035 43.7283 32.086 44.6632 30.6977 43.3984Z" fill="#628754"/>
<path id="Vector_34" d="M30.7596 43.547C30.7596 43.547 29.9159 43.1955 29.6151 42.12C29.434 41.4729 29.5997 38.6161 30.5438 38.8007C31.5707 39.0011 32.1629 42.2989 30.7596 43.547Z" fill="#628754"/>
</g>
</g>
</g>
<g id="Group_31">
<g id="Group_32">
<path id="Vector_35" d="M13.4014 70.4837C13.4014 70.4837 13.6791 69.6128 13.0537 68.6877C12.6774 68.131 10.3915 66.4093 9.92142 67.2487C9.40991 68.1616 11.5415 70.7464 13.4014 70.4837Z" fill="#628754"/>
</g>
<g id="Group_33">
<path id="Vector_36" d="M14.8029 60.7767C14.8029 60.7767 15.0806 59.9058 14.4552 58.9807C14.079 58.4239 11.7931 56.7023 11.323 57.5416C10.8115 58.4545 12.9431 61.0394 14.8029 60.7767Z" fill="#628754"/>
</g>
<g id="Group_34">
<path id="Vector_37" d="M16.4485 49.3792C16.4485 49.3792 16.7262 48.5083 16.1008 47.5832C15.7245 47.0265 13.4387 45.3048 12.9685 46.1442C12.457 47.0571 14.5886 49.6419 16.4485 49.3792Z" fill="#628754"/>
</g>
<g id="Group_35">
<path id="Vector_38" d="M17.544 41.7923C17.544 41.7923 17.8217 40.9214 17.1963 39.9963C16.8201 39.4396 14.5342 37.7179 14.0641 38.5573C13.5525 39.4702 15.6841 42.055 17.544 41.7923Z" fill="#628754"/>
</g>
<g id="Group_36">
<path id="Vector_39" d="M18.6443 34.1722C18.6443 34.1722 18.922 33.3013 18.2965 32.3762C17.9203 31.8194 15.6344 30.0978 15.1643 30.9371C14.6528 31.8501 16.7844 34.4349 18.6443 34.1722Z" fill="#628754"/>
</g>
<g id="Group_37">
<path id="Vector_40" d="M15.3149 73.786C15.3149 73.786 15.2949 72.8721 16.1565 72.1617C16.6748 71.7341 19.3543 70.7294 19.5678 71.6675C19.7998 72.6878 17.0241 74.564 15.3149 73.786Z" fill="#628754"/>
</g>
<g id="Group_38">
<path id="Vector_41" d="M17.5441 58.347C17.5441 58.347 17.5241 57.4331 18.3857 56.7227C18.904 56.2952 21.5836 55.2905 21.7971 56.2285C22.0291 57.2488 19.2533 59.1255 17.5441 58.347Z" fill="#628754"/>
</g>
<g id="Group_39">
<path id="Vector_42" d="M18.6443 50.7274C18.6443 50.7274 18.6243 49.8135 19.4859 49.1031C20.0042 48.6756 22.6837 47.6708 22.8972 48.6089C23.1292 49.6295 20.3534 51.5058 18.6443 50.7274Z" fill="#628754"/>
</g>
<g id="Group_40">
<path id="Vector_43" d="M20.0985 40.6556C20.0985 40.6556 20.0785 39.7417 20.9401 39.0313C21.4585 38.6038 24.138 37.5991 24.3515 38.5371C24.5835 39.5574 21.8078 41.4337 20.0985 40.6556Z" fill="#628754"/>
</g>
<g id="Group_41">
<path id="Vector_44" d="M21.242 32.7367C21.242 32.7367 21.222 31.8228 22.0836 31.1124C22.6019 30.6848 25.2815 29.6801 25.4949 30.6182C25.727 31.6384 22.9512 33.5147 21.242 32.7367Z" fill="#628754"/>
<path id="Vector_45" d="M20.4568 29.0374C20.4568 29.0374 20.4368 28.1236 21.2984 27.4132C21.8167 26.9856 24.4959 25.9808 24.7097 26.919C24.9421 27.9393 22.1663 29.8159 20.4568 29.0374Z" fill="#628754"/>
<path id="Vector_46" d="M20.561 29.1609C20.561 29.1609 19.6501 29.0849 19.0338 28.1536C18.663 27.5932 17.9448 24.8233 18.9 24.7095C19.9392 24.5853 21.5143 27.5426 20.561 29.1609Z" fill="#628754"/>
</g>
</g>
<path id="Vector_47" d="M18.2304 88.0017H11.1044L10.214 74.2988H19.1208L18.2304 88.0017Z" fill="#FEB250"/>
<path id="Vector_48" fill-rule="evenodd" clip-rule="evenodd" d="M18.475 73.5013C18.545 72.3969 19.8733 68.3144 20.2919 66.9852C21.5225 63.0432 22.8779 58.8765 24.3321 55.003C24.5976 54.29 24.9048 53.3811 25.3102 52.7383C24.9184 52.7383 23.5351 56.2062 23.3675 56.6249C22.2074 59.52 17.8041 71.4179 17.6364 73.6413C17.65 73.8786 17.846 74.0464 18.0696 74.0047C18.2936 73.9628 18.475 73.7386 18.475 73.5013Z" fill="black"/>
<path id="Vector_49" fill-rule="evenodd" clip-rule="evenodd" d="M14.6731 73.8363C15.3581 65.5879 17.0213 57.3381 17.7764 49.1166C17.8605 48.1523 17.9719 47.1734 17.9295 46.2085C17.7336 47.1457 17.6363 48.1795 17.5104 49.1308C16.3786 57.3241 14.6453 65.6993 13.848 73.8649C13.8344 74.1163 14.0022 74.2841 14.2253 74.2841C14.463 74.2701 14.6591 74.0745 14.6731 73.8363Z" fill="black"/>
<path id="Vector_50" fill-rule="evenodd" clip-rule="evenodd" d="M11.6815 73.7247C11.8633 70.2573 10.3114 64.0349 9.13729 60.9177C8.98372 60.5259 9.03968 60.6516 8.84363 60.2881C8.88647 60.7354 8.85771 60.5537 8.95592 60.9873C9.73868 64.5529 11.1647 70.0472 10.857 73.7524C10.8288 73.9908 10.997 74.1863 11.2201 74.1716C11.4578 74.1716 11.6679 73.9625 11.6815 73.7247Z" fill="black"/>
</g>
</g>
<g id="Floor">
<g id="Group_42">
<path id="Vector_51" d="M89.6873 92.4941L135.839 92.4941" stroke="#D9B891" stroke-miterlimit="10"/>
<path id="Vector_52" d="M0.866455 92.4941L87.3652 92.4941" stroke="#D9B891" stroke-miterlimit="10"/>
</g>
</g>
<g id="Character">
<g id="Group_43">
<path id="Vector_53" d="M70.2997 11.7192H65.2997C64.7475 11.7192 64.2997 12.167 64.2997 12.7192V24.7192C64.2997 25.2715 64.7475 25.7192 65.2997 25.7192H70.2997C70.852 25.7192 71.2997 25.2715 71.2997 24.7192V12.7192C71.2997 12.167 70.852 11.7192 70.2997 11.7192Z" fill="white" stroke="#151515" stroke-width="0.6" stroke-miterlimit="10"/>
<path id="Vector 17" d="M66.2997 15.7192H65.2998V16.7192" stroke="black" stroke-width="0.2"/>
<path id="Vector 19" d="M66.2997 20.7192H65.2998V19.7192" stroke="black" stroke-width="0.2"/>
<path id="Vector 18" d="M69.2998 15.7192H70.2997V16.7192" stroke="black" stroke-width="0.2"/>
<path id="Vector 20" d="M69.2998 20.7192H70.2997V19.7192" stroke="black" stroke-width="0.2"/>
<g id="Group_44">
<path id="Vector_54" d="M26.3699 65.9102C28.0848 65.9474 29.5929 65.2741 30.5743 64.6855C30.4934 67.0544 30.431 68.8483 30.431 68.8483C30.431 68.8483 30.8395 69.5632 31.0437 69.8695C31.2479 70.1759 32.9836 71.1971 33.1879 72.1158C33.3921 73.0349 34.3112 73.5455 34.2091 74.8727C34.1069 76.2003 32.9836 74.7706 33.1879 75.0769C33.3921 75.3833 34.0048 76.4045 34.0048 77.3232C34.0048 78.2419 32.0649 78.2423 31.3501 77.6296C30.6352 77.0169 28.2868 75.5875 28.0826 74.26L27.2872 71.2977L26.3699 65.9102Z" fill="#FE9365"/>
<path id="Vector_55" d="M30.6104 73.2725L31.1054 75.5005C31.1054 75.5005 32.7145 76.7382 32.8385 77.605" fill="#FE9365"/>
</g>
<g id="Group_45">
<g id="Group_46">
<path id="Vector_56" d="M38.6333 120.349C38.6333 120.349 38.0521 125.127 38.504 125.708C38.956 126.289 39.6664 127 40.6994 127.128C41.7325 127.258 43.476 126.676 43.476 126.676C43.476 126.676 45.2195 127.193 47.0918 126.999C48.9641 126.805 50.1911 126.095 50.3203 125.191C50.4495 124.287 48.8353 123.9 47.9314 122.931C47.0276 121.963 45.5879 120.247 45.5879 120.247L45.2195 118.992C45.2195 118.992 43.0241 120.09 41.6037 120.155C40.1833 120.219 39.2148 119.961 39.2148 119.961L38.6333 120.349Z" fill="#333333"/>
<path id="Vector_57" d="M50.3204 125.192C50.3364 125.079 50.3256 124.974 50.2922 124.876C49.8629 125.052 49.3163 125.267 48.6419 125.515C46.705 126.225 45.7361 125.644 44.7676 125.644C43.7992 125.644 43.7346 126.677 41.0226 125.967C39.2509 125.502 38.5843 124.902 38.3333 124.541C38.3385 125.111 38.3857 125.556 38.5045 125.709C38.9564 126.29 39.6668 127 40.6999 127.129C41.733 127.258 43.4765 126.677 43.4765 126.677C43.4765 126.677 45.2199 127.194 47.0923 127C48.9646 126.806 50.1912 126.095 50.3204 125.192Z" fill="#333333"/>
</g>
<path id="Vector_58" d="M35.1902 61.0174C35.1902 61.0174 32.5908 69.744 33.5191 75.8713C34.4475 81.9985 38.9036 93.5102 38.9036 93.5102C38.9036 93.5102 38.3466 97.7807 38.3466 99.2661C38.3466 100.751 37.0469 103.537 37.9753 106.507C38.9036 109.478 38.9036 117.276 38.9036 117.833C38.9036 118.39 38.5323 121.361 38.5323 121.361C38.5323 121.361 39.275 122.475 42.0601 122.475C44.8452 122.475 45.5879 120.247 45.5879 120.247C45.5879 120.247 48.373 103.722 48.373 101.123C48.373 98.5234 51.3438 88.8684 52.4578 84.9693C53.5718 81.0701 54.9299 78.5877 55.6726 77.288C56.4152 75.9882 55.9856 60.2747 55.9856 60.2747L34.8188 58.418L35.1902 61.0174Z" fill="#686868"/>
</g>
<g id="Group_47">
<g id="Group_48">
<path id="Vector_59" d="M49.8038 121.575C49.8038 121.575 52.5804 122.673 53.9362 123.319C55.2919 123.964 56.1962 124.029 56.1962 125.062C56.1962 126.095 53.7427 127.128 52.2577 127.386C50.7727 127.644 48.3834 127.58 48.1253 127.644C47.8669 127.709 43.0245 128.419 42.4433 127.193C41.8622 125.966 42.508 121.769 42.508 121.769C42.508 121.769 45.8653 122.479 49.8038 121.575Z" fill="#333333"/>
<path id="Vector_60" d="M48.125 127.645C48.3831 127.58 50.7724 127.645 52.2574 127.387C53.7424 127.129 56.1959 126.095 56.1959 125.062C56.1959 124.909 56.174 124.78 56.1357 124.664C55.6266 124.961 54.9638 125.314 54.1943 125.643C52.3862 126.418 49.9974 126.935 46.3816 126.87C44.4205 126.835 43.0718 126.572 42.244 126.339C42.2812 126.686 42.3439 126.983 42.4431 127.193C43.0242 128.42 47.8669 127.709 48.125 127.645Z" fill="#333333"/>
</g>
<path id="Vector_61" d="M56.1712 61.7598C56.1712 61.7598 57.2853 76.7993 55.0572 88.1254C52.8291 99.4514 49.1156 114.862 48.93 115.605C48.7443 116.348 50.2297 118.39 50.2297 118.39V121.361C50.2297 121.361 48.93 122.661 45.9592 123.032C42.9884 123.403 42.0601 122.475 42.0601 122.475C42.0601 122.475 41.3174 117.462 41.3174 113.934C41.3174 110.406 42.0601 98.3374 42.0601 98.3374C42.0601 98.3374 43.7311 86.083 43.5454 84.2262C43.3598 82.3695 42.8027 76.6136 42.8027 76.6136L39.832 73.0858" fill="#737373"/>
</g>
<g id="Group_49">
<g id="Group_50">
<g id="Group_51">
<path id="Vector_62" d="M24.9626 58.9321L30.8031 57.9061C30.7771 58.6978 30.9416 53.7002 30.9416 53.3278C30.9416 52.5108 32.8816 47.4055 32.8816 47.4055C32.8816 47.4055 34.413 54.0426 34.413 54.8596C34.413 55.6765 33.8003 61.9051 34.6172 62.7217C35.4342 63.5387 38.2932 65.1722 44.6239 64.968C50.9546 64.7638 55.6514 64.2532 56.8769 63.0281C58.1023 61.803 56.6726 58.0249 56.5705 57.5143C56.4684 57.0037 58.2044 43.6275 58.2044 43.6275C58.2044 43.6275 65.0457 50.7751 69.1298 49.7539C73.2143 48.7327 71.274 32.8042 71.274 32.8042L71.4782 28.2091C71.4782 28.2091 72.8058 24.8395 72.8058 24.3289C72.8058 23.8183 71.4782 20.1424 71.4782 20.1424C71.4782 20.1424 70.6613 19.4275 70.1507 21.1636C69.64 22.8993 69.5379 24.0226 69.5379 24.0226C69.5379 24.0226 68.3125 24.9417 68.4146 26.2689C68.5167 27.5964 68.9252 28.6172 68.9252 28.6172L66.1683 37.6027C66.1683 37.6027 63.1051 34.131 62.9008 33.5183C62.6966 32.9056 62.7987 30.6593 60.2461 29.3317C57.6935 28.0045 52.4861 27.9024 52.4861 27.9024L38.089 28.0045C38.089 28.0045 31.3498 28.6172 29.8183 29.9444C28.2865 31.272 23.5897 48.1196 23.5897 50.6723C23.5897 51.4699 24.0082 53.9412 24.5901 57.0034L24.9626 58.9321Z" fill="#FE9365"/>
</g>
</g>
</g>
<g id="Group_52">
<path id="Vector_63" d="M69.1301 49.7541C73.2145 48.7329 71.2742 32.8044 71.2742 32.8044L71.3199 31.7731C70.1583 30.9361 69.0201 30.9283 68.1497 31.147L66.1686 37.6036C66.1686 37.6036 63.1053 34.1319 62.9011 33.5192C62.6968 32.9065 62.799 30.6602 60.2463 29.3326C57.6937 28.0054 52.4863 27.9033 52.4863 27.9033L38.0892 28.0054C38.0892 28.0054 31.35 28.6182 29.8186 29.9454C28.2868 31.2729 23.59 48.1205 23.59 50.6732C23.59 52.1875 25.0995 59.7403 26.3699 65.9106C28.0847 65.9478 29.5928 65.2745 30.5743 64.6859C30.7254 60.2717 30.9415 53.8597 30.9415 53.3283C30.9415 52.5113 32.8814 47.4061 32.8814 47.4061C32.8814 47.4061 34.4129 54.0431 34.4129 54.8601C34.4129 55.6771 33.8001 61.9057 34.6171 62.7223C35.4341 63.5392 38.2931 65.1728 44.6238 64.9685C50.9545 64.7643 55.6513 64.2537 56.8767 63.0286C58.1022 61.8036 56.6725 58.0255 56.5704 57.5149C56.4683 57.0043 58.2043 43.628 58.2043 43.628C58.2043 43.628 65.0456 50.7753 69.1301 49.7541Z" fill="#7195F3"/>
<g id="Group_53">
<path id="Vector_64" d="M30.8753 41.784L32.8817 47.4059L28.7534 40.3462" fill="#7195F3"/>
<path id="Vector_65" d="M43.8854 42.1841C44.7889 44.2124 46.1191 46.7535 47.6921 48.3919L43.8854 42.1841Z" fill="#7195F3"/>
<path id="Vector_66" d="M42.617 38.9844C42.617 38.9844 42.8959 39.821 43.3939 41.0346L42.617 38.9844Z" fill="#7195F3"/>
<path id="Vector_67" d="M44.845 45.7925C44.845 45.7925 47.0731 50.2486 48.1872 51.115L44.845 45.7925Z" fill="#7195F3"/>
<path id="Vector_68" d="M60.3179 39.2319L58.2042 43.6276L60.9303 41.1009" fill="#7195F3"/>
<path id="Vector_69" d="M69.9729 41.7075C69.8492 40.8412 66.1688 37.603 66.1688 37.603C66.1688 37.603 69.9729 39.1081 70.9629 40.4698" fill="#7195F3"/>
</g>
</g>
<path id="Vector_70" d="M53.916 14.5265C53.916 14.5265 54.1203 17.0791 54.4266 17.4876C54.733 17.8961 54.9372 21.0614 54.4266 21.9802C53.916 22.8989 53.6096 24.0222 53.3033 24.3285C52.9969 24.6349 51.8736 24.6349 51.4655 24.6349C51.057 24.6349 46.4623 24.4307 46.4623 24.4307L46.5645 17.9978C46.5645 17.9978 47.6874 13.1993 53.916 14.5265Z" fill="#FE9365"/>
<path id="Vector_71" d="M45.7471 7.37892C45.7471 7.37892 41.5605 8.70649 40.6418 12.3821C39.7227 16.058 42.6839 20.2442 42.6839 20.2442C42.6839 20.2442 43.5008 23.2053 44.2153 23.8181C44.9301 24.4308 47.7891 23.8181 48.7082 23.6138C49.6273 23.4096 51.6693 17.8958 51.6693 17.8958C51.6693 17.8958 51.6693 19.2234 52.2821 19.2234C52.8948 19.2234 52.7926 17.4877 52.7926 17.1814C52.7926 16.875 55.6516 14.7308 55.6516 11.0549C55.6516 7.37892 52.4863 5.74537 49.5252 5.94961C46.5641 6.15348 45.7471 7.37892 45.7471 7.37892Z" fill="#D0D0D0"/>
<g id="Group_54">
<path id="Vector_72" d="M54.4263 27.6979C54.4263 27.6979 53.8136 25.5538 53.5072 25.2474C53.2009 24.941 51.2609 23.716 48.0956 23.5117C44.9302 23.3075 40.2334 23.4096 39.8249 23.6138C39.4165 23.8181 39.3143 25.5538 39.3143 25.5538C39.3143 25.5538 37.9868 26.7792 37.6808 27.4937C37.3744 28.2085 37.0681 28.5149 39.9271 30.8633C42.7861 33.2117 44.3179 34.1307 47.279 33.4159C50.2401 32.7011 54.5288 28.4128 54.5288 28.4128L54.4263 27.6979Z" fill="#1741AC"/>
<path id="Vector_73" d="M47.1227 29.1434C49.9657 28.2533 52.8949 26.4727 52.8949 26.4727L47.1227 29.1434Z" fill="#1741AC"/>
<path id="Vector_74" d="M39.3145 25.9624C39.3145 25.9624 41.1522 29.6384 44.4197 29.6384C44.833 29.6384 45.2775 29.5879 45.7387 29.4991" fill="#1741AC"/>
</g>
</g>
</g>
</g>
</svg>
