<svg width="21" height="20" viewBox="0 0 21 20" fill="none" xmlns="http://www.w3.org/2000/svg">
<path d="M18.9 10.6594C18.7397 10.4769 18.6513 10.2423 18.6513 9.99941C18.6513 9.7565 18.7397 9.5219 18.9 9.33941L20.18 7.89941C20.3211 7.74208 20.4087 7.54411 20.4302 7.33391C20.4518 7.12372 20.4062 6.91209 20.3 6.72941L18.3 3.26941C18.1949 3.08693 18.0349 2.94228 17.8428 2.85609C17.6506 2.7699 17.4362 2.74656 17.23 2.78941L15.35 3.16941C15.1108 3.21884 14.8618 3.179 14.6499 3.05741C14.438 2.93582 14.278 2.74089 14.2 2.50941L13.59 0.679407C13.5229 0.480786 13.3951 0.308272 13.2246 0.186249C13.0542 0.0642258 12.8497 -0.00113433 12.64 -0.000593167H8.64002C8.42195 -0.0119752 8.20615 0.0483332 8.02558 0.171121C7.84501 0.293909 7.7096 0.472426 7.64002 0.679407L7.08002 2.50941C7.00202 2.74089 6.84199 2.93582 6.63013 3.05741C6.41827 3.179 6.16924 3.21884 5.93002 3.16941L4.00002 2.78941C3.80457 2.76179 3.60532 2.79263 3.42737 2.87805C3.24941 2.96346 3.10072 3.09964 3.00002 3.26941L1.00002 6.72941C0.891178 6.91006 0.84224 7.12049 0.860201 7.33063C0.878161 7.54077 0.962101 7.73985 1.10002 7.89941L2.37002 9.33941C2.53034 9.5219 2.61875 9.7565 2.61875 9.99941C2.61875 10.2423 2.53034 10.4769 2.37002 10.6594L1.10002 12.0994C0.962101 12.259 0.878161 12.458 0.860201 12.6682C0.84224 12.8783 0.891178 13.0888 1.00002 13.2694L3.00002 16.7294C3.10512 16.9119 3.26514 17.0565 3.45727 17.1427C3.6494 17.2289 3.86384 17.2522 4.07002 17.2094L5.95002 16.8294C6.18924 16.78 6.43827 16.8198 6.65013 16.9414C6.86199 17.063 7.02202 17.2579 7.10002 17.4894L7.71002 19.3194C7.7796 19.5264 7.91501 19.7049 8.09558 19.8277C8.27615 19.9505 8.49195 20.0108 8.71002 19.9994H12.71C12.9197 19.9999 13.1242 19.9346 13.2946 19.8126C13.4651 19.6905 13.5929 19.518 13.66 19.3194L14.27 17.4894C14.348 17.2579 14.508 17.063 14.7199 16.9414C14.9318 16.8198 15.1808 16.78 15.42 16.8294L17.3 17.2094C17.5062 17.2522 17.7206 17.2289 17.9128 17.1427C18.1049 17.0565 18.2649 16.9119 18.37 16.7294L20.37 13.2694C20.4762 13.0867 20.5218 12.8751 20.5002 12.6649C20.4787 12.4547 20.3911 12.2567 20.25 12.0994L18.9 10.6594ZM17.41 11.9994L18.21 12.8994L16.93 15.1194L15.75 14.8794C15.0298 14.7322 14.2806 14.8545 13.6446 15.2232C13.0086 15.5919 12.5302 16.1812 12.3 16.8794L11.92 17.9994H9.36002L9.00002 16.8594C8.76987 16.1612 8.2914 15.5719 7.65542 15.2032C7.01945 14.8345 6.27024 14.7122 5.55002 14.8594L4.37002 15.0994L3.07002 12.8894L3.87002 11.9894C4.36197 11.4394 4.63395 10.7273 4.63395 9.98941C4.63395 9.25147 4.36197 8.53943 3.87002 7.98941L3.07002 7.08941L4.35002 4.88941L5.53002 5.12941C6.25024 5.27663 6.99945 5.15429 7.63542 4.78561C8.2714 4.41692 8.74987 3.82757 8.98002 3.12941L9.36002 1.99941H11.92L12.3 3.13941C12.5302 3.83757 13.0086 4.42692 13.6446 4.79561C14.2806 5.16429 15.0298 5.28663 15.75 5.13941L16.93 4.89941L18.21 7.11941L17.41 8.01941C16.9236 8.56817 16.655 9.27609 16.655 10.0094C16.655 10.7427 16.9236 11.4506 17.41 11.9994ZM10.64 5.99941C9.84889 5.99941 9.07553 6.234 8.41774 6.67353C7.75994 7.11305 7.24725 7.73777 6.9445 8.46867C6.64175 9.19958 6.56254 10.0038 6.71688 10.7798C6.87122 11.5557 7.25218 12.2684 7.81159 12.8278C8.371 13.3872 9.08373 13.7682 9.85966 13.9225C10.6356 14.0769 11.4398 13.9977 12.1708 13.6949C12.9017 13.3922 13.5264 12.8795 13.9659 12.2217C14.4054 11.5639 14.64 10.7905 14.64 9.99941C14.64 8.93854 14.2186 7.92112 13.4684 7.17098C12.7183 6.42083 11.7009 5.99941 10.64 5.99941ZM10.64 11.9994C10.2445 11.9994 9.85778 11.8821 9.52888 11.6623C9.19998 11.4426 8.94363 11.1302 8.79226 10.7648C8.64088 10.3993 8.60128 9.99719 8.67845 9.60923C8.75562 9.22126 8.9461 8.8649 9.2258 8.58519C9.50551 8.30549 9.86188 8.11501 10.2498 8.03784C10.6378 7.96067 11.0399 8.00027 11.4054 8.15165C11.7708 8.30302 12.0832 8.55937 12.303 8.88827C12.5227 9.21716 12.64 9.60384 12.64 9.99941C12.64 10.5298 12.4293 11.0385 12.0542 11.4136C11.6792 11.7887 11.1705 11.9994 10.64 11.9994Z" fill="#3662D4"/>
</svg>
