<svg width="12" height="12" viewBox="0 0 12 12" fill="none" xmlns="http://www.w3.org/2000/svg">
<path id="star" d="M11.9708 4.42222C11.9364 4.31581 11.8729 4.22113 11.7876 4.14886C11.7023 4.07659 11.5984 4.02961 11.4878 4.01322L8.06778 3.41322L6.53778 0.338219C6.48802 0.238374 6.41141 0.154383 6.31655 0.0956726C6.22169 0.0369623 6.11234 0.00585938 6.00078 0.00585938C5.88923 0.00585938 5.77988 0.0369623 5.68502 0.0956726C5.59016 0.154383 5.51354 0.238374 5.46378 0.338219L3.93378 3.41222L0.513784 4.03822C0.402915 4.05432 0.298766 4.10113 0.213133 4.17337C0.127499 4.24561 0.0638012 4.34037 0.029249 4.44695C-0.00530307 4.55352 -0.00932859 4.66763 0.0176295 4.77637C0.0445875 4.88511 0.101452 4.98413 0.181784 5.06222L2.65578 7.34822L2.00978 10.6712C1.99085 10.7816 2.00322 10.8951 2.04545 10.9989C2.08769 11.1026 2.15813 11.1924 2.24878 11.2582C2.34129 11.3191 2.44777 11.3553 2.55819 11.3635C2.6686 11.3718 2.77929 11.3517 2.87978 11.3052L6.00078 9.78022L9.10078 11.3052C9.20001 11.3576 9.31193 11.3811 9.42383 11.373C9.53574 11.3649 9.64314 11.3257 9.73385 11.2596C9.82455 11.1936 9.89493 11.1035 9.93699 10.9995C9.97904 10.8955 9.9911 10.7817 9.97178 10.6712L9.34478 7.34822L11.8208 5.03822C11.9008 4.95979 11.9573 4.86052 11.9838 4.75165C12.0103 4.64278 12.0058 4.52866 11.9708 4.42222Z" fill="#F3B100"/>
</svg>
